<svg width="156" height="382" viewBox="0 0 156 382" fill="none" xmlns="http://www.w3.org/2000/svg">
<rect x="0.999512" y="192" width="155" height="190" fill="#FFDAE2"/>
<rect x="156" y="2" width="380" height="155" transform="rotate(90 156 2)" fill="#FFDAE2"/>
<path d="M113.941 163.834L112.558 165.152L112.007 164.408L113.941 162.557L114.878 162.147V170.59L113.941 171V163.834ZM123.714 164.889C123.714 165.584 123.425 166.158 122.847 166.611C121.796 167.432 121.253 167.863 121.218 167.906C120.585 168.551 120.136 169.195 119.871 169.84L119.818 169.945H123.826L123.416 170.883H118.388L118.833 169.734C119.427 168.426 120.24 167.4 121.271 166.658C121.783 166.279 122.125 166.029 122.296 165.908C122.621 165.682 122.783 165.322 122.783 164.83C122.783 164.803 122.783 164.773 122.783 164.742C122.771 164.266 122.605 163.865 122.285 163.541C121.957 163.209 121.554 163.043 121.078 163.043C120.613 163.043 120.212 163.209 119.876 163.541C119.541 163.873 119.373 164.262 119.373 164.707C119.373 164.715 119.373 164.725 119.373 164.736L119.378 164.795L118.441 165.205L118.435 164.754C118.435 164.051 118.693 163.438 119.208 162.914C119.716 162.402 120.339 162.147 121.078 162.147C121.816 162.147 122.439 162.4 122.947 162.908C123.458 163.412 123.714 164.072 123.714 164.889ZM127.306 170.777C127.158 170.625 127.083 170.441 127.083 170.227C127.083 170.012 127.158 169.83 127.306 169.682C127.455 169.529 127.634 169.453 127.845 169.453C128.056 169.453 128.236 169.529 128.384 169.682C128.533 169.83 128.607 170.012 128.607 170.227C128.607 170.441 128.533 170.625 128.384 170.777C128.236 170.926 128.056 171 127.845 171C127.634 171 127.455 170.926 127.306 170.777ZM127.306 167.145C127.158 166.992 127.083 166.809 127.083 166.594C127.083 166.379 127.158 166.197 127.306 166.049C127.455 165.897 127.634 165.82 127.845 165.82C128.056 165.82 128.236 165.897 128.384 166.049C128.533 166.197 128.607 166.379 128.607 166.594C128.607 166.809 128.533 166.992 128.384 167.145C128.236 167.293 128.056 167.367 127.845 167.367C127.634 167.367 127.455 167.293 127.306 167.145ZM132.878 164.736V168.41C132.878 168.535 132.89 168.654 132.914 168.768L135.585 163.371C135.292 163.152 134.958 163.043 134.583 163.043C134.111 163.043 133.708 163.209 133.376 163.541C133.044 163.869 132.878 164.268 132.878 164.736ZM137.226 164.754V168.393C137.226 169.111 136.968 169.727 136.453 170.238C135.937 170.746 135.314 171 134.583 171C133.849 171 133.226 170.746 132.714 170.238C132.199 169.727 131.941 169.111 131.941 168.393V164.754C131.941 164.035 132.199 163.422 132.714 162.914C133.23 162.402 133.853 162.147 134.583 162.147C135.314 162.147 135.937 162.402 136.453 162.914C136.968 163.422 137.226 164.035 137.226 164.754ZM136.212 164.221L133.494 169.711C133.802 169.973 134.166 170.104 134.583 170.104C135.048 170.104 135.449 169.938 135.785 169.606C136.117 169.277 136.285 168.879 136.289 168.41V164.736C136.289 164.553 136.263 164.381 136.212 164.221ZM139.617 164.736V168.41C139.617 168.535 139.628 168.654 139.652 168.768L142.324 163.371C142.031 163.152 141.697 163.043 141.322 163.043C140.849 163.043 140.447 163.209 140.115 163.541C139.783 163.869 139.617 164.268 139.617 164.736ZM143.964 164.754V168.393C143.964 169.111 143.707 169.727 143.191 170.238C142.675 170.746 142.052 171 141.322 171C140.587 171 139.964 170.746 139.453 170.238C138.937 169.727 138.679 169.111 138.679 168.393V164.754C138.679 164.035 138.937 163.422 139.453 162.914C139.968 162.402 140.591 162.147 141.322 162.147C142.052 162.147 142.675 162.402 143.191 162.914C143.707 163.422 143.964 164.035 143.964 164.754ZM142.951 164.221L140.232 169.711C140.541 169.973 140.904 170.104 141.322 170.104C141.787 170.104 142.187 169.938 142.523 169.606C142.855 169.277 143.023 168.879 143.027 168.41V164.736C143.027 164.553 143.001 164.381 142.951 164.221Z" fill="#FF2551"/>
<path d="M113.941 124.834L112.559 126.152L112.008 125.408L113.941 123.557L114.879 123.147V131.59L113.941 132V124.834ZM119.402 125.736V129.41C119.402 129.535 119.414 129.654 119.438 129.768L122.109 124.371C121.816 124.152 121.482 124.043 121.107 124.043C120.635 124.043 120.232 124.209 119.9 124.541C119.568 124.869 119.402 125.268 119.402 125.736ZM123.75 125.754V129.393C123.75 130.111 123.492 130.727 122.977 131.238C122.461 131.746 121.838 132 121.107 132C120.373 132 119.75 131.746 119.238 131.238C118.723 130.727 118.465 130.111 118.465 129.393V125.754C118.465 125.035 118.723 124.422 119.238 123.914C119.754 123.402 120.377 123.147 121.107 123.147C121.838 123.147 122.461 123.402 122.977 123.914C123.492 124.422 123.75 125.035 123.75 125.754ZM122.736 125.221L120.018 130.711C120.326 130.973 120.689 131.104 121.107 131.104C121.572 131.104 121.973 130.938 122.309 130.606C122.641 130.277 122.809 129.879 122.812 129.41V125.736C122.812 125.553 122.787 125.381 122.736 125.221ZM127.307 131.777C127.158 131.625 127.084 131.441 127.084 131.227C127.084 131.012 127.158 130.83 127.307 130.682C127.455 130.529 127.635 130.453 127.846 130.453C128.057 130.453 128.236 130.529 128.385 130.682C128.533 130.83 128.607 131.012 128.607 131.227C128.607 131.441 128.533 131.625 128.385 131.777C128.236 131.926 128.057 132 127.846 132C127.635 132 127.455 131.926 127.307 131.777ZM127.307 128.145C127.158 127.992 127.084 127.809 127.084 127.594C127.084 127.379 127.158 127.197 127.307 127.049C127.455 126.897 127.635 126.82 127.846 126.82C128.057 126.82 128.236 126.897 128.385 127.049C128.533 127.197 128.607 127.379 128.607 127.594C128.607 127.809 128.533 127.992 128.385 128.145C128.236 128.293 128.057 128.367 127.846 128.367C127.635 128.367 127.455 128.293 127.307 128.145ZM132.879 125.736V129.41C132.879 129.535 132.891 129.654 132.914 129.768L135.586 124.371C135.293 124.152 134.959 124.043 134.584 124.043C134.111 124.043 133.709 124.209 133.377 124.541C133.045 124.869 132.879 125.268 132.879 125.736ZM137.227 125.754V129.393C137.227 130.111 136.969 130.727 136.453 131.238C135.938 131.746 135.314 132 134.584 132C133.85 132 133.227 131.746 132.715 131.238C132.199 130.727 131.941 130.111 131.941 129.393V125.754C131.941 125.035 132.199 124.422 132.715 123.914C133.23 123.402 133.854 123.147 134.584 123.147C135.314 123.147 135.938 123.402 136.453 123.914C136.969 124.422 137.227 125.035 137.227 125.754ZM136.213 125.221L133.494 130.711C133.803 130.973 134.166 131.104 134.584 131.104C135.049 131.104 135.449 130.938 135.785 130.606C136.117 130.277 136.285 129.879 136.289 129.41V125.736C136.289 125.553 136.264 125.381 136.213 125.221ZM139.617 125.736V129.41C139.617 129.535 139.629 129.654 139.652 129.768L142.324 124.371C142.031 124.152 141.697 124.043 141.322 124.043C140.85 124.043 140.447 124.209 140.115 124.541C139.783 124.869 139.617 125.268 139.617 125.736ZM143.965 125.754V129.393C143.965 130.111 143.707 130.727 143.191 131.238C142.676 131.746 142.053 132 141.322 132C140.588 132 139.965 131.746 139.453 131.238C138.938 130.727 138.68 130.111 138.68 129.393V125.754C138.68 125.035 138.938 124.422 139.453 123.914C139.969 123.402 140.592 123.147 141.322 123.147C142.053 123.147 142.676 123.402 143.191 123.914C143.707 124.422 143.965 125.035 143.965 125.754ZM142.951 125.221L140.232 130.711C140.541 130.973 140.904 131.104 141.322 131.104C141.787 131.104 142.188 130.938 142.523 130.606C142.855 130.277 143.023 129.879 143.027 129.41V125.736C143.027 125.553 143.002 125.381 142.951 125.221Z" fill="#FF2551"/>
<path d="M112.664 86.7363V90.4102C112.664 90.5352 112.676 90.6543 112.699 90.7676L115.371 85.3711C115.078 85.1523 114.744 85.043 114.369 85.043C113.896 85.043 113.494 85.209 113.162 85.541C112.83 85.8691 112.664 86.2676 112.664 86.7363ZM117.012 86.7539V90.3926C117.012 91.1113 116.754 91.7266 116.238 92.2383C115.723 92.7461 115.1 93 114.369 93C113.635 93 113.012 92.7461 112.5 92.2383C111.984 91.7266 111.727 91.1113 111.727 90.3926V86.7539C111.727 86.0352 111.984 85.4219 112.5 84.9141C113.016 84.4023 113.639 84.1465 114.369 84.1465C115.1 84.1465 115.723 84.4023 116.238 84.9141C116.754 85.4219 117.012 86.0352 117.012 86.7539ZM115.998 86.2207L113.279 91.7109C113.588 91.9727 113.951 92.1035 114.369 92.1035C114.834 92.1035 115.234 91.9375 115.57 91.6055C115.902 91.2773 116.07 90.8789 116.074 90.4102V86.7363C116.074 86.5527 116.049 86.3809 115.998 86.2207ZM123.744 90.3164V90.3926V90.4102C123.744 91.1602 123.49 91.7695 122.982 92.2383C122.432 92.7461 121.809 93 121.113 93C120.383 93 119.744 92.7285 119.197 92.1855C118.764 91.752 118.521 91.1309 118.471 90.3223V90.3164C118.479 89.5938 118.736 88.9922 119.244 88.5117C119.381 88.3828 119.525 88.2676 119.678 88.166C119.576 88.0957 119.48 88.0156 119.391 87.9258C118.953 87.4922 118.734 86.9688 118.734 86.3555C118.734 85.7383 118.949 85.2168 119.379 84.791C119.816 84.3574 120.393 84.1406 121.107 84.1406C121.799 84.1406 122.355 84.3379 122.777 84.7324L122.836 84.791C123.055 85.0098 123.215 85.2461 123.316 85.5C123.43 85.7617 123.486 86.0449 123.486 86.3496C123.475 86.9707 123.254 87.4961 122.824 87.9258C122.734 88.0156 122.639 88.0957 122.537 88.166C122.689 88.2676 122.834 88.3828 122.971 88.5117C123.479 89.0039 123.736 89.6055 123.744 90.3164ZM122.818 90.3281C122.799 89.875 122.639 89.5039 122.338 89.2148C121.967 88.8672 121.557 88.6758 121.107 88.6406C120.658 88.6758 120.248 88.8672 119.877 89.2148C119.564 89.5117 119.408 89.9043 119.408 90.3926V90.4102C119.408 90.8789 119.57 91.2773 119.895 91.6055C120.23 91.9375 120.637 92.1035 121.113 92.1035C121.578 92.1035 121.98 91.9375 122.32 91.6055C122.645 91.2773 122.811 90.8867 122.818 90.4336C122.818 90.4219 122.818 90.4121 122.818 90.4043V90.3281ZM120.053 85.4531C119.803 85.707 119.678 86.0078 119.678 86.3555C119.678 86.7031 119.803 87.002 120.053 87.252C120.283 87.4824 120.637 87.625 121.113 87.6797C121.578 87.6289 121.928 87.4863 122.162 87.252C122.412 87.002 122.537 86.7031 122.537 86.3555C122.537 86.0156 122.416 85.7188 122.174 85.4648C121.943 85.2266 121.604 85.0977 121.154 85.0781C120.678 85.0781 120.311 85.2031 120.053 85.4531ZM127.307 92.7773C127.158 92.625 127.084 92.4414 127.084 92.2266C127.084 92.0117 127.158 91.8301 127.307 91.6816C127.455 91.5293 127.635 91.4531 127.846 91.4531C128.057 91.4531 128.236 91.5293 128.385 91.6816C128.533 91.8301 128.607 92.0117 128.607 92.2266C128.607 92.4414 128.533 92.625 128.385 92.7773C128.236 92.9258 128.057 93 127.846 93C127.635 93 127.455 92.9258 127.307 92.7773ZM127.307 89.1445C127.158 88.9922 127.084 88.8086 127.084 88.5938C127.084 88.3789 127.158 88.1973 127.307 88.0488C127.455 87.8965 127.635 87.8203 127.846 87.8203C128.057 87.8203 128.236 87.8965 128.385 88.0488C128.533 88.1973 128.607 88.3789 128.607 88.5938C128.607 88.8086 128.533 88.9922 128.385 89.1445C128.236 89.293 128.057 89.3672 127.846 89.3672C127.635 89.3672 127.455 89.293 127.307 89.1445ZM132.879 86.7363V90.4102C132.879 90.5352 132.891 90.6543 132.914 90.7676L135.586 85.3711C135.293 85.1523 134.959 85.043 134.584 85.043C134.111 85.043 133.709 85.209 133.377 85.541C133.045 85.8691 132.879 86.2676 132.879 86.7363ZM137.227 86.7539V90.3926C137.227 91.1113 136.969 91.7266 136.453 92.2383C135.938 92.7461 135.314 93 134.584 93C133.85 93 133.227 92.7461 132.715 92.2383C132.199 91.7266 131.941 91.1113 131.941 90.3926V86.7539C131.941 86.0352 132.199 85.4219 132.715 84.9141C133.23 84.4023 133.854 84.1465 134.584 84.1465C135.314 84.1465 135.938 84.4023 136.453 84.9141C136.969 85.4219 137.227 86.0352 137.227 86.7539ZM136.213 86.2207L133.494 91.7109C133.803 91.9727 134.166 92.1035 134.584 92.1035C135.049 92.1035 135.449 91.9375 135.785 91.6055C136.117 91.2773 136.285 90.8789 136.289 90.4102V86.7363C136.289 86.5527 136.264 86.3809 136.213 86.2207ZM139.617 86.7363V90.4102C139.617 90.5352 139.629 90.6543 139.652 90.7676L142.324 85.3711C142.031 85.1523 141.697 85.043 141.322 85.043C140.85 85.043 140.447 85.209 140.115 85.541C139.783 85.8691 139.617 86.2676 139.617 86.7363ZM143.965 86.7539V90.3926C143.965 91.1113 143.707 91.7266 143.191 92.2383C142.676 92.7461 142.053 93 141.322 93C140.588 93 139.965 92.7461 139.453 92.2383C138.938 91.7266 138.68 91.1113 138.68 90.3926V86.7539C138.68 86.0352 138.938 85.4219 139.453 84.9141C139.969 84.4023 140.592 84.1465 141.322 84.1465C142.053 84.1465 142.676 84.4023 143.191 84.9141C143.707 85.4219 143.965 86.0352 143.965 86.7539ZM142.951 86.2207L140.232 91.7109C140.541 91.9727 140.904 92.1035 141.322 92.1035C141.787 92.1035 142.188 91.9375 142.523 91.6055C142.855 91.2773 143.023 90.8789 143.027 90.4102V86.7363C143.027 86.5527 143.002 86.3809 142.951 86.2207Z" fill="#FF2551"/>
<path d="M112.664 105.736V109.41C112.664 109.535 112.676 109.654 112.699 109.768L115.371 104.371C115.078 104.152 114.744 104.043 114.369 104.043C113.896 104.043 113.494 104.209 113.162 104.541C112.83 104.869 112.664 105.268 112.664 105.736ZM117.012 105.754V109.393C117.012 110.111 116.754 110.727 116.238 111.238C115.723 111.746 115.1 112 114.369 112C113.635 112 113.012 111.746 112.5 111.238C111.984 110.727 111.727 110.111 111.727 109.393V105.754C111.727 105.035 111.984 104.422 112.5 103.914C113.016 103.402 113.639 103.147 114.369 103.147C115.1 103.147 115.723 103.402 116.238 103.914C116.754 104.422 117.012 105.035 117.012 105.754ZM115.998 105.221L113.279 110.711C113.588 110.973 113.951 111.104 114.369 111.104C114.834 111.104 115.234 110.938 115.57 110.606C115.902 110.277 116.07 109.879 116.074 109.41V105.736C116.074 105.553 116.049 105.381 115.998 105.221ZM121.107 111.104C121.58 111.104 121.982 110.94 122.314 110.611C122.646 110.279 122.812 109.879 122.812 109.41V107.729C122.316 108.143 121.748 108.35 121.107 108.35C120.369 108.35 119.746 108.094 119.238 107.582C118.723 107.086 118.465 106.473 118.465 105.742C118.469 105.047 118.727 104.436 119.238 103.908C119.727 103.4 120.35 103.147 121.107 103.147C121.842 103.147 122.465 103.4 122.977 103.908C123.492 104.416 123.75 105.031 123.75 105.754V109.393C123.75 110.107 123.484 110.721 122.953 111.232C122.422 111.744 121.807 112 121.107 112C120.365 112 119.742 111.746 119.238 111.238C118.723 110.715 118.465 110.1 118.465 109.393V109.316L119.402 108.906V109.41C119.402 109.879 119.57 110.277 119.906 110.606C120.242 110.938 120.643 111.104 121.107 111.104ZM119.402 105.748V105.76C119.402 106.225 119.57 106.623 119.906 106.955C120.242 107.287 120.643 107.453 121.107 107.453C121.557 107.453 121.959 107.287 122.314 106.955C122.646 106.65 122.812 106.252 122.812 105.76V105.736C122.812 105.272 122.646 104.873 122.314 104.541C121.982 104.209 121.58 104.043 121.107 104.043C120.65 104.043 120.25 104.209 119.906 104.541C119.57 104.869 119.402 105.272 119.402 105.748ZM127.307 111.777C127.158 111.625 127.084 111.441 127.084 111.227C127.084 111.012 127.158 110.83 127.307 110.682C127.455 110.529 127.635 110.453 127.846 110.453C128.057 110.453 128.236 110.529 128.385 110.682C128.533 110.83 128.607 111.012 128.607 111.227C128.607 111.441 128.533 111.625 128.385 111.777C128.236 111.926 128.057 112 127.846 112C127.635 112 127.455 111.926 127.307 111.777ZM127.307 108.145C127.158 107.992 127.084 107.809 127.084 107.594C127.084 107.379 127.158 107.197 127.307 107.049C127.455 106.897 127.635 106.82 127.846 106.82C128.057 106.82 128.236 106.897 128.385 107.049C128.533 107.197 128.607 107.379 128.607 107.594C128.607 107.809 128.533 107.992 128.385 108.145C128.236 108.293 128.057 108.367 127.846 108.367C127.635 108.367 127.455 108.293 127.307 108.145ZM132.879 105.736V109.41C132.879 109.535 132.891 109.654 132.914 109.768L135.586 104.371C135.293 104.152 134.959 104.043 134.584 104.043C134.111 104.043 133.709 104.209 133.377 104.541C133.045 104.869 132.879 105.268 132.879 105.736ZM137.227 105.754V109.393C137.227 110.111 136.969 110.727 136.453 111.238C135.938 111.746 135.314 112 134.584 112C133.85 112 133.227 111.746 132.715 111.238C132.199 110.727 131.941 110.111 131.941 109.393V105.754C131.941 105.035 132.199 104.422 132.715 103.914C133.23 103.402 133.854 103.147 134.584 103.147C135.314 103.147 135.938 103.402 136.453 103.914C136.969 104.422 137.227 105.035 137.227 105.754ZM136.213 105.221L133.494 110.711C133.803 110.973 134.166 111.104 134.584 111.104C135.049 111.104 135.449 110.938 135.785 110.606C136.117 110.277 136.285 109.879 136.289 109.41V105.736C136.289 105.553 136.264 105.381 136.213 105.221ZM139.617 105.736V109.41C139.617 109.535 139.629 109.654 139.652 109.768L142.324 104.371C142.031 104.152 141.697 104.043 141.322 104.043C140.85 104.043 140.447 104.209 140.115 104.541C139.783 104.869 139.617 105.268 139.617 105.736ZM143.965 105.754V109.393C143.965 110.111 143.707 110.727 143.191 111.238C142.676 111.746 142.053 112 141.322 112C140.588 112 139.965 111.746 139.453 111.238C138.938 110.727 138.68 110.111 138.68 109.393V105.754C138.68 105.035 138.938 104.422 139.453 103.914C139.969 103.402 140.592 103.147 141.322 103.147C142.053 103.147 142.676 103.402 143.191 103.914C143.707 104.422 143.965 105.035 143.965 105.754ZM142.951 105.221L140.232 110.711C140.541 110.973 140.904 111.104 141.322 111.104C141.787 111.104 142.188 110.938 142.523 110.606C142.855 110.277 143.023 109.879 143.027 109.41V105.736C143.027 105.553 143.002 105.381 142.951 105.221Z" fill="#FF2551"/>
<path d="M113.941 143.834L112.559 145.152L112.008 144.408L113.941 142.557L114.879 142.147V150.59L113.941 151V143.834ZM120.68 143.834L119.297 145.152L118.746 144.408L120.68 142.557L121.617 142.147V150.59L120.68 151V143.834ZM127.307 150.777C127.158 150.625 127.084 150.441 127.084 150.227C127.084 150.012 127.158 149.83 127.307 149.682C127.455 149.529 127.635 149.453 127.846 149.453C128.057 149.453 128.236 149.529 128.385 149.682C128.533 149.83 128.607 150.012 128.607 150.227C128.607 150.441 128.533 150.625 128.385 150.777C128.236 150.926 128.057 151 127.846 151C127.635 151 127.455 150.926 127.307 150.777ZM127.307 147.145C127.158 146.992 127.084 146.809 127.084 146.594C127.084 146.379 127.158 146.197 127.307 146.049C127.455 145.897 127.635 145.82 127.846 145.82C128.057 145.82 128.236 145.897 128.385 146.049C128.533 146.197 128.607 146.379 128.607 146.594C128.607 146.809 128.533 146.992 128.385 147.145C128.236 147.293 128.057 147.367 127.846 147.367C127.635 147.367 127.455 147.293 127.307 147.145ZM132.879 144.736V148.41C132.879 148.535 132.891 148.654 132.914 148.768L135.586 143.371C135.293 143.152 134.959 143.043 134.584 143.043C134.111 143.043 133.709 143.209 133.377 143.541C133.045 143.869 132.879 144.268 132.879 144.736ZM137.227 144.754V148.393C137.227 149.111 136.969 149.727 136.453 150.238C135.938 150.746 135.314 151 134.584 151C133.85 151 133.227 150.746 132.715 150.238C132.199 149.727 131.941 149.111 131.941 148.393V144.754C131.941 144.035 132.199 143.422 132.715 142.914C133.23 142.402 133.854 142.147 134.584 142.147C135.314 142.147 135.938 142.402 136.453 142.914C136.969 143.422 137.227 144.035 137.227 144.754ZM136.213 144.221L133.494 149.711C133.803 149.973 134.166 150.104 134.584 150.104C135.049 150.104 135.449 149.938 135.785 149.606C136.117 149.277 136.285 148.879 136.289 148.41V144.736C136.289 144.553 136.264 144.381 136.213 144.221ZM139.617 144.736V148.41C139.617 148.535 139.629 148.654 139.652 148.768L142.324 143.371C142.031 143.152 141.697 143.043 141.322 143.043C140.85 143.043 140.447 143.209 140.115 143.541C139.783 143.869 139.617 144.268 139.617 144.736ZM143.965 144.754V148.393C143.965 149.111 143.707 149.727 143.191 150.238C142.676 150.746 142.053 151 141.322 151C140.588 151 139.965 150.746 139.453 150.238C138.938 149.727 138.68 149.111 138.68 148.393V144.754C138.68 144.035 138.938 143.422 139.453 142.914C139.969 142.402 140.592 142.147 141.322 142.147C142.053 142.147 142.676 142.402 143.191 142.914C143.707 143.422 143.965 144.035 143.965 144.754ZM142.951 144.221L140.232 149.711C140.541 149.973 140.904 150.104 141.322 150.104C141.787 150.104 142.188 149.938 142.523 149.606C142.855 149.277 143.023 148.879 143.027 148.41V144.736C143.027 144.553 143.002 144.381 142.951 144.221Z" fill="#FF2551"/>
<path d="M113.941 181.834L112.558 183.152L112.007 182.408L113.941 180.557L114.878 180.147V188.59L113.941 189V181.834ZM120.931 184.635C120.818 184.635 120.65 184.676 120.427 184.758L119.935 184.324L121.833 181.201H118.681L119.091 180.264H123.474L121.458 183.744C122.029 183.83 122.533 184.086 122.97 184.512C123.486 185.012 123.744 185.625 123.744 186.352V186.369C123.744 187.111 123.49 187.734 122.982 188.238C122.47 188.746 121.847 189 121.113 189C120.371 189 119.748 188.746 119.244 188.238C118.728 187.715 118.47 187.1 118.47 186.393V186.316L119.408 185.906V186.41C119.408 186.879 119.576 187.277 119.912 187.606C120.248 187.938 120.648 188.104 121.113 188.104C121.585 188.104 121.988 187.938 122.32 187.606C122.652 187.27 122.818 186.869 122.818 186.404C122.818 185.916 122.658 185.52 122.337 185.215C121.998 184.891 121.597 184.701 121.136 184.647C121.07 184.639 121.001 184.635 120.931 184.635ZM127.306 188.777C127.158 188.625 127.083 188.441 127.083 188.227C127.083 188.012 127.158 187.83 127.306 187.682C127.455 187.529 127.634 187.453 127.845 187.453C128.056 187.453 128.236 187.529 128.384 187.682C128.533 187.83 128.607 188.012 128.607 188.227C128.607 188.441 128.533 188.625 128.384 188.777C128.236 188.926 128.056 189 127.845 189C127.634 189 127.455 188.926 127.306 188.777ZM127.306 185.145C127.158 184.992 127.083 184.809 127.083 184.594C127.083 184.379 127.158 184.197 127.306 184.049C127.455 183.897 127.634 183.82 127.845 183.82C128.056 183.82 128.236 183.897 128.384 184.049C128.533 184.197 128.607 184.379 128.607 184.594C128.607 184.809 128.533 184.992 128.384 185.145C128.236 185.293 128.056 185.367 127.845 185.367C127.634 185.367 127.455 185.293 127.306 185.145ZM132.878 182.736V186.41C132.878 186.535 132.89 186.654 132.914 186.768L135.585 181.371C135.292 181.152 134.958 181.043 134.583 181.043C134.111 181.043 133.708 181.209 133.376 181.541C133.044 181.869 132.878 182.268 132.878 182.736ZM137.226 182.754V186.393C137.226 187.111 136.968 187.727 136.453 188.238C135.937 188.746 135.314 189 134.583 189C133.849 189 133.226 188.746 132.714 188.238C132.199 187.727 131.941 187.111 131.941 186.393V182.754C131.941 182.035 132.199 181.422 132.714 180.914C133.23 180.402 133.853 180.147 134.583 180.147C135.314 180.147 135.937 180.402 136.453 180.914C136.968 181.422 137.226 182.035 137.226 182.754ZM136.212 182.221L133.494 187.711C133.802 187.973 134.166 188.104 134.583 188.104C135.048 188.104 135.449 187.938 135.785 187.606C136.117 187.277 136.285 186.879 136.289 186.41V182.736C136.289 182.553 136.263 182.381 136.212 182.221ZM139.617 182.736V186.41C139.617 186.535 139.628 186.654 139.652 186.768L142.324 181.371C142.031 181.152 141.697 181.043 141.322 181.043C140.849 181.043 140.447 181.209 140.115 181.541C139.783 181.869 139.617 182.268 139.617 182.736ZM143.964 182.754V186.393C143.964 187.111 143.707 187.727 143.191 188.238C142.675 188.746 142.052 189 141.322 189C140.587 189 139.964 188.746 139.453 188.238C138.937 187.727 138.679 187.111 138.679 186.393V182.754C138.679 182.035 138.937 181.422 139.453 180.914C139.968 180.402 140.591 180.147 141.322 180.147C142.052 180.147 142.675 180.402 143.191 180.914C143.707 181.422 143.964 182.035 143.964 182.754ZM142.951 182.221L140.232 187.711C140.541 187.973 140.904 188.104 141.322 188.104C141.787 188.104 142.187 187.938 142.523 187.606C142.855 187.277 143.023 186.879 143.027 186.41V182.736C143.027 182.553 143.001 182.381 142.951 182.221Z" fill="#FF2551"/>
<path d="M113.941 220.834L112.558 222.152L112.007 221.408L113.941 219.557L114.878 219.147V227.59L113.941 228V220.834ZM120.902 223.641C120.652 223.641 120.386 223.693 120.105 223.799L119.63 224.027L118.927 223.412L119.707 219.264H123.474L122.982 220.201H120.486L119.976 222.897C120.296 222.799 120.623 222.75 120.955 222.75C121.044 222.75 121.13 222.754 121.212 222.762C122.009 222.836 122.626 223.096 123.064 223.541C123.517 224.002 123.744 224.606 123.744 225.352V225.369C123.744 226.111 123.49 226.734 122.982 227.238C122.47 227.746 121.847 228 121.113 228C120.371 228 119.748 227.746 119.244 227.238C118.728 226.715 118.47 226.1 118.47 225.393V225.316L119.408 224.906V225.41C119.408 225.879 119.576 226.277 119.912 226.606C120.248 226.938 120.648 227.104 121.113 227.104C121.585 227.104 121.988 226.938 122.32 226.606C122.652 226.27 122.818 225.869 122.818 225.404C122.818 224.846 122.654 224.426 122.326 224.145C121.998 223.856 121.601 223.69 121.136 223.647C121.058 223.643 120.98 223.641 120.902 223.641ZM127.306 227.777C127.158 227.625 127.083 227.441 127.083 227.227C127.083 227.012 127.158 226.83 127.306 226.682C127.455 226.529 127.634 226.453 127.845 226.453C128.056 226.453 128.236 226.529 128.384 226.682C128.533 226.83 128.607 227.012 128.607 227.227C128.607 227.441 128.533 227.625 128.384 227.777C128.236 227.926 128.056 228 127.845 228C127.634 228 127.455 227.926 127.306 227.777ZM127.306 224.145C127.158 223.992 127.083 223.809 127.083 223.594C127.083 223.379 127.158 223.197 127.306 223.049C127.455 222.897 127.634 222.82 127.845 222.82C128.056 222.82 128.236 222.897 128.384 223.049C128.533 223.197 128.607 223.379 128.607 223.594C128.607 223.809 128.533 223.992 128.384 224.145C128.236 224.293 128.056 224.367 127.845 224.367C127.634 224.367 127.455 224.293 127.306 224.145ZM132.878 221.736V225.41C132.878 225.535 132.89 225.654 132.914 225.768L135.585 220.371C135.292 220.152 134.958 220.043 134.583 220.043C134.111 220.043 133.708 220.209 133.376 220.541C133.044 220.869 132.878 221.268 132.878 221.736ZM137.226 221.754V225.393C137.226 226.111 136.968 226.727 136.453 227.238C135.937 227.746 135.314 228 134.583 228C133.849 228 133.226 227.746 132.714 227.238C132.199 226.727 131.941 226.111 131.941 225.393V221.754C131.941 221.035 132.199 220.422 132.714 219.914C133.23 219.402 133.853 219.147 134.583 219.147C135.314 219.147 135.937 219.402 136.453 219.914C136.968 220.422 137.226 221.035 137.226 221.754ZM136.212 221.221L133.494 226.711C133.802 226.973 134.166 227.104 134.583 227.104C135.048 227.104 135.449 226.938 135.785 226.606C136.117 226.277 136.285 225.879 136.289 225.41V221.736C136.289 221.553 136.263 221.381 136.212 221.221ZM139.617 221.736V225.41C139.617 225.535 139.628 225.654 139.652 225.768L142.324 220.371C142.031 220.152 141.697 220.043 141.322 220.043C140.849 220.043 140.447 220.209 140.115 220.541C139.783 220.869 139.617 221.268 139.617 221.736ZM143.964 221.754V225.393C143.964 226.111 143.707 226.727 143.191 227.238C142.675 227.746 142.052 228 141.322 228C140.587 228 139.964 227.746 139.453 227.238C138.937 226.727 138.679 226.111 138.679 225.393V221.754C138.679 221.035 138.937 220.422 139.453 219.914C139.968 219.402 140.591 219.147 141.322 219.147C142.052 219.147 142.675 219.402 143.191 219.914C143.707 220.422 143.964 221.035 143.964 221.754ZM142.951 221.221L140.232 226.711C140.541 226.973 140.904 227.104 141.322 227.104C141.787 227.104 142.187 226.938 142.523 226.606C142.855 226.277 143.023 225.879 143.027 225.41V221.736C143.027 221.553 143.001 221.381 142.951 221.221Z" fill="#FF2551"/>
<path d="M112.664 47.7363V51.4102C112.664 51.5352 112.676 51.6543 112.699 51.7676L115.371 46.3711C115.078 46.1523 114.744 46.043 114.369 46.043C113.896 46.043 113.494 46.209 113.162 46.541C112.83 46.8691 112.664 47.2676 112.664 47.7363ZM117.012 47.7539V51.3926C117.012 52.1113 116.754 52.7266 116.238 53.2383C115.723 53.7461 115.1 54 114.369 54C113.635 54 113.012 53.7461 112.5 53.2383C111.984 52.7266 111.727 52.1113 111.727 51.3926V47.7539C111.727 47.0352 111.984 46.4219 112.5 45.9141C113.016 45.4023 113.639 45.1465 114.369 45.1465C115.1 45.1465 115.723 45.4023 116.238 45.9141C116.754 46.4219 117.012 47.0352 117.012 47.7539ZM115.998 47.2207L113.279 52.7109C113.588 52.9727 113.951 53.1035 114.369 53.1035C114.834 53.1035 115.234 52.9375 115.57 52.6055C115.902 52.2773 116.07 51.8789 116.074 51.4102V47.7363C116.074 47.5527 116.049 47.3809 115.998 47.2207ZM121.107 46.043C120.635 46.043 120.232 46.207 119.9 46.5352C119.568 46.8672 119.402 47.2676 119.402 47.7363V49.418C119.898 49.0039 120.467 48.7969 121.107 48.7969C121.846 48.7969 122.469 49.0527 122.977 49.5645C123.492 50.0605 123.75 50.6738 123.75 51.4043C123.746 52.0996 123.488 52.7109 122.977 53.2383C122.488 53.7461 121.865 54 121.107 54C120.373 54 119.75 53.7461 119.238 53.2383C118.723 52.7305 118.465 52.1152 118.465 51.3926V47.7539C118.465 47.0391 118.73 46.4258 119.262 45.9141C119.793 45.4023 120.408 45.1465 121.107 45.1465C121.85 45.1465 122.473 45.4004 122.977 45.9082C123.492 46.4316 123.75 47.0469 123.75 47.7539V47.8301L122.812 48.2402V47.7363C122.812 47.2676 122.645 46.8691 122.309 46.541C121.973 46.209 121.572 46.043 121.107 46.043ZM122.812 51.3984V51.3867C122.812 50.9219 122.645 50.5234 122.309 50.1914C121.973 49.8594 121.572 49.6934 121.107 49.6934C120.658 49.6934 120.256 49.8594 119.9 50.1914C119.568 50.4961 119.402 50.8945 119.402 51.3867V51.4102C119.402 51.875 119.568 52.2734 119.9 52.6055C120.232 52.9375 120.635 53.1035 121.107 53.1035C121.564 53.1035 121.965 52.9375 122.309 52.6055C122.645 52.2773 122.812 51.875 122.812 51.3984ZM127.307 53.7773C127.158 53.625 127.084 53.4414 127.084 53.2266C127.084 53.0117 127.158 52.8301 127.307 52.6816C127.455 52.5293 127.635 52.4531 127.846 52.4531C128.057 52.4531 128.236 52.5293 128.385 52.6816C128.533 52.8301 128.607 53.0117 128.607 53.2266C128.607 53.4414 128.533 53.625 128.385 53.7773C128.236 53.9258 128.057 54 127.846 54C127.635 54 127.455 53.9258 127.307 53.7773ZM127.307 50.1445C127.158 49.9922 127.084 49.8086 127.084 49.5938C127.084 49.3789 127.158 49.1973 127.307 49.0488C127.455 48.8965 127.635 48.8203 127.846 48.8203C128.057 48.8203 128.236 48.8965 128.385 49.0488C128.533 49.1973 128.607 49.3789 128.607 49.5938C128.607 49.8086 128.533 49.9922 128.385 50.1445C128.236 50.293 128.057 50.3672 127.846 50.3672C127.635 50.3672 127.455 50.293 127.307 50.1445ZM132.879 47.7363V51.4102C132.879 51.5352 132.891 51.6543 132.914 51.7676L135.586 46.3711C135.293 46.1523 134.959 46.043 134.584 46.043C134.111 46.043 133.709 46.209 133.377 46.541C133.045 46.8691 132.879 47.2676 132.879 47.7363ZM137.227 47.7539V51.3926C137.227 52.1113 136.969 52.7266 136.453 53.2383C135.938 53.7461 135.314 54 134.584 54C133.85 54 133.227 53.7461 132.715 53.2383C132.199 52.7266 131.941 52.1113 131.941 51.3926V47.7539C131.941 47.0352 132.199 46.4219 132.715 45.9141C133.23 45.4023 133.854 45.1465 134.584 45.1465C135.314 45.1465 135.938 45.4023 136.453 45.9141C136.969 46.4219 137.227 47.0352 137.227 47.7539ZM136.213 47.2207L133.494 52.7109C133.803 52.9727 134.166 53.1035 134.584 53.1035C135.049 53.1035 135.449 52.9375 135.785 52.6055C136.117 52.2773 136.285 51.8789 136.289 51.4102V47.7363C136.289 47.5527 136.264 47.3809 136.213 47.2207ZM139.617 47.7363V51.4102C139.617 51.5352 139.629 51.6543 139.652 51.7676L142.324 46.3711C142.031 46.1523 141.697 46.043 141.322 46.043C140.85 46.043 140.447 46.209 140.115 46.541C139.783 46.8691 139.617 47.2676 139.617 47.7363ZM143.965 47.7539V51.3926C143.965 52.1113 143.707 52.7266 143.191 53.2383C142.676 53.7461 142.053 54 141.322 54C140.588 54 139.965 53.7461 139.453 53.2383C138.938 52.7266 138.68 52.1113 138.68 51.3926V47.7539C138.68 47.0352 138.938 46.4219 139.453 45.9141C139.969 45.4023 140.592 45.1465 141.322 45.1465C142.053 45.1465 142.676 45.4023 143.191 45.9141C143.707 46.4219 143.965 47.0352 143.965 47.7539ZM142.951 47.2207L140.232 52.7109C140.541 52.9727 140.904 53.1035 141.322 53.1035C141.787 53.1035 142.188 52.9375 142.523 52.6055C142.855 52.2773 143.023 51.8789 143.027 51.4102V47.7363C143.027 47.5527 143.002 47.3809 142.951 47.2207Z" fill="#FF2551"/>
<path d="M112.664 66.7364V70.4102C112.664 70.5352 112.676 70.6544 112.699 70.7676L115.371 65.3712C115.078 65.1524 114.744 65.043 114.369 65.043C113.896 65.043 113.494 65.209 113.162 65.5411C112.83 65.8692 112.664 66.2676 112.664 66.7364ZM117.012 66.754V70.3926C117.012 71.1114 116.754 71.7266 116.238 72.2383C115.723 72.7462 115.1 73.0001 114.369 73.0001C113.635 73.0001 113.012 72.7462 112.5 72.2383C111.984 71.7266 111.727 71.1114 111.727 70.3926V66.754C111.727 66.0352 111.984 65.4219 112.5 64.9141C113.016 64.4024 113.639 64.1465 114.369 64.1465C115.1 64.1465 115.723 64.4024 116.238 64.9141C116.754 65.4219 117.012 66.0352 117.012 66.754ZM115.998 66.2208L113.279 71.711C113.588 71.9727 113.951 72.1036 114.369 72.1036C114.834 72.1036 115.234 71.9376 115.57 71.6055C115.902 71.2774 116.07 70.879 116.074 70.4102V66.7364C116.074 66.5528 116.049 66.3809 115.998 66.2208ZM119.719 72.5958L118.465 73.0001L122.367 65.2012H118.354L118.764 64.2637H123.861L119.719 72.5958ZM127.307 72.7774C127.158 72.6251 127.084 72.4415 127.084 72.2266C127.084 72.0118 127.158 71.8301 127.307 71.6817C127.455 71.5294 127.635 71.4532 127.846 71.4532C128.057 71.4532 128.236 71.5294 128.385 71.6817C128.533 71.8301 128.607 72.0118 128.607 72.2266C128.607 72.4415 128.533 72.6251 128.385 72.7774C128.236 72.9258 128.057 73.0001 127.846 73.0001C127.635 73.0001 127.455 72.9258 127.307 72.7774ZM127.307 69.1446C127.158 68.9922 127.084 68.8087 127.084 68.5938C127.084 68.379 127.158 68.1973 127.307 68.0489C127.455 67.8965 127.635 67.8204 127.846 67.8204C128.057 67.8204 128.236 67.8965 128.385 68.0489C128.533 68.1973 128.607 68.379 128.607 68.5938C128.607 68.8087 128.533 68.9922 128.385 69.1446C128.236 69.293 128.057 69.3672 127.846 69.3672C127.635 69.3672 127.455 69.293 127.307 69.1446ZM132.879 66.7364V70.4102C132.879 70.5352 132.891 70.6544 132.914 70.7676L135.586 65.3712C135.293 65.1524 134.959 65.043 134.584 65.043C134.111 65.043 133.709 65.209 133.377 65.5411C133.045 65.8692 132.879 66.2676 132.879 66.7364ZM137.227 66.754V70.3926C137.227 71.1114 136.969 71.7266 136.453 72.2383C135.938 72.7462 135.314 73.0001 134.584 73.0001C133.85 73.0001 133.227 72.7462 132.715 72.2383C132.199 71.7266 131.941 71.1114 131.941 70.3926V66.754C131.941 66.0352 132.199 65.4219 132.715 64.9141C133.23 64.4024 133.854 64.1465 134.584 64.1465C135.314 64.1465 135.938 64.4024 136.453 64.9141C136.969 65.4219 137.227 66.0352 137.227 66.754ZM136.213 66.2208L133.494 71.711C133.803 71.9727 134.166 72.1036 134.584 72.1036C135.049 72.1036 135.449 71.9376 135.785 71.6055C136.117 71.2774 136.285 70.879 136.289 70.4102V66.7364C136.289 66.5528 136.264 66.3809 136.213 66.2208ZM139.617 66.7364V70.4102C139.617 70.5352 139.629 70.6544 139.652 70.7676L142.324 65.3712C142.031 65.1524 141.697 65.043 141.322 65.043C140.85 65.043 140.447 65.209 140.115 65.5411C139.783 65.8692 139.617 66.2676 139.617 66.7364ZM143.965 66.754V70.3926C143.965 71.1114 143.707 71.7266 143.191 72.2383C142.676 72.7462 142.053 73.0001 141.322 73.0001C140.588 73.0001 139.965 72.7462 139.453 72.2383C138.938 71.7266 138.68 71.1114 138.68 70.3926V66.754C138.68 66.0352 138.938 65.4219 139.453 64.9141C139.969 64.4024 140.592 64.1465 141.322 64.1465C142.053 64.1465 142.676 64.4024 143.191 64.9141C143.707 65.4219 143.965 66.0352 143.965 66.754ZM142.951 66.2208L140.232 71.711C140.541 71.9727 140.904 72.1036 141.322 72.1036C141.787 72.1036 142.188 71.9376 142.523 71.6055C142.855 71.2774 143.023 70.879 143.027 70.4102V66.7364C143.027 66.5528 143.002 66.3809 142.951 66.2208Z" fill="#FF2551"/>
<path d="M113.941 201.834L112.558 203.152L112.007 202.408L113.941 200.557L114.878 200.147V208.59L113.941 209V201.834ZM122.179 206.838H118.224L118.634 205.9L122.179 200.557L123.117 200.147V205.9H123.99L123.58 206.838H123.117V208.59L122.179 209V206.838ZM122.179 205.9V202.139L119.683 205.9H122.179ZM127.306 208.777C127.158 208.625 127.083 208.441 127.083 208.227C127.083 208.012 127.158 207.83 127.306 207.682C127.455 207.529 127.634 207.453 127.845 207.453C128.056 207.453 128.236 207.529 128.384 207.682C128.533 207.83 128.607 208.012 128.607 208.227C128.607 208.441 128.533 208.625 128.384 208.777C128.236 208.926 128.056 209 127.845 209C127.634 209 127.455 208.926 127.306 208.777ZM127.306 205.145C127.158 204.992 127.083 204.809 127.083 204.594C127.083 204.379 127.158 204.197 127.306 204.049C127.455 203.897 127.634 203.82 127.845 203.82C128.056 203.82 128.236 203.897 128.384 204.049C128.533 204.197 128.607 204.379 128.607 204.594C128.607 204.809 128.533 204.992 128.384 205.145C128.236 205.293 128.056 205.367 127.845 205.367C127.634 205.367 127.455 205.293 127.306 205.145ZM132.878 202.736V206.41C132.878 206.535 132.89 206.654 132.914 206.768L135.585 201.371C135.292 201.152 134.958 201.043 134.583 201.043C134.111 201.043 133.708 201.209 133.376 201.541C133.044 201.869 132.878 202.268 132.878 202.736ZM137.226 202.754V206.393C137.226 207.111 136.968 207.727 136.453 208.238C135.937 208.746 135.314 209 134.583 209C133.849 209 133.226 208.746 132.714 208.238C132.199 207.727 131.941 207.111 131.941 206.393V202.754C131.941 202.035 132.199 201.422 132.714 200.914C133.23 200.402 133.853 200.147 134.583 200.147C135.314 200.147 135.937 200.402 136.453 200.914C136.968 201.422 137.226 202.035 137.226 202.754ZM136.212 202.221L133.494 207.711C133.802 207.973 134.166 208.104 134.583 208.104C135.048 208.104 135.449 207.938 135.785 207.606C136.117 207.277 136.285 206.879 136.289 206.41V202.736C136.289 202.553 136.263 202.381 136.212 202.221ZM139.617 202.736V206.41C139.617 206.535 139.628 206.654 139.652 206.768L142.324 201.371C142.031 201.152 141.697 201.043 141.322 201.043C140.849 201.043 140.447 201.209 140.115 201.541C139.783 201.869 139.617 202.268 139.617 202.736ZM143.964 202.754V206.393C143.964 207.111 143.707 207.727 143.191 208.238C142.675 208.746 142.052 209 141.322 209C140.587 209 139.964 208.746 139.453 208.238C138.937 207.727 138.679 207.111 138.679 206.393V202.754C138.679 202.035 138.937 201.422 139.453 200.914C139.968 200.402 140.591 200.147 141.322 200.147C142.052 200.147 142.675 200.402 143.191 200.914C143.707 201.422 143.964 202.035 143.964 202.754ZM142.951 202.221L140.232 207.711C140.541 207.973 140.904 208.104 141.322 208.104C141.787 208.104 142.187 207.938 142.523 207.606C142.855 207.277 143.023 206.879 143.027 206.41V202.736C143.027 202.553 143.001 202.381 142.951 202.221Z" fill="#FF2551"/>
<path d="M113.941 240.834L112.558 242.152L112.007 241.408L113.941 239.557L114.878 239.147V247.59L113.941 248V240.834ZM121.107 240.043C120.634 240.043 120.232 240.207 119.9 240.535C119.568 240.867 119.402 241.268 119.402 241.736V243.418C119.898 243.004 120.466 242.797 121.107 242.797C121.845 242.797 122.468 243.053 122.976 243.565C123.492 244.061 123.75 244.674 123.75 245.404C123.746 246.1 123.488 246.711 122.976 247.238C122.488 247.746 121.865 248 121.107 248C120.373 248 119.75 247.746 119.238 247.238C118.722 246.731 118.464 246.115 118.464 245.393V241.754C118.464 241.039 118.73 240.426 119.261 239.914C119.792 239.402 120.408 239.147 121.107 239.147C121.849 239.147 122.472 239.4 122.976 239.908C123.492 240.432 123.75 241.047 123.75 241.754V241.83L122.812 242.24V241.736C122.812 241.268 122.644 240.869 122.308 240.541C121.972 240.209 121.572 240.043 121.107 240.043ZM122.812 245.398V245.387C122.812 244.922 122.644 244.523 122.308 244.191C121.972 243.859 121.572 243.693 121.107 243.693C120.658 243.693 120.255 243.859 119.9 244.191C119.568 244.496 119.402 244.895 119.402 245.387V245.41C119.402 245.875 119.568 246.273 119.9 246.606C120.232 246.938 120.634 247.104 121.107 247.104C121.564 247.104 121.964 246.938 122.308 246.606C122.644 246.277 122.812 245.875 122.812 245.398ZM127.306 247.777C127.158 247.625 127.083 247.441 127.083 247.227C127.083 247.012 127.158 246.83 127.306 246.682C127.455 246.529 127.634 246.453 127.845 246.453C128.056 246.453 128.236 246.529 128.384 246.682C128.533 246.83 128.607 247.012 128.607 247.227C128.607 247.441 128.533 247.625 128.384 247.777C128.236 247.926 128.056 248 127.845 248C127.634 248 127.455 247.926 127.306 247.777ZM127.306 244.145C127.158 243.992 127.083 243.809 127.083 243.594C127.083 243.379 127.158 243.197 127.306 243.049C127.455 242.897 127.634 242.82 127.845 242.82C128.056 242.82 128.236 242.897 128.384 243.049C128.533 243.197 128.607 243.379 128.607 243.594C128.607 243.809 128.533 243.992 128.384 244.145C128.236 244.293 128.056 244.367 127.845 244.367C127.634 244.367 127.455 244.293 127.306 244.145ZM132.878 241.736V245.41C132.878 245.535 132.89 245.654 132.914 245.768L135.585 240.371C135.292 240.152 134.958 240.043 134.583 240.043C134.111 240.043 133.708 240.209 133.376 240.541C133.044 240.869 132.878 241.268 132.878 241.736ZM137.226 241.754V245.393C137.226 246.111 136.968 246.727 136.453 247.238C135.937 247.746 135.314 248 134.583 248C133.849 248 133.226 247.746 132.714 247.238C132.199 246.727 131.941 246.111 131.941 245.393V241.754C131.941 241.035 132.199 240.422 132.714 239.914C133.23 239.402 133.853 239.147 134.583 239.147C135.314 239.147 135.937 239.402 136.453 239.914C136.968 240.422 137.226 241.035 137.226 241.754ZM136.212 241.221L133.494 246.711C133.802 246.973 134.166 247.104 134.583 247.104C135.048 247.104 135.449 246.938 135.785 246.606C136.117 246.277 136.285 245.879 136.289 245.41V241.736C136.289 241.553 136.263 241.381 136.212 241.221ZM139.617 241.736V245.41C139.617 245.535 139.628 245.654 139.652 245.768L142.324 240.371C142.031 240.152 141.697 240.043 141.322 240.043C140.849 240.043 140.447 240.209 140.115 240.541C139.783 240.869 139.617 241.268 139.617 241.736ZM143.964 241.754V245.393C143.964 246.111 143.707 246.727 143.191 247.238C142.675 247.746 142.052 248 141.322 248C140.587 248 139.964 247.746 139.453 247.238C138.937 246.727 138.679 246.111 138.679 245.393V241.754C138.679 241.035 138.937 240.422 139.453 239.914C139.968 239.402 140.591 239.147 141.322 239.147C142.052 239.147 142.675 239.402 143.191 239.914C143.707 240.422 143.964 241.035 143.964 241.754ZM142.951 241.221L140.232 246.711C140.541 246.973 140.904 247.104 141.322 247.104C141.787 247.104 142.187 246.938 142.523 246.606C142.855 246.277 143.023 245.879 143.027 245.41V241.736C143.027 241.553 143.001 241.381 142.951 241.221Z" fill="#FF2551"/>
<path d="M113.941 259.834L112.558 261.152L112.007 260.408L113.941 258.557L114.878 258.147V266.59L113.941 267V259.834ZM119.718 266.596L118.464 267L122.367 259.201H118.353L118.763 258.264H123.861L119.718 266.596ZM127.306 266.777C127.158 266.625 127.083 266.441 127.083 266.227C127.083 266.012 127.158 265.83 127.306 265.682C127.455 265.529 127.634 265.453 127.845 265.453C128.056 265.453 128.236 265.529 128.384 265.682C128.533 265.83 128.607 266.012 128.607 266.227C128.607 266.441 128.533 266.625 128.384 266.777C128.236 266.926 128.056 267 127.845 267C127.634 267 127.455 266.926 127.306 266.777ZM127.306 263.145C127.158 262.992 127.083 262.809 127.083 262.594C127.083 262.379 127.158 262.197 127.306 262.049C127.455 261.897 127.634 261.82 127.845 261.82C128.056 261.82 128.236 261.897 128.384 262.049C128.533 262.197 128.607 262.379 128.607 262.594C128.607 262.809 128.533 262.992 128.384 263.145C128.236 263.293 128.056 263.367 127.845 263.367C127.634 263.367 127.455 263.293 127.306 263.145ZM132.878 260.736V264.41C132.878 264.535 132.89 264.654 132.914 264.768L135.585 259.371C135.292 259.152 134.958 259.043 134.583 259.043C134.111 259.043 133.708 259.209 133.376 259.541C133.044 259.869 132.878 260.268 132.878 260.736ZM137.226 260.754V264.393C137.226 265.111 136.968 265.727 136.453 266.238C135.937 266.746 135.314 267 134.583 267C133.849 267 133.226 266.746 132.714 266.238C132.199 265.727 131.941 265.111 131.941 264.393V260.754C131.941 260.035 132.199 259.422 132.714 258.914C133.23 258.402 133.853 258.147 134.583 258.147C135.314 258.147 135.937 258.402 136.453 258.914C136.968 259.422 137.226 260.035 137.226 260.754ZM136.212 260.221L133.494 265.711C133.802 265.973 134.166 266.104 134.583 266.104C135.048 266.104 135.449 265.938 135.785 265.606C136.117 265.277 136.285 264.879 136.289 264.41V260.736C136.289 260.553 136.263 260.381 136.212 260.221ZM139.617 260.736V264.41C139.617 264.535 139.628 264.654 139.652 264.768L142.324 259.371C142.031 259.152 141.697 259.043 141.322 259.043C140.849 259.043 140.447 259.209 140.115 259.541C139.783 259.869 139.617 260.268 139.617 260.736ZM143.964 260.754V264.393C143.964 265.111 143.707 265.727 143.191 266.238C142.675 266.746 142.052 267 141.322 267C140.587 267 139.964 266.746 139.453 266.238C138.937 265.727 138.679 265.111 138.679 264.393V260.754C138.679 260.035 138.937 259.422 139.453 258.914C139.968 258.402 140.591 258.147 141.322 258.147C142.052 258.147 142.675 258.402 143.191 258.914C143.707 259.422 143.964 260.035 143.964 260.754ZM142.951 260.221L140.232 265.711C140.541 265.973 140.904 266.104 141.322 266.104C141.787 266.104 142.187 265.938 142.523 265.606C142.855 265.277 143.023 264.879 143.027 264.41V260.736C143.027 260.553 143.001 260.381 142.951 260.221Z" fill="#FF2551"/>
<path d="M113.941 298.834L112.558 300.152L112.007 299.408L113.941 297.557L114.878 297.146V305.59L113.941 306V298.834ZM121.107 305.103C121.58 305.103 121.982 304.939 122.314 304.611C122.646 304.279 122.812 303.879 122.812 303.41V301.728C122.316 302.143 121.748 302.35 121.107 302.35C120.369 302.35 119.746 302.094 119.238 301.582C118.722 301.086 118.464 300.473 118.464 299.742C118.468 299.047 118.726 298.435 119.238 297.908C119.726 297.4 120.349 297.146 121.107 297.146C121.841 297.146 122.464 297.4 122.976 297.908C123.492 298.416 123.75 299.031 123.75 299.754V303.393C123.75 304.107 123.484 304.721 122.953 305.232C122.421 305.744 121.806 306 121.107 306C120.365 306 119.742 305.746 119.238 305.238C118.722 304.715 118.464 304.1 118.464 303.393V303.316L119.402 302.906V303.41C119.402 303.879 119.57 304.277 119.906 304.605C120.242 304.937 120.642 305.103 121.107 305.103ZM119.402 299.748V299.76C119.402 300.225 119.57 300.623 119.906 300.955C120.242 301.287 120.642 301.453 121.107 301.453C121.556 301.453 121.958 301.287 122.314 300.955C122.646 300.65 122.812 300.252 122.812 299.76V299.736C122.812 299.271 122.646 298.873 122.314 298.541C121.982 298.209 121.58 298.043 121.107 298.043C120.65 298.043 120.25 298.209 119.906 298.541C119.57 298.869 119.402 299.271 119.402 299.748ZM127.306 305.777C127.158 305.625 127.083 305.441 127.083 305.227C127.083 305.012 127.158 304.83 127.306 304.682C127.455 304.529 127.634 304.453 127.845 304.453C128.056 304.453 128.236 304.529 128.384 304.682C128.533 304.83 128.607 305.012 128.607 305.227C128.607 305.441 128.533 305.625 128.384 305.777C128.236 305.926 128.056 306 127.845 306C127.634 306 127.455 305.926 127.306 305.777ZM127.306 302.144C127.158 301.992 127.083 301.809 127.083 301.594C127.083 301.379 127.158 301.197 127.306 301.049C127.455 300.896 127.634 300.82 127.845 300.82C128.056 300.82 128.236 300.896 128.384 301.049C128.533 301.197 128.607 301.379 128.607 301.594C128.607 301.809 128.533 301.992 128.384 302.144C128.236 302.293 128.056 302.367 127.845 302.367C127.634 302.367 127.455 302.293 127.306 302.144ZM132.878 299.736V303.41C132.878 303.535 132.89 303.654 132.914 303.768L135.585 298.371C135.292 298.152 134.958 298.043 134.583 298.043C134.111 298.043 133.708 298.209 133.376 298.541C133.044 298.869 132.878 299.268 132.878 299.736ZM137.226 299.754V303.393C137.226 304.111 136.968 304.727 136.453 305.238C135.937 305.746 135.314 306 134.583 306C133.849 306 133.226 305.746 132.714 305.238C132.199 304.727 131.941 304.111 131.941 303.393V299.754C131.941 299.035 132.199 298.422 132.714 297.914C133.23 297.402 133.853 297.146 134.583 297.146C135.314 297.146 135.937 297.402 136.453 297.914C136.968 298.422 137.226 299.035 137.226 299.754ZM136.212 299.221L133.494 304.711C133.802 304.973 134.166 305.103 134.583 305.103C135.048 305.103 135.449 304.937 135.785 304.605C136.117 304.277 136.285 303.879 136.289 303.41V299.736C136.289 299.553 136.263 299.381 136.212 299.221ZM139.617 299.736V303.41C139.617 303.535 139.628 303.654 139.652 303.768L142.324 298.371C142.031 298.152 141.697 298.043 141.322 298.043C140.849 298.043 140.447 298.209 140.115 298.541C139.783 298.869 139.617 299.268 139.617 299.736ZM143.964 299.754V303.393C143.964 304.111 143.707 304.727 143.191 305.238C142.675 305.746 142.052 306 141.322 306C140.587 306 139.964 305.746 139.453 305.238C138.937 304.727 138.679 304.111 138.679 303.393V299.754C138.679 299.035 138.937 298.422 139.453 297.914C139.968 297.402 140.591 297.146 141.322 297.146C142.052 297.146 142.675 297.402 143.191 297.914C143.707 298.422 143.964 299.035 143.964 299.754ZM142.951 299.221L140.232 304.711C140.541 304.973 140.904 305.103 141.322 305.103C141.787 305.103 142.187 304.937 142.523 304.605C142.855 304.277 143.023 303.879 143.027 303.41V299.736C143.027 299.553 143.001 299.381 142.951 299.221Z" fill="#FF2551"/>
<path d="M113.941 279.834L112.558 281.152L112.007 280.408L113.941 278.557L114.878 278.146V286.59L113.941 287V279.834ZM123.744 284.316V284.393V284.41C123.744 285.16 123.49 285.769 122.982 286.238C122.431 286.746 121.808 287 121.113 287C120.382 287 119.744 286.728 119.197 286.185C118.763 285.752 118.521 285.131 118.47 284.322V284.316C118.478 283.594 118.736 282.992 119.244 282.512C119.38 282.383 119.525 282.268 119.677 282.166C119.576 282.096 119.48 282.016 119.39 281.926C118.953 281.492 118.734 280.969 118.734 280.355C118.734 279.738 118.949 279.217 119.378 278.791C119.816 278.357 120.392 278.141 121.107 278.141C121.798 278.141 122.355 278.338 122.777 278.732L122.835 278.791C123.054 279.01 123.214 279.246 123.316 279.5C123.429 279.762 123.486 280.045 123.486 280.35C123.474 280.971 123.253 281.496 122.824 281.926C122.734 282.016 122.638 282.096 122.537 282.166C122.689 282.268 122.833 282.383 122.97 282.512C123.478 283.004 123.736 283.605 123.744 284.316ZM122.818 284.328C122.798 283.875 122.638 283.504 122.337 283.215C121.966 282.867 121.556 282.676 121.107 282.641C120.658 282.676 120.248 282.867 119.876 283.215C119.564 283.512 119.408 283.904 119.408 284.393V284.41C119.408 284.879 119.57 285.277 119.894 285.605C120.23 285.937 120.636 286.103 121.113 286.103C121.578 286.103 121.98 285.937 122.32 285.605C122.644 285.277 122.81 284.887 122.818 284.434C122.818 284.422 122.818 284.412 122.818 284.404V284.328ZM120.052 279.453C119.802 279.707 119.677 280.008 119.677 280.355C119.677 280.703 119.802 281.002 120.052 281.252C120.283 281.482 120.636 281.625 121.113 281.68C121.578 281.629 121.927 281.486 122.162 281.252C122.412 281.002 122.537 280.703 122.537 280.355C122.537 280.016 122.416 279.719 122.173 279.465C121.943 279.227 121.603 279.098 121.154 279.078C120.677 279.078 120.31 279.203 120.052 279.453ZM127.306 286.777C127.158 286.625 127.083 286.441 127.083 286.227C127.083 286.012 127.158 285.83 127.306 285.682C127.455 285.529 127.634 285.453 127.845 285.453C128.056 285.453 128.236 285.529 128.384 285.682C128.533 285.83 128.607 286.012 128.607 286.227C128.607 286.441 128.533 286.625 128.384 286.777C128.236 286.926 128.056 287 127.845 287C127.634 287 127.455 286.926 127.306 286.777ZM127.306 283.144C127.158 282.992 127.083 282.809 127.083 282.594C127.083 282.379 127.158 282.197 127.306 282.049C127.455 281.896 127.634 281.82 127.845 281.82C128.056 281.82 128.236 281.896 128.384 282.049C128.533 282.197 128.607 282.379 128.607 282.594C128.607 282.809 128.533 282.992 128.384 283.144C128.236 283.293 128.056 283.367 127.845 283.367C127.634 283.367 127.455 283.293 127.306 283.144ZM132.878 280.736V284.41C132.878 284.535 132.89 284.654 132.914 284.768L135.585 279.371C135.292 279.152 134.958 279.043 134.583 279.043C134.111 279.043 133.708 279.209 133.376 279.541C133.044 279.869 132.878 280.268 132.878 280.736ZM137.226 280.754V284.393C137.226 285.111 136.968 285.727 136.453 286.238C135.937 286.746 135.314 287 134.583 287C133.849 287 133.226 286.746 132.714 286.238C132.199 285.727 131.941 285.111 131.941 284.393V280.754C131.941 280.035 132.199 279.422 132.714 278.914C133.23 278.402 133.853 278.146 134.583 278.146C135.314 278.146 135.937 278.402 136.453 278.914C136.968 279.422 137.226 280.035 137.226 280.754ZM136.212 280.221L133.494 285.711C133.802 285.973 134.166 286.103 134.583 286.103C135.048 286.103 135.449 285.937 135.785 285.605C136.117 285.277 136.285 284.879 136.289 284.41V280.736C136.289 280.553 136.263 280.381 136.212 280.221ZM139.617 280.736V284.41C139.617 284.535 139.628 284.654 139.652 284.768L142.324 279.371C142.031 279.152 141.697 279.043 141.322 279.043C140.849 279.043 140.447 279.209 140.115 279.541C139.783 279.869 139.617 280.268 139.617 280.736ZM143.964 280.754V284.393C143.964 285.111 143.707 285.727 143.191 286.238C142.675 286.746 142.052 287 141.322 287C140.587 287 139.964 286.746 139.453 286.238C138.937 285.727 138.679 285.111 138.679 284.393V280.754C138.679 280.035 138.937 279.422 139.453 278.914C139.968 278.402 140.591 278.146 141.322 278.146C142.052 278.146 142.675 278.402 143.191 278.914C143.707 279.422 143.964 280.035 143.964 280.754ZM142.951 280.221L140.232 285.711C140.541 285.973 140.904 286.103 141.322 286.103C141.787 286.103 142.187 285.937 142.523 285.605C142.855 285.277 143.023 284.879 143.027 284.41V280.736C143.027 280.553 143.001 280.381 142.951 280.221Z" fill="#FF2551"/>
<path d="M116.977 338.889C116.977 339.584 116.688 340.158 116.109 340.611C115.059 341.432 114.516 341.863 114.48 341.906C113.848 342.551 113.398 343.195 113.133 343.84L113.08 343.945H117.088L116.678 344.883H111.65L112.096 343.734C112.689 342.426 113.502 341.4 114.533 340.658C115.045 340.279 115.387 340.029 115.559 339.908C115.883 339.682 116.045 339.322 116.045 338.83C116.045 338.803 116.045 338.773 116.045 338.742C116.033 338.266 115.867 337.865 115.547 337.541C115.219 337.209 114.816 337.043 114.34 337.043C113.875 337.043 113.475 337.209 113.139 337.541C112.803 337.873 112.635 338.262 112.635 338.707C112.635 338.715 112.635 338.725 112.635 338.736L112.641 338.795L111.703 339.205L111.697 338.754C111.697 338.051 111.955 337.437 112.471 336.914C112.979 336.402 113.602 336.146 114.34 336.146C115.078 336.146 115.701 336.4 116.209 336.908C116.721 337.412 116.977 338.072 116.977 338.889ZM120.68 337.834L119.297 339.152L118.746 338.408L120.68 336.557L121.617 336.146V344.59L120.68 345V337.834ZM127.307 344.777C127.158 344.625 127.084 344.441 127.084 344.227C127.084 344.012 127.158 343.83 127.307 343.682C127.455 343.529 127.635 343.453 127.846 343.453C128.057 343.453 128.236 343.529 128.385 343.682C128.533 343.83 128.607 344.012 128.607 344.227C128.607 344.441 128.533 344.625 128.385 344.777C128.236 344.926 128.057 345 127.846 345C127.635 345 127.455 344.926 127.307 344.777ZM127.307 341.144C127.158 340.992 127.084 340.809 127.084 340.594C127.084 340.379 127.158 340.197 127.307 340.049C127.455 339.896 127.635 339.82 127.846 339.82C128.057 339.82 128.236 339.896 128.385 340.049C128.533 340.197 128.607 340.379 128.607 340.594C128.607 340.809 128.533 340.992 128.385 341.144C128.236 341.293 128.057 341.367 127.846 341.367C127.635 341.367 127.455 341.293 127.307 341.144ZM132.879 338.736V342.41C132.879 342.535 132.891 342.654 132.914 342.768L135.586 337.371C135.293 337.152 134.959 337.043 134.584 337.043C134.111 337.043 133.709 337.209 133.377 337.541C133.045 337.869 132.879 338.268 132.879 338.736ZM137.227 338.754V342.393C137.227 343.111 136.969 343.727 136.453 344.238C135.938 344.746 135.314 345 134.584 345C133.85 345 133.227 344.746 132.715 344.238C132.199 343.727 131.941 343.111 131.941 342.393V338.754C131.941 338.035 132.199 337.422 132.715 336.914C133.23 336.402 133.854 336.146 134.584 336.146C135.314 336.146 135.938 336.402 136.453 336.914C136.969 337.422 137.227 338.035 137.227 338.754ZM136.213 338.221L133.494 343.711C133.803 343.973 134.166 344.103 134.584 344.103C135.049 344.103 135.449 343.937 135.785 343.605C136.117 343.277 136.285 342.879 136.289 342.41V338.736C136.289 338.553 136.264 338.381 136.213 338.221ZM139.617 338.736V342.41C139.617 342.535 139.629 342.654 139.652 342.768L142.324 337.371C142.031 337.152 141.697 337.043 141.322 337.043C140.85 337.043 140.447 337.209 140.115 337.541C139.783 337.869 139.617 338.268 139.617 338.736ZM143.965 338.754V342.393C143.965 343.111 143.707 343.727 143.191 344.238C142.676 344.746 142.053 345 141.322 345C140.588 345 139.965 344.746 139.453 344.238C138.938 343.727 138.68 343.111 138.68 342.393V338.754C138.68 338.035 138.938 337.422 139.453 336.914C139.969 336.402 140.592 336.146 141.322 336.146C142.053 336.146 142.676 336.402 143.191 336.914C143.707 337.422 143.965 338.035 143.965 338.754ZM142.951 338.221L140.232 343.711C140.541 343.973 140.904 344.103 141.322 344.103C141.787 344.103 142.188 343.937 142.523 343.605C142.855 343.277 143.023 342.879 143.027 342.41V338.736C143.027 338.553 143.002 338.381 142.951 338.221Z" fill="#FF2551"/>
<path d="M116.976 319.889C116.976 320.584 116.687 321.158 116.109 321.611C115.058 322.432 114.515 322.863 114.48 322.906C113.847 323.551 113.398 324.195 113.132 324.84L113.08 324.945H117.087L116.677 325.883H111.65L112.095 324.734C112.689 323.426 113.501 322.4 114.533 321.658C115.044 321.279 115.386 321.029 115.558 320.908C115.882 320.682 116.044 320.322 116.044 319.83C116.044 319.803 116.044 319.773 116.044 319.742C116.033 319.266 115.867 318.865 115.546 318.541C115.218 318.209 114.816 318.043 114.339 318.043C113.875 318.043 113.474 318.209 113.138 318.541C112.802 318.873 112.634 319.262 112.634 319.707C112.634 319.715 112.634 319.725 112.634 319.736L112.64 319.795L111.703 320.205L111.697 319.754C111.697 319.051 111.955 318.437 112.47 317.914C112.978 317.402 113.601 317.146 114.339 317.146C115.078 317.146 115.701 317.4 116.208 317.908C116.72 318.412 116.976 319.072 116.976 319.889ZM119.402 319.736V323.41C119.402 323.535 119.414 323.654 119.437 323.768L122.109 318.371C121.816 318.152 121.482 318.043 121.107 318.043C120.634 318.043 120.232 318.209 119.9 318.541C119.568 318.869 119.402 319.268 119.402 319.736ZM123.75 319.754V323.393C123.75 324.111 123.492 324.727 122.976 325.238C122.46 325.746 121.837 326 121.107 326C120.373 326 119.75 325.746 119.238 325.238C118.722 324.727 118.464 324.111 118.464 323.393V319.754C118.464 319.035 118.722 318.422 119.238 317.914C119.753 317.402 120.376 317.146 121.107 317.146C121.837 317.146 122.46 317.402 122.976 317.914C123.492 318.422 123.75 319.035 123.75 319.754ZM122.736 319.221L120.017 324.711C120.326 324.973 120.689 325.103 121.107 325.103C121.572 325.103 121.972 324.937 122.308 324.605C122.64 324.277 122.808 323.879 122.812 323.41V319.736C122.812 319.553 122.787 319.381 122.736 319.221ZM127.306 325.777C127.158 325.625 127.083 325.441 127.083 325.227C127.083 325.012 127.158 324.83 127.306 324.682C127.455 324.529 127.634 324.453 127.845 324.453C128.056 324.453 128.236 324.529 128.384 324.682C128.533 324.83 128.607 325.012 128.607 325.227C128.607 325.441 128.533 325.625 128.384 325.777C128.236 325.926 128.056 326 127.845 326C127.634 326 127.455 325.926 127.306 325.777ZM127.306 322.144C127.158 321.992 127.083 321.809 127.083 321.594C127.083 321.379 127.158 321.197 127.306 321.049C127.455 320.896 127.634 320.82 127.845 320.82C128.056 320.82 128.236 320.896 128.384 321.049C128.533 321.197 128.607 321.379 128.607 321.594C128.607 321.809 128.533 321.992 128.384 322.144C128.236 322.293 128.056 322.367 127.845 322.367C127.634 322.367 127.455 322.293 127.306 322.144ZM132.878 319.736V323.41C132.878 323.535 132.89 323.654 132.914 323.768L135.585 318.371C135.292 318.152 134.958 318.043 134.583 318.043C134.111 318.043 133.708 318.209 133.376 318.541C133.044 318.869 132.878 319.268 132.878 319.736ZM137.226 319.754V323.393C137.226 324.111 136.968 324.727 136.453 325.238C135.937 325.746 135.314 326 134.583 326C133.849 326 133.226 325.746 132.714 325.238C132.199 324.727 131.941 324.111 131.941 323.393V319.754C131.941 319.035 132.199 318.422 132.714 317.914C133.23 317.402 133.853 317.146 134.583 317.146C135.314 317.146 135.937 317.402 136.453 317.914C136.968 318.422 137.226 319.035 137.226 319.754ZM136.212 319.221L133.494 324.711C133.802 324.973 134.166 325.103 134.583 325.103C135.048 325.103 135.449 324.937 135.785 324.605C136.117 324.277 136.285 323.879 136.289 323.41V319.736C136.289 319.553 136.263 319.381 136.212 319.221ZM139.617 319.736V323.41C139.617 323.535 139.628 323.654 139.652 323.768L142.324 318.371C142.031 318.152 141.697 318.043 141.322 318.043C140.849 318.043 140.447 318.209 140.115 318.541C139.783 318.869 139.617 319.268 139.617 319.736ZM143.964 319.754V323.393C143.964 324.111 143.707 324.727 143.191 325.238C142.675 325.746 142.052 326 141.322 326C140.587 326 139.964 325.746 139.453 325.238C138.937 324.727 138.679 324.111 138.679 323.393V319.754C138.679 319.035 138.937 318.422 139.453 317.914C139.968 317.402 140.591 317.146 141.322 317.146C142.052 317.146 142.675 317.402 143.191 317.914C143.707 318.422 143.964 319.035 143.964 319.754ZM142.951 319.221L140.232 324.711C140.541 324.973 140.904 325.103 141.322 325.103C141.787 325.103 142.187 324.937 142.523 324.605C142.855 324.277 143.023 323.879 143.027 323.41V319.736C143.027 319.553 143.001 319.381 142.951 319.221Z" fill="#FF2551"/>
<path d="M116.977 358.889C116.977 359.584 116.688 360.158 116.109 360.611C115.059 361.432 114.516 361.863 114.48 361.906C113.848 362.551 113.398 363.195 113.133 363.84L113.08 363.945H117.088L116.678 364.883H111.65L112.096 363.734C112.689 362.426 113.502 361.4 114.533 360.658C115.045 360.279 115.387 360.029 115.559 359.908C115.883 359.682 116.045 359.322 116.045 358.83C116.045 358.803 116.045 358.773 116.045 358.742C116.033 358.266 115.867 357.865 115.547 357.541C115.219 357.209 114.816 357.043 114.34 357.043C113.875 357.043 113.475 357.209 113.139 357.541C112.803 357.873 112.635 358.262 112.635 358.707C112.635 358.715 112.635 358.725 112.635 358.736L112.641 358.795L111.703 359.205L111.697 358.754C111.697 358.051 111.955 357.437 112.471 356.914C112.979 356.402 113.602 356.146 114.34 356.146C115.078 356.146 115.701 356.4 116.209 356.908C116.721 357.412 116.977 358.072 116.977 358.889ZM123.715 358.889C123.715 359.584 123.426 360.158 122.848 360.611C121.797 361.432 121.254 361.863 121.219 361.906C120.586 362.551 120.137 363.195 119.871 363.84L119.818 363.945H123.826L123.416 364.883H118.389L118.834 363.734C119.428 362.426 120.24 361.4 121.271 360.658C121.783 360.279 122.125 360.029 122.297 359.908C122.621 359.682 122.783 359.322 122.783 358.83C122.783 358.803 122.783 358.773 122.783 358.742C122.771 358.266 122.605 357.865 122.285 357.541C121.957 357.209 121.555 357.043 121.078 357.043C120.613 357.043 120.213 357.209 119.877 357.541C119.541 357.873 119.373 358.262 119.373 358.707C119.373 358.715 119.373 358.725 119.373 358.736L119.379 358.795L118.441 359.205L118.436 358.754C118.436 358.051 118.693 357.437 119.209 356.914C119.717 356.402 120.34 356.146 121.078 356.146C121.816 356.146 122.439 356.4 122.947 356.908C123.459 357.412 123.715 358.072 123.715 358.889ZM127.307 364.777C127.158 364.625 127.084 364.441 127.084 364.227C127.084 364.012 127.158 363.83 127.307 363.682C127.455 363.529 127.635 363.453 127.846 363.453C128.057 363.453 128.236 363.529 128.385 363.682C128.533 363.83 128.607 364.012 128.607 364.227C128.607 364.441 128.533 364.625 128.385 364.777C128.236 364.926 128.057 365 127.846 365C127.635 365 127.455 364.926 127.307 364.777ZM127.307 361.144C127.158 360.992 127.084 360.809 127.084 360.594C127.084 360.379 127.158 360.197 127.307 360.049C127.455 359.896 127.635 359.82 127.846 359.82C128.057 359.82 128.236 359.896 128.385 360.049C128.533 360.197 128.607 360.379 128.607 360.594C128.607 360.809 128.533 360.992 128.385 361.144C128.236 361.293 128.057 361.367 127.846 361.367C127.635 361.367 127.455 361.293 127.307 361.144ZM132.879 358.736V362.41C132.879 362.535 132.891 362.654 132.914 362.768L135.586 357.371C135.293 357.152 134.959 357.043 134.584 357.043C134.111 357.043 133.709 357.209 133.377 357.541C133.045 357.869 132.879 358.268 132.879 358.736ZM137.227 358.754V362.393C137.227 363.111 136.969 363.727 136.453 364.238C135.938 364.746 135.314 365 134.584 365C133.85 365 133.227 364.746 132.715 364.238C132.199 363.727 131.941 363.111 131.941 362.393V358.754C131.941 358.035 132.199 357.422 132.715 356.914C133.23 356.402 133.854 356.146 134.584 356.146C135.314 356.146 135.938 356.402 136.453 356.914C136.969 357.422 137.227 358.035 137.227 358.754ZM136.213 358.221L133.494 363.711C133.803 363.973 134.166 364.103 134.584 364.103C135.049 364.103 135.449 363.937 135.785 363.605C136.117 363.277 136.285 362.879 136.289 362.41V358.736C136.289 358.553 136.264 358.381 136.213 358.221ZM139.617 358.736V362.41C139.617 362.535 139.629 362.654 139.652 362.768L142.324 357.371C142.031 357.152 141.697 357.043 141.322 357.043C140.85 357.043 140.447 357.209 140.115 357.541C139.783 357.869 139.617 358.268 139.617 358.736ZM143.965 358.754V362.393C143.965 363.111 143.707 363.727 143.191 364.238C142.676 364.746 142.053 365 141.322 365C140.588 365 139.965 364.746 139.453 364.238C138.938 363.727 138.68 363.111 138.68 362.393V358.754C138.68 358.035 138.938 357.422 139.453 356.914C139.969 356.402 140.592 356.146 141.322 356.146C142.053 356.146 142.676 356.402 143.191 356.914C143.707 357.422 143.965 358.035 143.965 358.754ZM142.951 358.221L140.232 363.711C140.541 363.973 140.904 364.103 141.322 364.103C141.787 364.103 142.188 363.937 142.523 363.605C142.855 363.277 143.023 362.879 143.027 362.41V358.736C143.027 358.553 143.002 358.381 142.951 358.221Z" fill="#FF2551"/>
<path d="M4.16406 23.6406C3.91406 23.6406 3.64844 23.6934 3.36719 23.7988L2.89258 24.0273L2.18945 23.4121L2.96875 19.2637H6.73633L6.24414 20.2012H3.74805L3.23828 22.8965C3.55859 22.7988 3.88477 22.75 4.2168 22.75C4.30664 22.75 4.39258 22.7539 4.47461 22.7617C5.27148 22.8359 5.88867 23.0957 6.32617 23.541C6.7793 24.002 7.00586 24.6055 7.00586 25.3516V25.3691C7.00586 26.1113 6.75195 26.7344 6.24414 27.2383C5.73242 27.7461 5.10938 28 4.375 28C3.63281 28 3.00977 27.7461 2.50586 27.2383C1.99023 26.7148 1.73242 26.0996 1.73242 25.3926V25.3164L2.66992 24.9062V25.4102C2.66992 25.8789 2.83789 26.2773 3.17383 26.6055C3.50977 26.9375 3.91016 27.1035 4.375 27.1035C4.84766 27.1035 5.25 26.9375 5.58203 26.6055C5.91406 26.2695 6.08008 25.8691 6.08008 25.4043C6.08008 24.8457 5.91602 24.4258 5.58789 24.1445C5.25977 23.8555 4.86328 23.6895 4.39844 23.6465C4.32031 23.6426 4.24219 23.6406 4.16406 23.6406Z" fill="#FF2551"/>
<path d="M25.4414 25.8379H21.4863L21.8965 24.9004L25.4414 19.5566L26.3789 19.1465V24.9004H27.252L26.8418 25.8379H26.3789V27.5898L25.4414 28V25.8379ZM25.4414 24.9004V21.1387L22.9453 24.9004H25.4414Z" fill="#FF2551"/>
<path d="M44.1934 23.6348C44.0801 23.6348 43.9121 23.6758 43.6895 23.7578L43.1973 23.3242L45.0957 20.2012H41.9434L42.3535 19.2637H46.7363L44.7207 22.7441C45.291 22.8301 45.7949 23.0859 46.2324 23.5117C46.748 24.0117 47.0059 24.625 47.0059 25.3516V25.3691C47.0059 26.1113 46.752 26.7344 46.2441 27.2383C45.7324 27.7461 45.1094 28 44.375 28C43.6328 28 43.0098 27.7461 42.5059 27.2383C41.9902 26.7148 41.7324 26.0996 41.7324 25.3926V25.3164L42.6699 24.9062V25.4102C42.6699 25.8789 42.8379 26.2773 43.1738 26.6055C43.5098 26.9375 43.9102 27.1035 44.375 27.1035C44.8477 27.1035 45.25 26.9375 45.582 26.6055C45.9141 26.2695 46.0801 25.8691 46.0801 25.4043C46.0801 24.916 45.9199 24.5195 45.5996 24.2148C45.2598 23.8906 44.8594 23.7012 44.3984 23.6465C44.332 23.6387 44.2637 23.6348 44.1934 23.6348Z" fill="#FF2551"/>
<path d="M66.9766 21.8887C66.9766 22.584 66.6875 23.1582 66.1094 23.6113C65.0586 24.4316 64.5156 24.8633 64.4805 24.9062C63.8477 25.5508 63.3984 26.1953 63.1328 26.8398L63.0801 26.9453H67.0879L66.6777 27.8828H61.6504L62.0957 26.7344C62.6895 25.4258 63.502 24.4004 64.5332 23.6582C65.0449 23.2793 65.3867 23.0293 65.5586 22.9082C65.8828 22.6816 66.0449 22.3223 66.0449 21.8301C66.0449 21.8027 66.0449 21.7734 66.0449 21.7422C66.0332 21.2656 65.8672 20.8652 65.5469 20.541C65.2188 20.209 64.8164 20.043 64.3398 20.043C63.875 20.043 63.4746 20.209 63.1387 20.541C62.8027 20.873 62.6348 21.2617 62.6348 21.707C62.6348 21.7148 62.6348 21.7246 62.6348 21.7363L62.6406 21.7949L61.7031 22.2051L61.6973 21.7539C61.6973 21.0508 61.9551 20.4375 62.4707 19.9141C62.9785 19.4023 63.6016 19.1465 64.3398 19.1465C65.0781 19.1465 65.7012 19.4004 66.209 19.9082C66.7207 20.4121 66.9766 21.0723 66.9766 21.8887Z" fill="#FF2551"/>
<path d="M83.9414 20.834L82.5586 22.1523L82.0078 21.4082L83.9414 19.5566L84.8789 19.1465V27.5898L83.9414 28V20.834Z" fill="#FF2551"/>
<path d="M102.664 21.7363V25.4102C102.664 25.5352 102.676 25.6543 102.699 25.7676L105.371 20.3711C105.078 20.1523 104.744 20.043 104.369 20.043C103.896 20.043 103.494 20.209 103.162 20.541C102.83 20.8691 102.664 21.2676 102.664 21.7363ZM107.012 21.7539V25.3926C107.012 26.1113 106.754 26.7266 106.238 27.2383C105.723 27.7461 105.1 28 104.369 28C103.635 28 103.012 27.7461 102.5 27.2383C101.984 26.7266 101.727 26.1113 101.727 25.3926V21.7539C101.727 21.0352 101.984 20.4219 102.5 19.9141C103.016 19.4023 103.639 19.1465 104.369 19.1465C105.1 19.1465 105.723 19.4023 106.238 19.9141C106.754 20.4219 107.012 21.0352 107.012 21.7539ZM105.998 21.2207L103.279 26.7109C103.588 26.9727 103.951 27.1035 104.369 27.1035C104.834 27.1035 105.234 26.9375 105.57 26.6055C105.902 26.2773 106.07 25.8789 106.074 25.4102V21.7363C106.074 21.5527 106.049 21.3809 105.998 21.2207Z" fill="#FF2551"/>
<path d="M2.09766 8.7793C2.09766 9.13867 2.22852 9.43945 2.49023 9.68164C2.75586 9.92773 3.05859 10.0508 3.39844 10.0508C3.72656 10.0508 4.01563 9.92773 4.26563 9.68164C4.50781 9.44336 4.63281 9.14258 4.64063 8.7793L4.64063 6.6582C4.63281 6.29492 4.50781 5.99414 4.26563 5.75586C4.01563 5.50977 3.70313 5.38672 3.32813 5.38672C3 5.38672 2.71289 5.50977 2.4668 5.75586C2.22461 5.99805 2.10156 6.28711 2.09766 6.62305V6.6582L2.09766 8.7793ZM1.16016 13.291L1.16016 6.64062C1.16016 6.03125 1.37695 5.51172 1.81055 5.08203C2.24414 4.65234 2.76563 4.4375 3.375 4.4375C3.98438 4.4375 4.50391 4.65234 4.93359 5.08203C5.36328 5.51172 5.57813 6.03125 5.57813 6.64062L5.57813 8.79687C5.57813 9.40625 5.36328 9.92578 4.93359 10.3555C4.50391 10.7852 3.98438 11 3.375 11C2.89453 11 2.46875 10.8672 2.09766 10.6016L2.09766 12.8809L1.16016 13.291ZM10.1367 10.0508C10.4648 10.0508 10.7539 9.92773 11.0039 9.68164C11.2461 9.44336 11.3711 9.14258 11.3789 8.7793V8.69727L12.3164 8.28125V8.79687C12.3164 9.34375 12.082 9.86719 11.6133 10.3672C11.2148 10.7891 10.7109 11 10.1016 11C9.49219 11 8.97266 10.7852 8.54297 10.3555C8.11328 9.92578 7.89844 9.40625 7.89844 8.79687L7.89844 6.64062C7.89844 6.03125 8.11328 5.51172 8.54297 5.08203C8.97266 4.65234 9.49219 4.4375 10.1016 4.4375C10.6875 4.4375 11.209 4.65234 11.666 5.08203C12.0996 5.48828 12.3164 6.00781 12.3164 6.64062V7.19141L8.83594 8.73828C8.83594 9.10937 8.95898 9.42187 9.20508 9.67578C9.45117 9.92578 9.76172 10.0508 10.1367 10.0508ZM10.0664 5.38672C9.73828 5.38672 9.45117 5.50977 9.20508 5.75586C8.95898 6.00195 8.83594 6.29687 8.83594 6.64062C8.83594 6.64844 8.83594 6.6543 8.83594 6.6582V7.71289L11.373 6.58203C11.3535 6.25391 11.2305 5.97852 11.0039 5.75586C10.7539 5.50977 10.4414 5.38672 10.0664 5.38672ZM15.5742 8.7793C15.5742 9.13867 15.7051 9.43945 15.9668 9.68164C16.2324 9.92773 16.5352 10.0508 16.875 10.0508C17.2031 10.0508 17.4922 9.92773 17.7422 9.68164C17.9844 9.44336 18.1094 9.14258 18.1172 8.7793V6.6582C18.1094 6.29492 17.9844 5.99414 17.7422 5.75586C17.4922 5.50977 17.1797 5.38672 16.8047 5.38672C16.4766 5.38672 16.1895 5.50977 15.9434 5.75586C15.7012 5.99805 15.5781 6.28711 15.5742 6.62305V6.6582V8.7793ZM14.6367 6.64062C14.6367 6.03125 14.8516 5.51172 15.2812 5.08203C15.7109 4.65234 16.2305 4.4375 16.8398 4.4375C17.4492 4.4375 17.9707 4.65234 18.4043 5.08203C18.8379 5.51172 19.0547 6.03125 19.0547 6.64062V8.79687C19.0547 9.40625 18.8379 9.92578 18.4043 10.3555C17.9707 10.7852 17.4492 11 16.8398 11C16.2305 11 15.7109 10.7852 15.2813 10.3555C14.8516 9.92578 14.6367 9.40625 14.6367 8.79687V6.64062ZM22.3125 8.7793C22.3125 9.13867 22.4434 9.43945 22.7051 9.68164C22.9707 9.92773 23.2734 10.0508 23.6133 10.0508C23.9414 10.0508 24.2305 9.92773 24.4805 9.68164C24.7227 9.44336 24.8477 9.14258 24.8555 8.7793V6.6582C24.8477 6.29492 24.7227 5.99414 24.4805 5.75586C24.2305 5.50977 23.918 5.38672 23.543 5.38672C23.2148 5.38672 22.9277 5.50977 22.6816 5.75586C22.4395 5.99805 22.3164 6.28711 22.3125 6.62305V6.6582V8.7793ZM21.375 13.291L21.375 6.64062C21.375 6.03125 21.5918 5.51172 22.0254 5.08203C22.459 4.65234 22.9805 4.4375 23.5898 4.4375C24.1992 4.4375 24.7188 4.65234 25.1484 5.08203C25.5781 5.51172 25.793 6.03125 25.793 6.64062V8.79687C25.793 9.40625 25.5781 9.92578 25.1484 10.3555C24.7188 10.7852 24.1992 11 23.5898 11C23.1094 11 22.6836 10.8672 22.3125 10.6016L22.3125 12.8809L21.375 13.291ZM31.5938 8.73828L32.5312 8.32812V8.79687C32.5312 9.40625 32.3164 9.92578 31.8867 10.3555C31.457 10.7852 30.9375 11 30.3281 11C29.7188 11 29.1973 10.7852 28.7637 10.3555C28.3301 9.92578 28.1133 9.40625 28.1133 8.79687V2.55664L29.0508 2.14648V8.7793C29.0586 9.14258 29.1836 9.44336 29.4258 9.68164C29.6758 9.92773 29.9883 10.0508 30.3633 10.0508C30.6914 10.0508 30.9785 9.91797 31.2246 9.65234C31.4707 9.38672 31.5938 9.08203 31.5938 8.73828ZM37.0898 10.0508C37.418 10.0508 37.707 9.92773 37.957 9.68164C38.1992 9.44336 38.3242 9.14258 38.332 8.7793V8.69727L39.2695 8.28125V8.79687C39.2695 9.34375 39.0352 9.86719 38.5664 10.3672C38.168 10.7891 37.6641 11 37.0547 11C36.4453 11 35.9258 10.7852 35.4961 10.3555C35.0664 9.92578 34.8516 9.40625 34.8516 8.79687V6.64062C34.8516 6.03125 35.0664 5.51172 35.4961 5.08203C35.9258 4.65234 36.4453 4.4375 37.0547 4.4375C37.6406 4.4375 38.1621 4.65234 38.6191 5.08203C39.0527 5.48828 39.2695 6.00781 39.2695 6.64062V7.19141L35.7891 8.73828C35.7891 9.10937 35.9121 9.42187 36.1582 9.67578C36.4043 9.92578 36.7148 10.0508 37.0898 10.0508ZM37.0195 5.38672C36.6914 5.38672 36.4043 5.50977 36.1582 5.75586C35.9121 6.00195 35.7891 6.29687 35.7891 6.64062C35.7891 6.64844 35.7891 6.6543 35.7891 6.6582V7.71289L38.3262 6.58203C38.3066 6.25391 38.1836 5.97852 37.957 5.75586C37.707 5.50977 37.3945 5.38672 37.0195 5.38672ZM50.5781 10.0508C50.9258 10.0508 51.2129 9.93359 51.4395 9.69922C51.666 9.45703 51.7793 9.1875 51.7793 8.89062C51.7793 8.62891 51.666 8.38086 51.4395 8.14648C51.209 7.91211 50.8965 7.78516 50.502 7.76562C50.0176 7.74219 49.6328 7.5957 49.3477 7.32617C49.0703 7.06445 48.9043 6.68945 48.8496 6.20117C48.8457 6.16602 48.8438 6.13086 48.8438 6.0957C48.8633 5.66992 49.0352 5.29102 49.3594 4.95898C49.6914 4.61133 50.0957 4.4375 50.5723 4.4375C51.0762 4.4375 51.4805 4.61133 51.7852 4.95898C51.9883 5.19336 52.1465 5.50391 52.2598 5.89062L51.4102 6.26562C51.3477 6.00781 51.252 5.80273 51.123 5.65039C50.9785 5.49023 50.793 5.41016 50.5664 5.41016C50.3516 5.41016 50.1641 5.49023 50.0039 5.65039C49.8555 5.79883 49.7812 5.9668 49.7812 6.1543C49.7812 6.16211 49.7812 6.17187 49.7812 6.18359C49.7812 6.37109 49.8516 6.5332 49.9922 6.66992C50.1211 6.79883 50.3086 6.87695 50.5547 6.9043C51.2344 6.98242 51.7559 7.19141 52.1191 7.53125C52.5176 7.91406 52.7168 8.38086 52.7168 8.93164V8.94922C52.709 9.47266 52.5156 9.94141 52.1367 10.3555C51.7383 10.7852 51.2188 11 50.5781 11C49.9648 11 49.4609 10.7891 49.0664 10.3672C48.625 9.90234 48.3906 9.37891 48.3633 8.79687L48.3574 8.73828L49.2949 8.32812L49.3008 8.7793C49.3047 9.14258 49.4277 9.44336 49.6699 9.68164C49.9199 9.92773 50.2227 10.0508 50.5781 10.0508ZM58.5469 8.73828C58.5469 8.73828 58.8594 8.60156 59.4844 8.32812V8.79687C59.4844 9.40625 59.2695 9.92578 58.8398 10.3555C58.4102 10.7852 57.8906 11 57.2812 11C56.6719 11 56.1504 10.7852 55.7168 10.3555C55.2832 9.92578 55.0664 9.40625 55.0664 8.79687V5.49219H54.3398L54.75 4.55469H55.0664V2.55664L56.0039 2.14648V4.55469L58.9805 4.55469L58.5703 5.49219L56.0039 5.49219V8.7793C56.0117 9.14648 56.1367 9.44727 56.3789 9.68164C56.6328 9.92773 56.9297 10.0508 57.2695 10.0508C57.6172 10.0508 57.918 9.92578 58.1719 9.67578C58.4219 9.43359 58.5469 9.12109 58.5469 8.73828ZM62.748 9.27734C62.748 9.40625 62.7988 9.53906 62.9004 9.67578C63.0879 9.92578 63.3867 10.0508 63.7969 10.0508C64.0469 10.0508 64.2676 9.99219 64.459 9.875L64.8105 10.7598C64.5059 10.9199 64.168 11 63.7969 11C63.2109 11 62.6914 10.7852 62.2383 10.3555C61.9336 10.043 61.7812 9.68359 61.7812 9.27734C61.7812 9.26172 61.7812 9.24609 61.7812 9.23047C61.7812 8.5 62.1543 7.98242 62.9004 7.67773L65.2852 6.69922C65.2852 6.32812 65.1621 6.01758 64.916 5.76758C64.6699 5.51367 64.3594 5.38672 63.9844 5.38672C63.6562 5.38672 63.3672 5.50977 63.1172 5.75586C62.875 5.99414 62.75 6.29492 62.7422 6.6582V6.74023L61.8047 7.15625V6.64062C61.8047 6.09375 62.0391 5.57031 62.5078 5.07031C62.9062 4.64844 63.4102 4.4375 64.0195 4.4375C64.6289 4.4375 65.1484 4.65234 65.5781 5.08203C66.0078 5.51172 66.2227 6.03125 66.2227 6.64062V10.5898L65.2852 11V7.72461L63.3574 8.50977C62.9512 8.70117 62.748 8.95703 62.748 9.27734ZM72.0234 11.123V10.6074C71.6562 10.8691 71.2344 11 70.7578 11C70.1484 11 69.627 10.7852 69.1934 10.3555C68.7598 9.92578 68.543 9.40625 68.543 8.79687V4.84766L69.4805 4.4375V8.7793C69.4883 9.14258 69.6133 9.44336 69.8555 9.68164C70.1055 9.92773 70.418 10.0508 70.793 10.0508C71.1211 10.0508 71.4082 9.92773 71.6543 9.68164C71.8965 9.43945 72.0195 9.15039 72.0234 8.81445V8.7793V4.84766L72.9609 4.4375V11.1406C72.9609 11.75 72.7441 12.2695 72.3105 12.6992C71.877 13.1289 71.3555 13.3437 70.7461 13.3437C70.1367 13.3437 69.6172 13.1289 69.1875 12.6992C68.9141 12.4258 68.7285 12.1172 68.6309 11.7734L69.5625 11.5742C69.625 11.7422 69.7285 11.8926 69.873 12.0254C70.1426 12.2715 70.4453 12.3945 70.7812 12.3945C71.1094 12.3945 71.3984 12.2715 71.6484 12.0254C71.8906 11.7871 72.0156 11.4863 72.0234 11.123ZM78.7617 8.73828L79.6992 8.32812V8.79687C79.6992 9.40625 79.4844 9.92578 79.0547 10.3555C78.625 10.7852 78.1055 11 77.4961 11C76.8867 11 76.3652 10.7852 75.9316 10.3555C75.498 9.92578 75.2812 9.40625 75.2812 8.79687V4.84766L76.2188 4.4375V8.7793C76.2266 9.14258 76.3516 9.44336 76.5938 9.68164C76.8438 9.92773 77.1562 10.0508 77.5312 10.0508C77.8594 10.0508 78.1465 9.91797 78.3926 9.65234C78.6387 9.38672 78.7617 9.08203 78.7617 8.73828ZM75.1992 3.4707C75.0508 3.31836 74.9766 3.13477 74.9766 2.91992C74.9766 2.70508 75.0508 2.52344 75.1992 2.375C75.3477 2.22266 75.5273 2.14648 75.7383 2.14648C75.9492 2.14648 76.1289 2.22266 76.2773 2.375C76.4258 2.52344 76.5 2.70508 76.5 2.91992C76.5 3.13477 76.4258 3.31836 76.2773 3.4707C76.1289 3.61914 75.9492 3.69336 75.7383 3.69336C75.5273 3.69336 75.3477 3.61914 75.1992 3.4707ZM82.0195 11V6.64062C82.0195 6.03125 82.2344 5.51172 82.6641 5.08203C83.0938 4.65234 83.6133 4.4375 84.2227 4.4375C84.832 4.4375 85.3535 4.65234 85.7871 5.08203C86.2207 5.51172 86.4375 6.03125 86.4375 6.64062V10.5898L85.5 11V6.6582C85.4922 6.29492 85.3672 5.99414 85.125 5.75586C84.875 5.50977 84.5801 5.38672 84.2402 5.38672C83.8887 5.38672 83.5859 5.51172 83.332 5.76172C83.082 6.00391 82.957 6.29687 82.957 6.64062C82.957 6.64844 82.957 6.6543 82.957 6.6582V10.5898L82.0195 11ZM92.2383 11.123V10.6016C91.8672 10.8672 91.4414 11 90.9609 11C90.3516 11 89.832 10.7852 89.4023 10.3555C88.9727 9.92578 88.7578 9.40625 88.7578 8.79687V6.64062C88.7578 6.03125 88.9727 5.51172 89.4023 5.08203C89.832 4.65234 90.3516 4.4375 90.9609 4.4375C91.5703 4.4375 92.0918 4.65234 92.5254 5.08203C92.959 5.51172 93.1758 6.03125 93.1758 6.64062V11.1406C93.1758 11.75 92.959 12.2695 92.5254 12.6992C92.0918 13.1289 91.5703 13.3437 90.9609 13.3437C90.3516 13.3437 89.832 13.1289 89.4023 12.6992C89.1289 12.4258 88.9434 12.1172 88.8457 11.7734L89.7773 11.5742C89.8398 11.7422 89.9434 11.8926 90.0879 12.0254C90.3574 12.2715 90.6602 12.3945 90.9961 12.3945C91.3242 12.3945 91.6133 12.2715 91.8633 12.0254C92.1055 11.7871 92.2305 11.4863 92.2383 11.123ZM89.6953 8.7793C89.6953 9.13867 89.8262 9.43945 90.0879 9.68164C90.3535 9.92773 90.6562 10.0508 90.9961 10.0508C91.3242 10.0508 91.6133 9.92773 91.8633 9.68164C92.1055 9.44336 92.2305 9.14258 92.2383 8.7793V6.6582C92.2305 6.29492 92.1055 5.99414 91.8633 5.75586C91.6133 5.50977 91.3008 5.38672 90.9258 5.38672C90.5977 5.38672 90.3105 5.50977 90.0645 5.75586C89.8223 5.99805 89.6992 6.28711 89.6953 6.62305V6.6582V8.7793Z" fill="#FF2551"/>
<rect width="9" height="10" transform="matrix(4.37114e-08 1 1 -4.37114e-08 92 111)" fill="white"/>
<rect width="8" height="5" transform="matrix(4.37114e-08 1 1 -4.37114e-08 97 53)" fill="white"/>
<rect width="9" height="21" transform="matrix(4.37114e-08 1 1 -4.37114e-08 81 150)" fill="white"/>
<rect width="8" height="5" transform="matrix(4.37114e-08 1 1 -4.37114e-08 97 131)" fill="white"/>
<rect width="8" height="26" transform="matrix(4.37114e-08 1 1 -4.37114e-08 76 170)" fill="white"/>
<rect width="8" height="16" transform="matrix(4.37114e-08 1 1 -4.37114e-08 86 208)" fill="white"/>
<rect width="9" height="26" transform="matrix(4.37114e-08 1 1 -4.37114e-08 76 227)" fill="white"/>
<rect width="8" height="10" transform="matrix(4.37114e-08 1 1 -4.37114e-08 92 247)" fill="white"/>
<rect width="8" height="14" transform="matrix(4.37114e-08 1 1 -4.37114e-08 88 325)" fill="white"/>
<path d="M0.999512 92L102 92" stroke="#FF2551" stroke-width="0.5"/>
<path d="M0.999512 53L102 53" stroke="#FF2551" stroke-width="0.5"/>
<path d="M0.999512 72L102 72" stroke="#FF2551" stroke-width="0.5"/>
<path d="M0.999512 111L102 111" stroke="#FF2551" stroke-width="0.5"/>
<path d="M0.999512 150L102 150" stroke="#FF2551" stroke-width="0.5"/>
<path d="M0.999512 189L102 189" stroke="#FF2551" stroke-width="0.5"/>
<path d="M0.999512 227L102 227" stroke="#FF2551" stroke-width="0.5"/>
<path d="M0.999512 266L102 266" stroke="#FF2551" stroke-width="0.5"/>
<path d="M0.999512 305L102 305" stroke="#FF2551" stroke-width="0.5"/>
<path d="M0.999512 344L102 344" stroke="#FF2551" stroke-width="0.5"/>
<path d="M88.0454 364L101.999 364" stroke="white" stroke-width="0.5"/>
<path d="M0.999512 131L102 131" stroke="#FF2551" stroke-width="0.5"/>
<path d="M0.999512 170L102 170" stroke="#FF2551" stroke-width="0.5"/>
<path d="M0.999512 208L102 208" stroke="#FF2551" stroke-width="0.5"/>
<path d="M0.999512 247L102 247" stroke="#FF2551" stroke-width="0.5"/>
<path d="M0.999512 286L102 286" stroke="#FF2551" stroke-width="0.5"/>
<path d="M0.999512 325L102 325" stroke="#FF2551" stroke-width="0.5"/>
<path d="M0.999512 364L102 364" stroke="#FF2551" stroke-width="0.5"/>
<rect width="11" height="27" transform="matrix(4.37114e-08 1 1 -4.37114e-08 75 120)" fill="#FF2551"/>
<rect width="11" height="2" transform="matrix(4.37114e-08 1 1 -4.37114e-08 100 81)" fill="#FF2551"/>
<path d="M72 100L72 111L102 111L102 100L72 100Z" fill="#FF2551"/>
<rect width="11" height="42" transform="matrix(4.37114e-08 1 1 -4.37114e-08 60 159)" fill="#FF2551"/>
<path d="M52 139L52 150L102 150L102 139L52 139Z" fill="#FF2551"/>
<rect width="11" height="76" transform="matrix(4.37114e-08 1 1 -4.37114e-08 26 178)" fill="#FF2551"/>
<rect width="11" height="57" transform="matrix(4.37114e-08 1 1 -4.37114e-08 45 216)" fill="#FF2551"/>
<rect width="11" height="76" transform="matrix(4.37114e-08 1 1 -4.37114e-08 26 197)" fill="#FF2551"/>
<rect width="11" height="72" transform="matrix(4.37114e-08 1 1 -4.37114e-08 30 236)" fill="#FF2551"/>
<rect width="11" height="10" transform="matrix(4.37114e-08 1 1 -4.37114e-08 92 275)" fill="#FF2551"/>
<rect width="11" height="64" transform="matrix(4.37114e-08 1 1 -4.37114e-08 38 255)" fill="#FF2551"/>
<rect width="11" height="14" transform="matrix(4.37114e-08 1 1 -4.37114e-08 88 314)" fill="#FF2551"/>
<rect width="11" height="3" transform="matrix(4.37114e-08 1 1 -4.37114e-08 99 333)" fill="#FF2551"/>
<rect width="11" height="1" transform="matrix(4.37114e-08 1 1 -4.37114e-08 101 353)" fill="#FF2551"/>
</svg>
