<svg width="136" height="167" viewBox="0 0 136 167" fill="none" xmlns="http://www.w3.org/2000/svg">
<rect x="84" y="21" width="38" height="122" fill="#FF2551"/>
<rect x="26.5" y="112.5" width="38" height="30" fill="white" stroke="#FF2551"/>
<path d="M2.94141 49.834L1.55859 51.1523L1.00781 50.4082L2.94141 48.5566L3.87891 48.1465V56.5898L2.94141 57V49.834ZM9.90234 52.6406C9.65234 52.6406 9.38672 52.6934 9.10547 52.7988L8.63086 53.0273L7.92773 52.4121L8.70703 48.2637H12.4746L11.9824 49.2012H9.48633L8.97656 51.8965C9.29688 51.7988 9.62305 51.75 9.95508 51.75C10.0449 51.75 10.1309 51.7539 10.2129 51.7617C11.0098 51.8359 11.627 52.0957 12.0645 52.541C12.5176 53.002 12.7441 53.6055 12.7441 54.3516V54.3691C12.7441 55.1113 12.4902 55.7344 11.9824 56.2383C11.4707 56.7461 10.8477 57 10.1133 57C9.37109 57 8.74805 56.7461 8.24414 56.2383C7.72852 55.7148 7.4707 55.0996 7.4707 54.3926V54.3164L8.4082 53.9062V54.4102C8.4082 54.8789 8.57617 55.2773 8.91211 55.6055C9.24805 55.9375 9.64844 56.1035 10.1133 56.1035C10.5859 56.1035 10.9883 55.9375 11.3203 55.6055C11.6523 55.2695 11.8184 54.8691 11.8184 54.4043C11.8184 53.8457 11.6543 53.4258 11.3262 53.1445C10.998 52.8555 10.6016 52.6895 10.1367 52.6465C10.0586 52.6426 9.98047 52.6406 9.90234 52.6406Z" fill="#FF2551"/>
<path d="M2.94141 78.834L1.55859 80.1523L1.00781 79.4082L2.94141 77.5566L3.87891 77.1465V85.5898L2.94141 86V78.834ZM8.40234 79.7363V83.4102C8.40234 83.5352 8.41406 83.6543 8.4375 83.7676L11.1094 78.3711C10.8164 78.1523 10.4824 78.043 10.1074 78.043C9.63477 78.043 9.23242 78.209 8.90039 78.541C8.56836 78.8691 8.40234 79.2676 8.40234 79.7363ZM12.75 79.7539V83.3926C12.75 84.1113 12.4922 84.7266 11.9766 85.2383C11.4609 85.7461 10.8379 86 10.1074 86C9.37305 86 8.75 85.7461 8.23828 85.2383C7.72266 84.7266 7.46484 84.1113 7.46484 83.3926V79.7539C7.46484 79.0352 7.72266 78.4219 8.23828 77.9141C8.75391 77.4023 9.37695 77.1465 10.1074 77.1465C10.8379 77.1465 11.4609 77.4023 11.9766 77.9141C12.4922 78.4219 12.75 79.0352 12.75 79.7539ZM11.7363 79.2207L9.01758 84.7109C9.32617 84.9727 9.68945 85.1035 10.1074 85.1035C10.5723 85.1035 10.9727 84.9375 11.3086 84.6055C11.6406 84.2773 11.8086 83.8789 11.8125 83.4102V79.7363C11.8125 79.5527 11.7871 79.3809 11.7363 79.2207Z" fill="#FF2551"/>
<path d="M5.97656 22.8887C5.97656 23.584 5.6875 24.1582 5.10938 24.6113C4.05859 25.4316 3.51562 25.8633 3.48047 25.9062C2.84766 26.5508 2.39844 27.1953 2.13281 27.8398L2.08008 27.9453H6.08789L5.67773 28.8828H0.650391L1.0957 27.7344C1.68945 26.4258 2.50195 25.4004 3.5332 24.6582C4.04492 24.2793 4.38672 24.0293 4.55859 23.9082C4.88281 23.6816 5.04492 23.3223 5.04492 22.8301C5.04492 22.8027 5.04492 22.7734 5.04492 22.7422C5.0332 22.2656 4.86719 21.8652 4.54688 21.541C4.21875 21.209 3.81641 21.043 3.33984 21.043C2.875 21.043 2.47461 21.209 2.13867 21.541C1.80273 21.873 1.63477 22.2617 1.63477 22.707C1.63477 22.7148 1.63477 22.7246 1.63477 22.7363L1.64062 22.7949L0.703125 23.2051L0.697266 22.7539C0.697266 22.0508 0.955078 21.4375 1.4707 20.9141C1.97852 20.4023 2.60156 20.1465 3.33984 20.1465C4.07812 20.1465 4.70117 20.4004 5.20898 20.9082C5.7207 21.4121 5.97656 22.0723 5.97656 22.8887ZM8.40234 22.7363V26.4102C8.40234 26.5352 8.41406 26.6543 8.4375 26.7676L11.1094 21.3711C10.8164 21.1523 10.4824 21.043 10.1074 21.043C9.63477 21.043 9.23242 21.209 8.90039 21.541C8.56836 21.8691 8.40234 22.2676 8.40234 22.7363ZM12.75 22.7539V26.3926C12.75 27.1113 12.4922 27.7266 11.9766 28.2383C11.4609 28.7461 10.8379 29 10.1074 29C9.37305 29 8.75 28.7461 8.23828 28.2383C7.72266 27.7266 7.46484 27.1113 7.46484 26.3926V22.7539C7.46484 22.0352 7.72266 21.4219 8.23828 20.9141C8.75391 20.4023 9.37695 20.1465 10.1074 20.1465C10.8379 20.1465 11.4609 20.4023 11.9766 20.9141C12.4922 21.4219 12.75 22.0352 12.75 22.7539ZM11.7363 22.2207L9.01758 27.7109C9.32617 27.9727 9.68945 28.1035 10.1074 28.1035C10.5723 28.1035 10.9727 27.9375 11.3086 27.6055C11.6406 27.2773 11.8086 26.8789 11.8125 26.4102V22.7363C11.8125 22.5527 11.7871 22.3809 11.7363 22.2207Z" fill="#FF2551"/>
<path d="M3.16406 109.641C2.91406 109.641 2.64844 109.693 2.36719 109.799L1.89258 110.027L1.18945 109.412L1.96875 105.264H5.73633L5.24414 106.201H2.74805L2.23828 108.896C2.55859 108.799 2.88477 108.75 3.2168 108.75C3.30664 108.75 3.39258 108.754 3.47461 108.762C4.27148 108.836 4.88867 109.096 5.32617 109.541C5.7793 110.002 6.00586 110.605 6.00586 111.352V111.369C6.00586 112.111 5.75195 112.734 5.24414 113.238C4.73242 113.746 4.10938 114 3.375 114C2.63281 114 2.00977 113.746 1.50586 113.238C0.990234 112.715 0.732422 112.1 0.732422 111.393V111.316L1.66992 110.906V111.41C1.66992 111.879 1.83789 112.277 2.17383 112.605C2.50977 112.938 2.91016 113.104 3.375 113.104C3.84766 113.104 4.25 112.938 4.58203 112.605C4.91406 112.27 5.08008 111.869 5.08008 111.404C5.08008 110.846 4.91602 110.426 4.58789 110.145C4.25977 109.855 3.86328 109.689 3.39844 109.646C3.32031 109.643 3.24219 109.641 3.16406 109.641Z" fill="#FF2551"/>
<path d="M1.66406 136.736V140.41C1.66406 140.535 1.67578 140.654 1.69922 140.768L4.37109 135.371C4.07812 135.152 3.74414 135.043 3.36914 135.043C2.89648 135.043 2.49414 135.209 2.16211 135.541C1.83008 135.869 1.66406 136.268 1.66406 136.736ZM6.01172 136.754V140.393C6.01172 141.111 5.75391 141.727 5.23828 142.238C4.72266 142.746 4.09961 143 3.36914 143C2.63477 143 2.01172 142.746 1.5 142.238C0.984375 141.727 0.726562 141.111 0.726562 140.393V136.754C0.726562 136.035 0.984375 135.422 1.5 134.914C2.01562 134.402 2.63867 134.146 3.36914 134.146C4.09961 134.146 4.72266 134.402 5.23828 134.914C5.75391 135.422 6.01172 136.035 6.01172 136.754ZM4.99805 136.221L2.2793 141.711C2.58789 141.973 2.95117 142.104 3.36914 142.104C3.83398 142.104 4.23438 141.938 4.57031 141.605C4.90234 141.277 5.07031 140.879 5.07422 140.41V136.736C5.07422 136.553 5.04883 136.381 4.99805 136.221Z" fill="#FF2551"/>
<path d="M84.6445 152.4V147.848L85.582 147.438L85.5762 152.377C85.5762 152.572 85.6406 152.738 85.7695 152.875C85.8984 153.012 86.0508 153.08 86.2266 153.08C86.4102 153.08 86.5664 153.012 86.6953 152.875C86.8281 152.734 86.8945 152.57 86.8945 152.383C86.8945 152.383 86.8945 152.381 86.8945 152.377L86.9004 147.848L87.8379 147.438L87.832 152.377C87.832 152.572 87.8965 152.738 88.0254 152.875C88.1543 153.012 88.3066 153.08 88.4824 153.08C88.6621 153.08 88.8184 153.012 88.9512 152.875C89.084 152.738 89.1504 152.572 89.1504 152.377L89.1562 147.848L90.0938 147.438V152.406C90.0938 152.844 89.9375 153.219 89.625 153.531C89.3125 153.844 88.9355 154 88.4941 154C88.0371 154 87.6602 153.848 87.3633 153.543C87.0508 153.848 86.6758 154 86.2383 154C85.7695 154 85.3887 153.848 85.0957 153.543C84.7988 153.234 84.6484 152.854 84.6445 152.4ZM95.3789 151.738L96.3164 151.328V151.797C96.3164 152.406 96.1016 152.926 95.6719 153.355C95.2422 153.785 94.7227 154 94.1133 154C93.5039 154 92.9824 153.785 92.5488 153.355C92.1152 152.926 91.8984 152.406 91.8984 151.797V147.848L92.8359 147.438V151.779C92.8438 152.143 92.9688 152.443 93.2109 152.682C93.4609 152.928 93.7734 153.051 94.1484 153.051C94.4766 153.051 94.7637 152.918 95.0098 152.652C95.2559 152.387 95.3789 152.082 95.3789 151.738ZM91.8164 146.471C91.668 146.318 91.5938 146.135 91.5938 145.92C91.5938 145.705 91.668 145.523 91.8164 145.375C91.9648 145.223 92.1445 145.146 92.3555 145.146C92.5664 145.146 92.7461 145.223 92.8945 145.375C93.043 145.523 93.1172 145.705 93.1172 145.92C93.1172 146.135 93.043 146.318 92.8945 146.471C92.7461 146.619 92.5664 146.693 92.3555 146.693C92.1445 146.693 91.9648 146.619 91.8164 146.471ZM102.117 151.738C102.117 151.738 102.43 151.602 103.055 151.328V151.797C103.055 152.406 102.84 152.926 102.41 153.355C101.98 153.785 101.461 154 100.852 154C100.242 154 99.7207 153.785 99.2871 153.355C98.8535 152.926 98.6367 152.406 98.6367 151.797V148.492H97.9102L98.3203 147.555H98.6367V145.557L99.5742 145.146V147.555H102.551L102.141 148.492H99.5742V151.779C99.582 152.146 99.707 152.447 99.9492 152.682C100.203 152.928 100.5 153.051 100.84 153.051C101.188 153.051 101.488 152.926 101.742 152.676C101.992 152.434 102.117 152.121 102.117 151.738ZM105.375 154V145.557L106.312 145.146V147.83C106.68 147.568 107.102 147.438 107.578 147.438C108.188 147.438 108.709 147.652 109.143 148.082C109.576 148.512 109.793 149.031 109.793 149.641V153.59L108.855 154V149.658C108.848 149.295 108.723 148.994 108.48 148.756C108.23 148.51 107.936 148.387 107.596 148.387C107.232 148.387 106.928 148.51 106.682 148.756C106.439 148.998 106.316 149.287 106.312 149.623V149.658V153.59L105.375 154ZM86.0977 163.779C86.0977 164.139 86.2285 164.439 86.4902 164.682C86.7559 164.928 87.0586 165.051 87.3984 165.051C87.7266 165.051 88.0156 164.928 88.2656 164.682C88.5078 164.443 88.6328 164.143 88.6406 163.779V161.658C88.6328 161.295 88.5078 160.994 88.2656 160.756C88.0156 160.51 87.7031 160.387 87.3281 160.387C87 160.387 86.7129 160.51 86.4668 160.756C86.2246 160.998 86.1016 161.287 86.0977 161.623V161.658V163.779ZM85.1602 157.557L86.0977 157.146V159.83C86.4648 159.568 86.8867 159.438 87.3633 159.438C87.9727 159.438 88.4941 159.652 88.9277 160.082C89.3613 160.512 89.5781 161.031 89.5781 161.641V163.797C89.5781 164.406 89.3613 164.926 88.9277 165.355C88.4941 165.785 87.9727 166 87.3633 166C86.7539 166 86.2344 165.785 85.8047 165.355C85.375 164.926 85.1602 164.406 85.1602 163.797V157.557ZM94.1367 165.051C94.4648 165.051 94.7539 164.928 95.0039 164.682C95.2461 164.443 95.3711 164.143 95.3789 163.779V163.697L96.3164 163.281V163.797C96.3164 164.344 96.082 164.867 95.6133 165.367C95.2148 165.789 94.7109 166 94.1016 166C93.4922 166 92.9727 165.785 92.543 165.355C92.1133 164.926 91.8984 164.406 91.8984 163.797V161.641C91.8984 161.031 92.1133 160.512 92.543 160.082C92.9727 159.652 93.4922 159.438 94.1016 159.438C94.6875 159.438 95.209 159.652 95.666 160.082C96.0996 160.488 96.3164 161.008 96.3164 161.641V162.191L92.8359 163.738C92.8359 164.109 92.959 164.422 93.2051 164.676C93.4512 164.926 93.7617 165.051 94.1367 165.051ZM94.0664 160.387C93.7383 160.387 93.4512 160.51 93.2051 160.756C92.959 161.002 92.8359 161.297 92.8359 161.641C92.8359 161.648 92.8359 161.654 92.8359 161.658V162.713L95.373 161.582C95.3535 161.254 95.2305 160.979 95.0039 160.756C94.7539 160.51 94.4414 160.387 94.0664 160.387ZM98.6367 166V161.641C98.6367 161.031 98.8516 160.512 99.2812 160.082C99.7109 159.652 100.23 159.438 100.84 159.438C101.449 159.438 101.971 159.652 102.404 160.082C102.838 160.512 103.055 161.031 103.055 161.641V165.59L102.117 166V161.658C102.109 161.295 101.984 160.994 101.742 160.756C101.492 160.51 101.197 160.387 100.857 160.387C100.506 160.387 100.203 160.512 99.9492 160.762C99.6992 161.004 99.5742 161.297 99.5742 161.641C99.5742 161.648 99.5742 161.654 99.5742 161.658V165.59L98.6367 166ZM106.312 163.779C106.312 164.139 106.443 164.439 106.705 164.682C106.971 164.928 107.273 165.051 107.613 165.051C107.941 165.051 108.23 164.928 108.48 164.682C108.723 164.443 108.848 164.143 108.855 163.779V163.697L109.793 163.281V163.797C109.793 164.344 109.559 164.867 109.09 165.367C108.691 165.789 108.188 166 107.578 166C106.969 166 106.449 165.785 106.02 165.355C105.59 164.926 105.375 164.406 105.375 163.797V161.641C105.375 161.031 105.59 160.512 106.02 160.082C106.449 159.652 106.969 159.438 107.578 159.438C108.195 159.438 108.717 159.652 109.143 160.082C109.576 160.512 109.793 161.031 109.793 161.641V161.699L108.855 162.121V161.658C108.848 161.295 108.723 160.994 108.48 160.756C108.23 160.51 107.936 160.387 107.596 160.387C107.244 160.387 106.941 160.51 106.688 160.756C106.438 161.002 106.312 161.297 106.312 161.641C106.312 161.648 106.312 161.654 106.312 161.658V163.779ZM112.113 166V157.557L113.051 157.146V159.83C113.418 159.568 113.84 159.438 114.316 159.438C114.926 159.438 115.447 159.652 115.881 160.082C116.314 160.512 116.531 161.031 116.531 161.641V165.59L115.594 166V161.658C115.586 161.295 115.461 160.994 115.219 160.756C114.969 160.51 114.674 160.387 114.334 160.387C113.971 160.387 113.666 160.51 113.42 160.756C113.178 160.998 113.055 161.287 113.051 161.623V161.658V165.59L112.113 166ZM121.09 165.051C121.418 165.051 121.707 164.928 121.957 164.682C122.199 164.443 122.324 164.143 122.332 163.779V163.697L123.27 163.281V163.797C123.27 164.344 123.035 164.867 122.566 165.367C122.168 165.789 121.664 166 121.055 166C120.445 166 119.926 165.785 119.496 165.355C119.066 164.926 118.852 164.406 118.852 163.797V161.641C118.852 161.031 119.066 160.512 119.496 160.082C119.926 159.652 120.445 159.438 121.055 159.438C121.641 159.438 122.162 159.652 122.619 160.082C123.053 160.488 123.27 161.008 123.27 161.641V162.191L119.789 163.738C119.789 164.109 119.912 164.422 120.158 164.676C120.404 164.926 120.715 165.051 121.09 165.051ZM121.02 160.387C120.691 160.387 120.404 160.51 120.158 160.756C119.912 161.002 119.789 161.297 119.789 161.641C119.789 161.648 119.789 161.654 119.789 161.658V162.713L122.326 161.582C122.307 161.254 122.184 160.979 121.957 160.756C121.707 160.51 121.395 160.387 121.02 160.387ZM127.84 165.051C128.188 165.051 128.475 164.934 128.701 164.699C128.928 164.457 129.041 164.188 129.041 163.891C129.041 163.629 128.928 163.381 128.701 163.146C128.471 162.912 128.158 162.785 127.764 162.766C127.279 162.742 126.895 162.596 126.609 162.326C126.332 162.064 126.166 161.689 126.111 161.201C126.107 161.166 126.105 161.131 126.105 161.096C126.125 160.67 126.297 160.291 126.621 159.959C126.953 159.611 127.357 159.438 127.834 159.438C128.338 159.438 128.742 159.611 129.047 159.959C129.25 160.193 129.408 160.504 129.521 160.891L128.672 161.266C128.609 161.008 128.514 160.803 128.385 160.65C128.24 160.49 128.055 160.41 127.828 160.41C127.613 160.41 127.426 160.49 127.266 160.65C127.117 160.799 127.043 160.967 127.043 161.154C127.043 161.162 127.043 161.172 127.043 161.184C127.043 161.371 127.113 161.533 127.254 161.67C127.383 161.799 127.57 161.877 127.816 161.904C128.496 161.982 129.018 162.191 129.381 162.531C129.779 162.914 129.979 163.381 129.979 163.932V163.949C129.971 164.473 129.777 164.941 129.398 165.355C129 165.785 128.48 166 127.84 166C127.227 166 126.723 165.789 126.328 165.367C125.887 164.902 125.652 164.379 125.625 163.797L125.619 163.738L126.557 163.328L126.562 163.779C126.566 164.143 126.689 164.443 126.932 164.682C127.182 164.928 127.484 165.051 127.84 165.051Z" fill="#FF2551"/>
<path d="M27.1602 154V149.641C27.1602 149.031 27.375 148.512 27.8047 148.082C28.2344 147.652 28.7539 147.438 29.3633 147.438C29.9727 147.438 30.4941 147.652 30.9277 148.082C31.3613 148.512 31.5781 149.031 31.5781 149.641V153.59L30.6406 154V149.658C30.6328 149.295 30.5078 148.994 30.2656 148.756C30.0156 148.51 29.7207 148.387 29.3809 148.387C29.0293 148.387 28.7266 148.512 28.4727 148.762C28.2227 149.004 28.0977 149.297 28.0977 149.641C28.0977 149.648 28.0977 149.654 28.0977 149.658V153.59L27.1602 154ZM34.8359 151.779C34.8359 152.139 34.9668 152.439 35.2285 152.682C35.4941 152.928 35.7969 153.051 36.1367 153.051C36.4648 153.051 36.7539 152.928 37.0039 152.682C37.2461 152.443 37.3711 152.143 37.3789 151.779V149.658C37.3711 149.295 37.2461 148.994 37.0039 148.756C36.7539 148.51 36.4414 148.387 36.0664 148.387C35.7383 148.387 35.4512 148.51 35.2051 148.756C34.9629 148.998 34.8398 149.287 34.8359 149.623V149.658V151.779ZM33.8984 149.641C33.8984 149.031 34.1133 148.512 34.543 148.082C34.9727 147.652 35.4922 147.438 36.1016 147.438C36.7109 147.438 37.2324 147.652 37.666 148.082C38.0996 148.512 38.3164 149.031 38.3164 149.641V151.797C38.3164 152.406 38.0996 152.926 37.666 153.355C37.2324 153.785 36.7109 154 36.1016 154C35.4922 154 34.9727 153.785 34.543 153.355C34.1133 152.926 33.8984 152.406 33.8984 151.797V149.641ZM28.0977 163.779C28.0977 164.139 28.2285 164.439 28.4902 164.682C28.7559 164.928 29.0586 165.051 29.3984 165.051C29.7266 165.051 30.0156 164.928 30.2656 164.682C30.5078 164.443 30.6328 164.143 30.6406 163.779V161.658C30.6328 161.295 30.5078 160.994 30.2656 160.756C30.0156 160.51 29.7031 160.387 29.3281 160.387C29 160.387 28.7129 160.51 28.4668 160.756C28.2246 160.998 28.1016 161.287 28.0977 161.623V161.658V163.779ZM27.1602 157.557L28.0977 157.146V159.83C28.4648 159.568 28.8867 159.438 29.3633 159.438C29.9727 159.438 30.4941 159.652 30.9277 160.082C31.3613 160.512 31.5781 161.031 31.5781 161.641V163.797C31.5781 164.406 31.3613 164.926 30.9277 165.355C30.4941 165.785 29.9727 166 29.3633 166C28.7539 166 28.2344 165.785 27.8047 165.355C27.375 164.926 27.1602 164.406 27.1602 163.797V157.557ZM36.1367 165.051C36.4648 165.051 36.7539 164.928 37.0039 164.682C37.2461 164.443 37.3711 164.143 37.3789 163.779V163.697L38.3164 163.281V163.797C38.3164 164.344 38.082 164.867 37.6133 165.367C37.2148 165.789 36.7109 166 36.1016 166C35.4922 166 34.9727 165.785 34.543 165.355C34.1133 164.926 33.8984 164.406 33.8984 163.797V161.641C33.8984 161.031 34.1133 160.512 34.543 160.082C34.9727 159.652 35.4922 159.438 36.1016 159.438C36.6875 159.438 37.209 159.652 37.666 160.082C38.0996 160.488 38.3164 161.008 38.3164 161.641V162.191L34.8359 163.738C34.8359 164.109 34.959 164.422 35.2051 164.676C35.4512 164.926 35.7617 165.051 36.1367 165.051ZM36.0664 160.387C35.7383 160.387 35.4512 160.51 35.2051 160.756C34.959 161.002 34.8359 161.297 34.8359 161.641C34.8359 161.648 34.8359 161.654 34.8359 161.658V162.713L37.373 161.582C37.3535 161.254 37.2305 160.979 37.0039 160.756C36.7539 160.51 36.4414 160.387 36.0664 160.387ZM40.6367 166V161.641C40.6367 161.031 40.8516 160.512 41.2812 160.082C41.7109 159.652 42.2305 159.438 42.8398 159.438C43.4492 159.438 43.9707 159.652 44.4043 160.082C44.8379 160.512 45.0547 161.031 45.0547 161.641V165.59L44.1172 166V161.658C44.1094 161.295 43.9844 160.994 43.7422 160.756C43.4922 160.51 43.1973 160.387 42.8574 160.387C42.5059 160.387 42.2031 160.512 41.9492 160.762C41.6992 161.004 41.5742 161.297 41.5742 161.641C41.5742 161.648 41.5742 161.654 41.5742 161.658V165.59L40.6367 166ZM48.3125 163.779C48.3125 164.139 48.4434 164.439 48.7051 164.682C48.9707 164.928 49.2734 165.051 49.6133 165.051C49.9414 165.051 50.2305 164.928 50.4805 164.682C50.7227 164.443 50.8477 164.143 50.8555 163.779V163.697L51.793 163.281V163.797C51.793 164.344 51.5586 164.867 51.0898 165.367C50.6914 165.789 50.1875 166 49.5781 166C48.9688 166 48.4492 165.785 48.0195 165.355C47.5898 164.926 47.375 164.406 47.375 163.797V161.641C47.375 161.031 47.5898 160.512 48.0195 160.082C48.4492 159.652 48.9688 159.438 49.5781 159.438C50.1953 159.438 50.7168 159.652 51.1426 160.082C51.5762 160.512 51.793 161.031 51.793 161.641V161.699L50.8555 162.121V161.658C50.8477 161.295 50.7227 160.994 50.4805 160.756C50.2305 160.51 49.9355 160.387 49.5957 160.387C49.2441 160.387 48.9414 160.51 48.6875 160.756C48.4375 161.002 48.3125 161.297 48.3125 161.641C48.3125 161.648 48.3125 161.654 48.3125 161.658V163.779ZM54.1133 166V157.557L55.0508 157.146V159.83C55.418 159.568 55.8398 159.438 56.3164 159.438C56.9258 159.438 57.4473 159.652 57.8809 160.082C58.3145 160.512 58.5312 161.031 58.5312 161.641L58.5313 165.59L57.5938 166V161.658C57.5859 161.295 57.4609 160.994 57.2188 160.756C56.9688 160.51 56.6738 160.387 56.334 160.387C55.9707 160.387 55.666 160.51 55.4199 160.756C55.1777 160.998 55.0547 161.287 55.0508 161.623V161.658V165.59L54.1133 166ZM63.0898 165.051C63.418 165.051 63.707 164.928 63.957 164.682C64.1992 164.443 64.3242 164.143 64.332 163.779V163.697L65.2695 163.281V163.797C65.2695 164.344 65.0352 164.867 64.5664 165.367C64.168 165.789 63.6641 166 63.0547 166C62.4453 166 61.9258 165.785 61.4961 165.355C61.0664 164.926 60.8516 164.406 60.8516 163.797V161.641C60.8516 161.031 61.0664 160.512 61.4961 160.082C61.9258 159.652 62.4453 159.438 63.0547 159.438C63.6406 159.438 64.1621 159.652 64.6191 160.082C65.0527 160.488 65.2695 161.008 65.2695 161.641V162.191L61.7891 163.738C61.7891 164.109 61.9121 164.422 62.1582 164.676C62.4043 164.926 62.7148 165.051 63.0898 165.051ZM63.0195 160.387C62.6914 160.387 62.4043 160.51 62.1582 160.756C61.9121 161.002 61.7891 161.297 61.7891 161.641C61.7891 161.648 61.7891 161.654 61.7891 161.658V162.713L64.3262 161.582C64.3066 161.254 64.1836 160.979 63.957 160.756C63.707 160.51 63.3945 160.387 63.0195 160.387ZM69.8398 165.051C70.1875 165.051 70.4746 164.934 70.7012 164.699C70.9277 164.457 71.041 164.188 71.041 163.891C71.041 163.629 70.9277 163.381 70.7012 163.146C70.4707 162.912 70.1582 162.785 69.7637 162.766C69.2793 162.742 68.8945 162.596 68.6094 162.326C68.332 162.064 68.166 161.689 68.1113 161.201C68.1074 161.166 68.1055 161.131 68.1055 161.096C68.125 160.67 68.2969 160.291 68.6211 159.959C68.9531 159.611 69.3574 159.438 69.834 159.438C70.3379 159.438 70.7422 159.611 71.0469 159.959C71.25 160.193 71.4082 160.504 71.5215 160.891L70.6719 161.266C70.6094 161.008 70.5137 160.803 70.3848 160.65C70.2402 160.49 70.0547 160.41 69.8281 160.41C69.6133 160.41 69.4258 160.49 69.2656 160.65C69.1172 160.799 69.043 160.967 69.043 161.154C69.043 161.162 69.043 161.172 69.043 161.184C69.043 161.371 69.1133 161.533 69.2539 161.67C69.3828 161.799 69.5703 161.877 69.8164 161.904C70.4961 161.982 71.0176 162.191 71.3809 162.531C71.7793 162.914 71.9785 163.381 71.9785 163.932V163.949C71.9707 164.473 71.7773 164.941 71.3984 165.355C71 165.785 70.4805 166 69.8398 166C69.2266 166 68.7227 165.789 68.3281 165.367C67.8867 164.902 67.6523 164.379 67.625 163.797L67.6191 163.738L68.5566 163.328L68.5625 163.779C68.5664 164.143 68.6895 164.443 68.9316 164.682C69.1816 164.928 69.4844 165.051 69.8398 165.051Z" fill="#FF2551"/>
<path d="M84 10C84 5.58172 87.5817 2 92 2H114C118.418 2 122 5.58172 122 10C122 14.4183 118.418 18 114 18H92C87.5817 18 84 14.4183 84 10Z" fill="#FF2551"/>
<path d="M101.738 8.88867C101.738 9.58398 101.449 10.1582 100.871 10.6113C99.8203 11.4316 99.2773 11.8633 99.2422 11.9062C98.6094 12.5508 98.1602 13.1953 97.8945 13.8398L97.8418 13.9453H101.85L101.439 14.8828H96.4121L96.8574 13.7344C97.4512 12.4258 98.2637 11.4004 99.2949 10.6582C99.8066 10.2793 100.148 10.0293 100.32 9.9082C100.645 9.68164 100.807 9.32227 100.807 8.83008C100.807 8.80273 100.807 8.77344 100.807 8.74219C100.795 8.26562 100.629 7.86523 100.309 7.54102C99.9805 7.20898 99.5781 7.04297 99.1016 7.04297C98.6367 7.04297 98.2363 7.20898 97.9004 7.54102C97.5645 7.87305 97.3965 8.26172 97.3965 8.70703C97.3965 8.71484 97.3965 8.72461 97.3965 8.73633L97.4023 8.79492L96.4648 9.20508L96.459 8.75391C96.459 8.05078 96.7168 7.4375 97.2324 6.91406C97.7402 6.40234 98.3633 6.14648 99.1016 6.14648C99.8398 6.14648 100.463 6.40039 100.971 6.9082C101.482 7.41211 101.738 8.07227 101.738 8.88867ZM105.693 10.6348C105.58 10.6348 105.412 10.6758 105.189 10.7578L104.697 10.3242L106.596 7.20117H103.443L103.854 6.26367H108.236L106.221 9.74414C106.791 9.83008 107.295 10.0859 107.732 10.5117C108.248 11.0117 108.506 11.625 108.506 12.3516V12.3691C108.506 13.1113 108.252 13.7344 107.744 14.2383C107.232 14.7461 106.609 15 105.875 15C105.133 15 104.51 14.7461 104.006 14.2383C103.49 13.7148 103.232 13.0996 103.232 12.3926V12.3164L104.17 11.9062V12.4102C104.17 12.8789 104.338 13.2773 104.674 13.6055C105.01 13.9375 105.41 14.1035 105.875 14.1035C106.348 14.1035 106.75 13.9375 107.082 13.6055C107.414 13.2695 107.58 12.8691 107.58 12.4043C107.58 11.916 107.42 11.5195 107.1 11.2148C106.76 10.8906 106.359 10.7012 105.898 10.6465C105.832 10.6387 105.764 10.6348 105.693 10.6348Z" fill="white"/>
<path d="M25 100C25 95.5817 28.5817 92 33 92H58C62.4183 92 66 95.5817 66 100C66 104.418 62.4183 108 58 108H33C28.5817 108 25 104.418 25 100Z" fill="#FF2551"/>
<path d="M36.4648 102.838H32.5098L32.9199 101.9L36.4648 96.5566L37.4023 96.1465V101.9H38.2754L37.8652 102.838H37.4023V104.59L36.4648 105V102.838ZM36.4648 101.9V98.1387L33.9688 101.9H36.4648ZM41.5918 104.777C41.4434 104.625 41.3691 104.441 41.3691 104.227C41.3691 104.012 41.4434 103.83 41.5918 103.682C41.7402 103.529 41.9199 103.453 42.1309 103.453C42.3418 103.453 42.5215 103.529 42.6699 103.682C42.8184 103.83 42.8926 104.012 42.8926 104.227C42.8926 104.441 42.8184 104.625 42.6699 104.777C42.5215 104.926 42.3418 105 42.1309 105C41.9199 105 41.7402 104.926 41.5918 104.777ZM49.9414 102.838H45.9863L46.3965 101.9L49.9414 96.5566L50.8789 96.1465V101.9H51.752L51.3418 102.838H50.8789V104.59L49.9414 105V102.838ZM49.9414 101.9V98.1387L47.4453 101.9H49.9414ZM55.4316 100.635C55.3184 100.635 55.1504 100.676 54.9277 100.758L54.4355 100.324L56.334 97.2012H53.1816L53.5918 96.2637H57.9746L55.959 99.7441C56.5293 99.8301 57.0332 100.086 57.4707 100.512C57.9863 101.012 58.2441 101.625 58.2441 102.352V102.369C58.2441 103.111 57.9902 103.734 57.4824 104.238C56.9707 104.746 56.3477 105 55.6133 105C54.8711 105 54.248 104.746 53.7441 104.238C53.2285 103.715 52.9707 103.1 52.9707 102.393V102.316L53.9082 101.906V102.41C53.9082 102.879 54.0762 103.277 54.4121 103.605C54.748 103.938 55.1484 104.104 55.6133 104.104C56.0859 104.104 56.4883 103.938 56.8203 103.605C57.1523 103.27 57.3184 102.869 57.3184 102.404C57.3184 101.916 57.1582 101.52 56.8379 101.215C56.498 100.891 56.0977 100.701 55.6367 100.646C55.5703 100.639 55.502 100.635 55.4316 100.635Z" fill="white"/>
</svg>
