<?xml version="1.0" encoding="UTF-8"?>
<svg id="Layer_1" xmlns="http://www.w3.org/2000/svg" viewBox="0 0 50 50">
  <defs>
    <style>
      .cls-1 {
        fill: #ee3155;
      }

      .cls-2 {
        fill: #fff;
      }
    </style>
  </defs>
  <rect class="cls-1" width="50.09" height="50.09" rx="11.58" ry="11.58"/>
  <g>
    <path class="cls-2" d="M25.12,10.79c7.46,0,14.92,0,22.39,0,.49,0,.74.21.74.74-.02,6.66-.01,13.32-.01,19.98,0,.18.02.36-.12.52-.18.21-.53.2-.68-.03-.13-.2-.12-.41-.12-.63,0-6.36,0-12.72,0-19.07q0-.54-.53-.54c-14.45,0-28.9,0-43.35,0-.1,0-.19,0-.29,0-.18,0-.28.06-.25.25,0,.07,0,.15,0,.22,0,8.53,0,17.07,0,25.6,0,.38.1.46.46.46,12.8,0,25.6,0,38.39,0,.28,0,.57-.04.65.35.06.3-.14.58-.45.59-.06,0-.12,0-.18,0-13,0-26.01,0-39.01,0-.58,0-.74-.21-.74-.73.01-9,.01-17.99,0-26.99,0-.5.24-.71.73-.71,7.46,0,14.92,0,22.39,0Z"/>
    <path class="cls-2" d="M10.82,32.58c.06-.34.02-.68.03-1.02,0-.16-.02-.32.23-.3.15.01.13-.11.13-.2,0-.27,0-.53,0-.8,0-.09-.03-.23.11-.22.31.02.25-.18.25-.36,0-.22,0-.44,0-.66,0-.07.02-.2.04-.2.52-.05.26-.44.31-.69.03-.14,0-.29,0-.44,0-.05-.01-.13.01-.14.53-.25.19-.71.26-1.07.03-.17.04-.25.24-.25.81.01,1.63.01,2.44,0,.22,0,.26.07.26.27,0,2.78,0,5.57,0,8.35,0,.25-.09.31-.32.29-.35-.02-.71-.02-1.06,0-.27.02-.32-.09-.32-.33,0-1.87,0-3.74,0-5.62,0-.09,0-.17,0-.26.01-.15-.09-.15-.19-.15-.13,0-.17.05-.17.17,0,.28,0,.56,0,.84,0,.09.04.23-.11.22-.31-.03-.25.18-.25.35,0,.19,0,.39,0,.58,0,.17.03.35-.25.32-.15-.02-.12.11-.12.2,0,.27,0,.53,0,.8,0,.14.07.33-.2.32-.13,0-.08.13-.08.2,0,.22,0,.44,0,.66,0,.18.08.41-.26.38-.07,0-.09.07-.09.13,0,.06,0,.12,0,.18-.03.32.14.75-.07.94-.19.16-.6.06-.91.05-.3,0-.69.13-.87-.06-.18-.19-.04-.58-.06-.88-.01-.17.09-.42-.25-.38-.13.01-.12-.09-.12-.18,0-.22.01-.44,0-.66-.01-.16.12-.41-.23-.41-.07,0-.05-.12-.05-.19,0-.26,0-.51,0-.77,0-.17.06-.38-.25-.35-.12.01-.11-.1-.11-.19,0-.22,0-.44,0-.66,0-.19.09-.44-.27-.4-.13.01-.09-.12-.09-.2,0-.24-.01-.49,0-.73,0-.17,0-.35-.19-.35-.21,0-.16.2-.16.33,0,1.48,0,2.97-.01,4.45,0,.44-.01.88,0,1.31,0,.22-.04.33-.3.31-.31-.02-.64-.04-.95,0-.4.05-.45-.12-.44-.46.01-2.1,0-4.21,0-6.31,0-.63,0-1.26,0-1.9,0-.19.04-.25.24-.25.79.01,1.58.01,2.37,0,.19,0,.26.05.25.24-.02.18,0,.36,0,.55,0,.2-.09.46.27.46.12,0,.08.13.08.21,0,.22,0,.44,0,.66,0,.2-.09.46.28.45.1,0,.08.1.08.17,0,.21,0,.41,0,.62,0,.19-.1.46.27.45.12,0,.08.13.08.21,0,.21,0,.41,0,.62,0,.18-.09.44.27.41.14,0,.09.14.09.23,0,.36,0,.72,0,1.08.05,0,.09,0,.14,0Z"/>
    <path class="cls-2" d="M16.46,19.36c0-1.37,0-2.75,0-4.12,0-.28.07-.38.37-.36.55.03,1.09.02,1.64,0,.27-.01.34.08.31.33-.01.12,0,.24,0,.36,0,.58,0,.59.58.62.16.01.22.06.21.21,0,.12,0,.24,0,.36,0,.21-.06.45.03.61.1.16.36.05.55.06.15,0,.18.08.18.2,0,.27.02.54,0,.8-.02.26.08.36.32.31.36-.07.48.08.43.43-.02.14.02.29,0,.44-.06.34.1.39.4.39.3,0,.39-.06.38-.38-.02-1.47,0-2.94-.01-4.41,0-.27.07-.36.34-.34.37.03.75.03,1.13,0,.31-.02.36.1.36.37,0,2.04,0,4.08,0,6.13,0,.7,0,1.41,0,2.11,0,.22-.03.33-.29.32-.59-.02-1.19-.01-1.79,0-.21,0-.28-.07-.26-.27.01-.11,0-.22,0-.33,0-.59,0-.6-.57-.64-.14-.01-.19-.05-.19-.19,0-.23-.01-.46,0-.69.03-.3-.07-.45-.38-.4-.33.05-.47-.09-.41-.42.01-.07,0-.15,0-.22,0-.55,0-.56-.55-.61-.14-.01-.19-.06-.19-.2,0-.24-.02-.49,0-.73.04-.38-.21-.32-.44-.33-.24-.02-.37.02-.36.32.02,1.46,0,2.92.01,4.38,0,.26-.04.37-.33.35-.39-.03-.78-.02-1.17,0-.25.01-.33-.06-.32-.32.01-1.37,0-2.75,0-4.12Z"/>
    <path class="cls-2" d="M6.38,19.32c0-1.37,0-2.75,0-4.12,0-.25.06-.33.32-.33,1.74.01,3.48.01,5.21,0,.23,0,.34.05.31.3,0,.07,0,.15,0,.22,0,.25-.08.58.05.74.14.18.48.06.73.06.2,0,.24.08.24.26,0,.69,0,1.39,0,2.08,0,.16-.03.26-.21.24-.18-.02-.24.06-.22.23,0,.06,0,.12,0,.18,0,.25-.09.57.03.75.13.19.47.06.72.07.19,0,.27.07.27.28-.01.68-.01,1.36,0,2.04,0,.21-.08.23-.25.25-.25.03-.6-.14-.74.09-.12.18-.05.5-.02.75.03.3-.04.41-.38.41-1.9-.02-3.79-.02-5.69,0-.29,0-.36-.08-.35-.36.02-1.37,0-2.75,0-4.12ZM9.95,22.54c.51,0,1.02,0,1.53,0,.17,0,.23-.03.23-.22-.01-.69,0-1.39,0-2.08,0-.17-.04-.23-.22-.23-1.01,0-2.02,0-3.03,0-.18,0-.26.04-.26.24.01.68.01,1.36,0,2.04,0,.19.06.25.25.25.5-.01,1,0,1.49,0ZM9.61,18.74c.39,0,.78,0,1.17,0,.16,0,.21-.04.21-.2,0-.7,0-1.41,0-2.11,0-.18-.06-.23-.23-.23-.77,0-1.53,0-2.3,0-.19,0-.25.06-.25.25,0,.68.01,1.36,0,2.04,0,.22.08.26.27.26.38-.01.75,0,1.13,0Z"/>
    <path class="cls-2" d="M27.01,30.68c0-1.37,0-2.75,0-4.12,0-.23.03-.34.3-.33,1.89.01,3.79.01,5.68,0,.23,0,.34.05.3.3-.01.07,0,.15,0,.22,0,.22-.07.48.03.64.11.18.4.06.61.07.16,0,.21.07.21.22,0,.7,0,1.41,0,2.11,0,.24-.12.24-.3.24-.55,0-.55,0-.55.58,0,.15,0,.29,0,.44,0,.14-.01.25-.19.22-.22-.03-.26.08-.25.27.01.27.01.53,0,.8-.01.19.06.24.25.25.64.01.64.02.64.67q0,.56-.57.56c-.46,0-.92,0-1.38,0-.19,0-.27-.05-.25-.24,0-.07,0-.15,0-.22,0-.24.07-.54-.04-.71-.11-.18-.43-.05-.65-.06-.17,0-.2-.08-.2-.22,0-.29,0-.58,0-.87,0-.17-.06-.23-.23-.23-.42.01-.85.02-1.28,0-.24-.01-.3.07-.3.3.01,1.07,0,2.14.01,3.21,0,.31-.09.39-.39.37-.37-.03-.75-.03-1.13,0-.29.02-.34-.1-.33-.35,0-1.37,0-2.75,0-4.12ZM30.48,30.02c.45,0,.9,0,1.35,0,.21,0,.31-.03.3-.27-.02-.67-.01-1.34,0-2.01,0-.2-.04-.27-.26-.27-.92.01-1.85.01-2.77,0-.21,0-.26.06-.26.27.01.67.02,1.34,0,2.01,0,.24.08.28.3.28.45-.01.9,0,1.35,0Z"/>
    <path class="cls-2" d="M43.72,19.36c0,1.37,0,2.75,0,4.12,0,.25-.05.34-.32.32-.39-.02-.78-.02-1.17,0-.27.01-.37-.05-.37-.35.02-1.04,0-2.09.01-3.14,0-.23-.06-.31-.3-.31-.97.01-1.94.01-2.92,0-.23,0-.28.07-.28.29.01,1.06,0,2.11.01,3.17,0,.25-.05.34-.32.33-.42-.02-.85-.01-1.28,0-.18,0-.25-.03-.25-.24,0-2.81,0-5.61,0-8.42,0-.21.07-.27.27-.26.4.02.8.02,1.2,0,.28-.02.37.07.37.36-.02,1.06,0,2.11-.01,3.17,0,.25.04.36.33.35.95-.02,1.9-.02,2.84,0,.29,0,.33-.09.33-.35-.01-1.07,0-2.14-.01-3.21,0-.25.06-.34.32-.32.4.02.8.02,1.2,0,.27-.02.32.08.32.33-.01,1.39,0,2.77,0,4.16Z"/>
    <path class="cls-2" d="M21.18,32.59c-.5,0-1,0-1.49,0-.21,0-.27.06-.26.27.02.24,0,.49,0,.73.01.19-.05.28-.25.24-.23-.04-.29.06-.27.28.02.28,0,.56,0,.84,0,.16-.05.21-.21.2-.47,0-.95,0-1.42,0-.18,0-.26-.06-.25-.26.01-.21.01-.41,0-.62-.02-.27-.03-.52.37-.47.14.02.15-.09.15-.19,0-.26,0-.51,0-.77,0-.16,0-.3.22-.26.21.03.24-.09.23-.26,0-.23,0-.46,0-.69,0-.21-.03-.42.3-.38.14.02.14-.1.14-.2,0-.22,0-.44,0-.66,0-.21-.03-.43.3-.38.14.02.14-.1.14-.2,0-.17,0-.34,0-.51-.01-.29-.06-.59.39-.58.12,0,.16-.1.16-.23-.01-.27,0-.53,0-.8,0-.14.02-.24.19-.22.22.03.28-.08.25-.28,0-.01,0-.02,0-.04.03-.3-.14-.7.07-.87.17-.15.56-.05.85-.05.47,0,.95,0,1.42,0,.19,0,.26.05.25.24-.02.21,0,.41,0,.62-.01.23,0,.41.31.37.14-.02.15.09.15.19,0,.26,0,.51,0,.77,0,.2.04.32.28.32.23,0,.34.12.31.37-.02.2,0,.41,0,.62-.01.19.03.31.26.28.18-.02.19.1.19.23,0,.19,0,.39,0,.58,0,.22-.07.49.32.44.15-.02.11.13.12.22,0,.29,0,.58,0,.87,0,.14.02.25.19.22.22-.03.27.08.26.27-.01.18,0,.36,0,.55-.01.24-.03.47.34.42.12-.01.17.1.17.23,0,.27,0,.53,0,.8,0,.21-.1.3-.31.3-.47,0-.95,0-1.42,0-.16,0-.22-.05-.21-.2,0-.24,0-.49,0-.73,0-.22.05-.46-.31-.39-.1.02-.12-.06-.12-.14,0-.05,0-.1,0-.15-.02-.31.14-.74-.07-.9-.19-.16-.6-.05-.92-.05-.25,0-.51,0-.77,0ZM21.18,31.26q.88,0,.87-.88s0-.05,0-.07c.03-.19-.03-.3-.25-.27-.18.03-.19-.08-.19-.22,0-.27,0-.53,0-.8,0-.09.04-.18-.11-.22-.54-.14-.76.01-.76.55,0,.17,0,.34,0,.51,0,.11-.02.2-.16.18-.3-.05-.29.13-.29.34,0,.88,0,.88.88.88Z"/>
    <path class="cls-2" d="M30.58,14.88c.61,0,1.21,0,1.82,0,.22,0,.31.05.3.28-.01.27,0,.54,0,.8-.01.2.06.25.25.24.3-.01.61,0,.91,0,.2,0,.25.06.24.25-.02.33.1.74-.06.95-.15.19-.59.04-.91.06-.06,0-.12,0-.18,0-.33-.01-.74.13-.96-.06-.22-.19-.06-.61-.07-.93,0-.18-.04-.26-.24-.25-.74.01-1.48,0-2.22,0-.19,0-.27.04-.25.24.02.23-.02.46,0,.69.03.27-.08.35-.33.31-.38-.07-.5.09-.45.45.09.59-.26,1.16-.12,1.74.12.49.11.97.12,1.46,0,.21.17.13.27.13.49.02.49.01.49.48q0,.84.84.84c.53,0,1.07,0,1.6,0,.21,0,.27-.06.26-.27-.02-.27,0-.53,0-.8,0-.19.08-.25.26-.25.57,0,1.14,0,1.71,0,.16,0,.22.06.21.21,0,.01,0,.02,0,.04,0,.35.11.8-.06,1.02-.16.21-.64.07-.98.05-.28,0-.38.06-.36.35.02.29.13.66-.05.84-.18.18-.56.05-.85.05-1.01,0-2.02,0-3.02,0-.22,0-.32-.04-.31-.3,0-.31.15-.72-.07-.9-.19-.15-.58-.07-.88-.05-.36.03-.54-.06-.48-.46.03-.17,0-.34,0-.51.02-.21-.05-.32-.27-.33-.12,0-.19-.07-.18-.21.06-.64-.14-1.27-.08-1.91.05-.5.09-1.01.08-1.51,0-.14.06-.21.19-.19.26.04.25-.12.26-.3.02-.31-.15-.72.08-.9.19-.15.59-.07.89-.04.38.04.49-.08.47-.47-.03-.85,0-.85.83-.85.43,0,.85,0,1.28,0Z"/>
    <path class="cls-2" d="M36.37,30.04c0-1.15,0-2.31,0-3.46,0-.26.04-.37.33-.35.4.03.8.02,1.2,0,.25-.01.33.06.33.32-.01,1.04,0,2.09-.01,3.13,0,.28.08.34.35.35.3,0,.29-.14.29-.36,0-.29-.12-.65.05-.84.19-.21.55-.08.84-.08.26,0,.34-.1.33-.35-.01-.3-.1-.7.05-.88.16-.19.57-.06.87-.06.2,0,.29-.05.27-.26-.02-.19.01-.39,0-.58-.03-.29.05-.41.37-.4.62.03,1.24.01,1.86,0,.18,0,.26.04.25.24-.02.31.1.71-.05.92-.16.23-.58.08-.89.08-.24,0-.29.08-.27.29.02.23,0,.46,0,.69,0,.24-.1.34-.35.34-.79.01-.82.02-.77.82.03.45.18.89.15,1.36-.02.24-.07.31-.31.3-.73-.02-1.46,0-2.19-.01-.23,0-.34.04-.31.29.02.18,0,.36,0,.55.01.29.05.58-.4.49-.12-.02-.14.06-.14.16,0,.06,0,.12,0,.18q0,.89-.88.89c-.23,0-.46-.01-.69,0-.23.02-.29-.07-.28-.29,0-1.17,0-2.33,0-3.5Z"/>
    <path class="cls-2" d="M34.02,34.27c.61-.03.63-.02.65.56q.04.71-.69.77c-.41.03-.82.07-1.23.11-.13.01-.26.04-.25-.15,0-.24-.05-.47-.13-.71-.08-.24-.02-.43.29-.41.48.04.91-.21,1.36-.17Z"/>
    <path class="cls-2" d="M45.79,37.17c.61,0,1.21.19,1.82.28.18.03.15.11.16.24,0,.32-.16.59-.19.9-.02.18-.16.1-.25.09-.53-.06-1.06-.12-1.58-.2-.2-.03-.42-.06-.29-.4.09-.23.08-.5.09-.75.01-.16.06-.23.25-.16Z"/>
    <path class="cls-2" d="M45.72,34.79c.04.1-.07.12-.16.14-.42.13-.82.33-1.26.37-.08,0-.17.04-.24.07-.38.17-.46.15-.56-.24-.07-.27-.25-.58-.17-.8.09-.26.5-.14.74-.27.35-.18.75-.24,1.12-.35.2-.06.29,0,.33.19.06.28.13.56.2.89Z"/>
    <path class="cls-2" d="M41.56,33.47q-.71.03-.75-.64c-.04-.58-.04-.58.54-.61.48-.03.97-.06,1.45-.12.18-.02.22.06.23.19.03.3.04.61.06.91.01.18-.11.18-.23.19-.45.03-.9.06-1.29.08Z"/>
    <path class="cls-2" d="M37.64,35.29c.98.01.97.01.98.96,0,.33-.09.46-.43.4-.42-.07-.84-.14-1.26-.11-.13,0-.17-.05-.16-.18,0-.06,0-.12,0-.18.02-.29-.11-.66.07-.84.18-.18.55-.03.79-.05Z"/>
  </g>
</svg>