<?xml version="1.0" encoding="utf-8"?>
<!-- Generator: Adobe Illustrator 26.3.1, SVG Export Plug-In . SVG Version: 6.00 Build 0)  -->
<svg version="1.1" id="_x3C_Layer_x3E_" xmlns="http://www.w3.org/2000/svg" fill="#FFF" xmlns:xlink="http://www.w3.org/1999/xlink" x="0px"
	 y="0px" viewBox="0 0 218.1 162.7" style="enable-background:new 0 0 218.1 162.7;" xml:space="preserve">
<g>
	<path d="M123.8,2.1c4.5,0,8.6,0,13,0c0,0.9,0.1,1.7,0.1,2.6c0,38.3,0,76.6,0,114.9c0,2.9-0.2,5.9-0.6,8.8c-0.8,5.2-3.3,8.1-8.2,8.4
		c-5.1,0.4-10.4,0.5-15.5,0c-5.2-0.5-7.8-3.6-8.4-9.1c-0.3-2.4-0.5-4.9-0.5-7.4c0-38.6,0-77.3,0-115.9c0-0.7,0-1.4,0-2.3
		c4.7,0,9.2,0,14,0c0,1,0,2,0,3c0,37.3,0,74.7,0,112c0,1.1,0,2.3,0.1,3.4c0,2.2,1.2,3,3.1,3c1.9,0,2.8-1,2.8-3c0-1.2,0-2.5,0-3.7
		c0-37.1,0-74.2,0-111.3C123.8,4.5,123.8,3.5,123.8,2.1z"/>
	<path d="M61.4,120.8c0,2.5-0.2,4.9-0.5,7.3c-0.6,5.2-3.3,8.4-8.2,8.7c-5.1,0.4-10.4,0.5-15.5,0c-5.2-0.5-7.7-3.6-8.4-9.2
		c-0.2-1.8-0.4-3.6-0.4-5.4c0-35.4,0-70.9,0-106.3c0-1.8,0.2-3.6,0.4-5.4c0.7-5.9,3.7-9,9.8-9.4c4.7-0.3,9.4-0.1,14.1,0.3
		c4.6,0.4,7.2,3.3,8,8.1c0.3,1.8,0.5,3.6,0.5,5.4c0,13.1,0,26.2,0,39.6c-4.4,0-8.5,0-12.9,0c0-1.1,0-2.1,0-3c0-11,0-22,0-33
		c0-1.6,0-3.2-2-3.7c-2.5-0.6-3.9,0.4-4.1,3.1c-0.1,0.8,0,1.6,0,2.5c0,32.4,0,64.8,0,97.2c0,0.9,0,1.8,0.1,2.7
		c0.1,2.1,1.1,3.1,3.1,3.1c2.1,0,2.9-1.1,2.9-3.2c0-13.1,0-20.4,0-33.6c0-1,0,0.8,0-0.3c4.4,0,8.6,0,12.9,0"/>
	<path d="M100.8,136.4c-4.8,0-9.3,0-14,0c-0.4-6-0.8-11.9-1.1-18c-2.6,0-5.2,0-7.9,0c-0.3,5.9-0.6,11.8-1,17.9c-4.1,0-8.2,0-12.5,0
		C67.2,91.6,70.1,46.9,73,2.1c6.4,0,12.7,0,19.1,0C95,46.9,97.9,91.5,100.8,136.4z M81.8,22.5c-1,24.3-2.1,57.3-3,81.6
		c2.2,0,4.1,0,6.1,0C83.8,79.7,82.9,46.8,81.8,22.5z"/>
	<path d="M15.1,122.6c3.7,0,6.9,0,10.3,0c0,4.6,0,9.1,0,13.7c-8,0-15.9,0-24.1,0c0-44.7,0-89.4,0-134.2c4.6,0,9,0,13.8,0
		C15.1,42.2,15.1,82.3,15.1,122.6z"/>
</g>
<g>
	<rect x="0.9" y="147.2" width="136.1" height="13.9"/>
</g>
<g>
	<g>
		<path d="M154.2,18l-4.6-13.5l0.1,10.7V18h-0.9V2.3h1l4.5,13.5l-0.1-10.7V2.3h0.9V18H154.2z"/>
		<path d="M160.3,18.1h-0.8c-1.8,0-2.8-0.9-2.8-2.6V4.7c0-1.7,0.9-2.5,2.8-2.5h0.8c1.8,0,2.8,0.9,2.8,2.5v10.8
			C163.1,17.2,162.2,18.1,160.3,18.1z M160.3,3h-0.8c-1.2,0-1.9,0.6-1.9,1.7v10.9c0,1.1,0.6,1.7,1.9,1.7h0.8c1.2,0,1.9-0.6,1.9-1.7
			V4.7C162.2,3.6,161.6,3,160.3,3z"/>
		<path d="M170.6,12.7V18h-0.9v-5.2c0-1.3-0.7-2-2.1-2h-1.9V18h-0.9V2.3h3.1c1.8,0,2.7,0.9,2.7,2.6v3.1c0,1.5-0.7,2.2-1.7,2.5
			C169.9,10.6,170.6,11.3,170.6,12.7z M167.8,3.1h-2.1V10h1.9c1.4,0,2.1-0.7,2.1-2V4.8C169.6,3.7,169,3.1,167.8,3.1z"/>
		<path d="M173.2,4.3l0.1,10.4V18h-0.9V2.3h1.2l3.4,14.1l3.4-14.1h1.2V18h-0.9v-3.3l0.1-10.3L177.3,18h-0.8L173.2,4.3z"/>
		<path d="M189.6,18h-0.9l-0.6-3.3h-4l-0.6,3.3h-0.9l3-15.8h1L189.6,18z M184.3,13.8h3.6l-1.8-10L184.3,13.8z"/>
		<path d="M196.2,18l-4.6-13.5l0.1,10.7V18h-0.9V2.3h1l4.5,13.5l-0.1-10.7V2.3h0.9V18H196.2z"/>
		<path d="M207,12.5v3c0,1.7-0.9,2.6-2.8,2.6H201V2.3h3.2c1.8,0,2.7,0.9,2.7,2.6v2.7c0,1.5-0.6,2.2-1.7,2.5
			C206.3,10.3,207,11,207,12.5z M204.2,3.1H202v6.5h1.9c1.4,0,2.2-0.6,2.2-1.9V4.8C206,3.7,205.4,3.1,204.2,3.1z M202,17.1h2.3
			c1.2,0,1.8-0.6,1.8-1.7v-3.1c0-1.3-0.8-2-2.2-2H202V17.1z"/>
		<path d="M209.1,18h-1v-1.8h1V18z"/>
		<path d="M149.8,25.9v14.9h3.7v0.8h-4.6V25.9H149.8z"/>
		<path d="M159.2,25.9v0.8h-3.8v6.5h3.7V34h-3.7v6.8h3.9v0.8h-4.8V25.9H159.2z"/>
		<path d="M162.9,41.7L160,25.9h0.9l2.4,14.1l2.5-14.1h0.9l-2.9,15.8H162.9z"/>
		<path d="M172.7,25.9v0.8h-3.8v6.5h3.7V34h-3.7v6.8h3.9v0.8h-4.8V25.9H172.7z"/>
		<path d="M179.6,41.6L175,28.1l0.1,10.7v2.8h-0.9V25.9h1l4.5,13.5l-0.1-10.7v-2.8h0.9v15.7H179.6z"/>
		<path d="M184.1,41.6V26.7h-2.7v-0.8h6.4v0.8H185v14.9H184.1z"/>
		<path d="M193.8,33.2v-7.3h0.9v15.7h-0.9V34h-4.3v7.6h-0.9V25.9h0.9v7.3H193.8z"/>
		<path d="M202.9,41.6H202l-0.6-3.3h-4l-0.6,3.3H196l3-15.8h1L202.9,41.6z M197.6,37.4h3.6l-1.8-10L197.6,37.4z"/>
		<path d="M205.1,25.9v14.9h3.7v0.8h-4.6V25.9H205.1z"/>
		<path d="M155.7,58.8v3.4c0,2.1-1.1,3.1-3.3,3.1h-0.7c-2.2,0-3.3-1-3.3-3.1V51.5c0-2.1,1.1-3.1,3.3-3.1h0.7c2.2,0,3.2,1,3.2,3v3h-2
			v-3c0-0.9-0.4-1.3-1.3-1.3h-0.5c-0.9,0-1.3,0.4-1.3,1.3v10.9c0,0.9,0.4,1.3,1.3,1.3h0.6c0.9,0,1.3-0.4,1.3-1.3v-3.5H155.7z"/>
		<path d="M163,48.6v1.8h-3.5v5.5h3.4v1.7h-3.4v5.9h3.6v1.8h-5.6V48.6H163z"/>
		<path d="M166.6,52.2v13h-1.9V48.6h2.8l2.9,12v-12h1.9v16.7h-2.5L166.6,52.2z"/>
		<path d="M176.2,65.2V50.3h-2.6v-1.8h7.3v1.8h-2.6v14.9H176.2z"/>
		<path d="M187.6,48.6v1.8h-3.5v5.5h3.4v1.7h-3.4v5.9h3.6v1.8H182V48.6H187.6z"/>
		<path d="M196.4,59.6v5.6h-2v-5.5c0-1-0.5-1.5-1.5-1.5h-1.5v7h-2V48.6h3.8c2.2,0,3.3,1,3.3,3.1v3.1c0,1.5-0.6,2.2-1.6,2.6
			C195.9,57.7,196.4,58.3,196.4,59.6z M193,50.3h-1.7v6.2h1.5c1,0,1.5-0.5,1.5-1.4v-3.6C194.3,50.7,193.9,50.3,193,50.3z"/>
		<path d="M153.9,72.2v1.8h-3.4v5.6h3.3v1.7h-3.3v7.6h-2V72.2H153.9z"/>
		<path d="M159.5,89h-0.8c-2.2,0-3.3-1-3.3-3.1V75.1c0-2.1,1.1-3.1,3.3-3.1h0.8c2.2,0,3.3,1,3.3,3.1v10.8
			C162.8,88,161.7,89,159.5,89z M159.5,73.8h-0.6c-0.9,0-1.3,0.4-1.3,1.3V86c0,0.9,0.4,1.3,1.3,1.3h0.6c0.9,0,1.3-0.4,1.3-1.3V75
			C160.8,74.2,160.4,73.8,159.5,73.8z"/>
		<path d="M171.7,83.2v5.6h-2v-5.5c0-1-0.5-1.5-1.5-1.5h-1.5v7h-2V72.2h3.8c2.2,0,3.3,1,3.3,3.1v3.1c0,1.5-0.6,2.2-1.6,2.6
			C171.3,81.3,171.7,81.9,171.7,83.2z M168.4,73.9h-1.7v6.2h1.5c1,0,1.5-0.5,1.5-1.4v-3.6C169.7,74.3,169.3,73.9,168.4,73.9z"/>
		<path d="M154,112.5l-0.4-2.8h-3.3l-0.4,2.8H148l2.7-16.7h2.6l2.7,16.7H154z M150.6,108h2.7l-1.4-9.2L150.6,108z"/>
		<path d="M157.4,95.8h3.3c2.6,0,3.9,1.2,3.9,3.7v9.3c0,2.5-1.3,3.7-3.9,3.7h-3.3V95.8z M159.4,110.7h1.2c1.4,0,2-0.6,2-1.9v-9.3
			c0-1.3-0.6-1.9-2-1.9h-1.2V110.7z"/>
		<path d="M168.5,112.5l-2.8-16.7h2l1.9,12.7l1.9-12.7h2l-2.8,16.7H168.5z"/>
		<path d="M179.6,112.5l-0.4-2.8H176l-0.4,2.8h-1.9l2.7-16.7h2.6l2.7,16.7H179.6z M176.2,108h2.7l-1.4-9.2L176.2,108z"/>
		<path d="M184.9,99.4v13H183V95.8h2.8l2.9,12v-12h1.9v16.7h-2.5L184.9,99.4z"/>
		<path d="M199.7,106.1v3.4c0,2.1-1.1,3.1-3.3,3.1h-0.7c-2.2,0-3.3-1-3.3-3.1V98.8c0-2.1,1.1-3.1,3.3-3.1h0.7c2.2,0,3.2,1,3.2,3v3
			h-2v-3c0-0.9-0.4-1.3-1.3-1.3h-0.5c-0.9,0-1.3,0.4-1.3,1.3v10.9c0,0.9,0.4,1.3,1.3,1.3h0.6c0.9,0,1.3-0.4,1.3-1.3v-3.5H199.7z"/>
		<path d="M207,95.8v1.8h-3.5v5.5h3.4v1.7h-3.4v5.9h3.6v1.8h-5.6V95.8H207z"/>
		<path d="M208.7,95.8h3.3c2.6,0,3.9,1.2,3.9,3.7v9.3c0,2.5-1.3,3.7-3.9,3.7h-3.3V95.8z M210.8,110.7h1.2c1.4,0,2-0.6,2-1.9v-9.3
			c0-1.3-0.6-1.9-2-1.9h-1.2V110.7z"/>
		<path d="M155.7,133.1c0,2.1-1.1,3.1-3.3,3.1h-0.6c-2.2,0-3.3-1-3.3-3.1v-13.7h2v13.8c0,0.9,0.4,1.3,1.3,1.3h0.5
			c0.9,0,1.3-0.4,1.3-1.3v-13.8h2V133.1z"/>
		<path d="M164.6,130.5v5.6h-2v-5.5c0-1-0.5-1.5-1.5-1.5h-1.5v7h-2v-16.7h3.8c2.2,0,3.3,1,3.3,3.1v3.1c0,1.5-0.6,2.2-1.6,2.6
			C164.1,128.5,164.6,129.2,164.6,130.5z M161.2,121.2h-1.7v6.2h1.5c1,0,1.5-0.5,1.5-1.4v-3.6C162.6,121.6,162.2,121.2,161.2,121.2z
			"/>
		<path d="M173.5,130.2v2.8c0,2.1-1.1,3.1-3.3,3.1h-3.7v-16.7h3.7c2.2,0,3.3,1,3.3,3.1v2.5c0,1.5-0.5,2.2-1.5,2.6
			C172.9,127.9,173.5,128.7,173.5,130.2z M170.1,121.1h-1.6v5.6h1.5c1,0,1.5-0.5,1.5-1.4v-2.9C171.5,121.6,171,121.1,170.1,121.1z
			 M168.5,134.4h1.7c0.9,0,1.3-0.4,1.3-1.3v-3.3c0-1-0.5-1.4-1.5-1.4h-1.5V134.4z"/>
		<path d="M180.6,136.1l-0.4-2.8h-3.3l-0.4,2.8h-1.9l2.7-16.7h2.6l2.7,16.7H180.6z M177.2,131.6h2.7l-1.4-9.2L177.2,131.6z"/>
		<path d="M185.9,123v13H184v-16.7h2.8l2.9,12v-12h1.9v16.7h-2.5L185.9,123z"/>
		<path d="M195.5,136.1h-2v-16.7h2V136.1z"/>
		<path d="M204.5,130.7v2.4c0,2.1-1.1,3.1-3.3,3.1h-0.6c-2.2,0-3.2-1-3.2-3v-3.5h2v3.6c0,0.9,0.4,1.3,1.3,1.3h0.4
			c0.9,0,1.3-0.4,1.3-1.3v-2.5c0-0.8-0.3-1.2-0.9-1.6l-2.5-1.7c-1.3-0.9-1.7-1.7-1.7-3.1v-2c0-2.1,1.1-3.1,3.3-3.1h0.5
			c2.2,0,3.2,1,3.2,3v3h-2v-3.1c0-0.9-0.4-1.3-1.3-1.3h-0.4c-0.9,0-1.3,0.4-1.3,1.3v2.1c0,0.8,0.3,1.2,0.9,1.6l2.4,1.7
			C204,128.5,204.5,129.3,204.5,130.7z"/>
		<path d="M217,119.4v16.7h-2v-13.8l-2.4,13.8h-2.1l-2.4-13.8v13.8h-1.9v-16.7h3.2l2.2,13.1l2.2-13.1H217z"/>
	</g>
</g>
</svg>
