<svg width="30" height="30" viewBox="0 0 30 30" fill="none" xmlns="http://www.w3.org/2000/svg">
<path d="M25 2.5H5C3.61929 2.5 2.5 3.61929 2.5 5V25C2.5 26.3807 3.61929 27.5 5 27.5H25C26.3807 27.5 27.5 26.3807 27.5 25V5C27.5 3.61929 26.3807 2.5 25 2.5Z" fill="#FF2551" stroke="#FF2551" stroke-width="2"/>
<path fill-rule="evenodd" clip-rule="evenodd" d="M14.25 21.8333H12.9167C12.5834 21.8333 12.4167 22.2499 12.6667 22.4999L14.75 24.5833C14.9167 24.7499 15.1667 24.7499 15.25 24.5833L17.3334 22.4999C17.5834 22.2499 17.3334 21.8333 17.0834 21.8333H15.75V14.2499C16 14.4999 16.1667 14.8333 16.4167 15.0833C17.0834 15.7499 17.9167 16.3333 18.75 16.6666C19.4167 16.9166 20.1667 17.1666 20.9167 17.2499V18.5833C20.9167 18.9166 21.3334 19.0833 21.5834 18.8333L23.6667 16.7499C23.8334 16.5833 23.8334 16.3333 23.6667 16.2499L21.5834 14.1666C21.3334 13.9166 20.9167 14.1666 20.9167 14.4166V15.6666C20.4167 15.6666 19.8334 15.4999 19.3334 15.2499C18.6667 14.9166 18 14.4999 17.4167 13.9999C16.8334 13.4999 16.4167 12.8333 16.1667 12.0833C15.8334 11.3333 15.6667 10.5833 15.6667 9.74992V6.08325C15.6667 5.66659 15.3334 5.33325 14.9167 5.33325C14.5 5.33325 14.1667 5.66659 14.1667 6.08325V21.8333H14.25Z" fill="white"/>
</svg>
