<svg width="30" height="30" viewBox="0 0 30 30" fill="none" xmlns="http://www.w3.org/2000/svg">
<g clip-path="url(#clip0_885_531)">
<path d="M15 1.66675C22.3334 1.66675 28.3334 7.66675 28.3334 15.0001C28.3334 22.3334 22.3334 28.3334 15 28.3334C7.66669 28.3334 1.66669 22.3334 1.66669 15.0001C1.66669 7.66675 7.66669 1.66675 15 1.66675Z" fill="#FF2551" stroke="#FF2551" stroke-width="2"/>
<path fill-rule="evenodd" clip-rule="evenodd" d="M12.8333 11.7501L13.9166 14.7501H11.5L12.8333 11.7501ZM14.4166 16.2501L15.4166 19.0001C15.5 19.3334 15.8333 19.5001 16.0833 19.5001C16.3333 19.5001 16.25 19.5001 16.3333 19.5001C16.75 19.3334 16.9166 18.9167 16.75 18.5834L13.5 9.66675C13.4166 9.41675 13.1666 9.16675 12.8333 9.16675C12.5 9.16675 12.25 9.33341 12.1666 9.58341L8.16664 18.5001C7.99997 18.8334 8.16664 19.3334 8.49997 19.5001C8.83331 19.6667 9.33331 19.5001 9.49997 19.1667L10.75 16.3334H14.4166V16.2501Z" fill="white"/>
<path fill-rule="evenodd" clip-rule="evenodd" d="M19.4167 9.08325C19 9.08325 18.6667 9.41659 18.6667 9.83325V18.7499C18.6667 19.1666 19 19.4999 19.4167 19.4999C19.8334 19.4999 20.1667 19.1666 20.1667 18.7499V9.83325C20.1667 9.41659 19.8334 9.08325 19.4167 9.08325Z" fill="white"/>
<path fill-rule="evenodd" clip-rule="evenodd" d="M17.0834 22.5834H15.75V20.9167C15.75 20.5001 15.4167 20.1667 15 20.1667C14.5834 20.1667 14.25 20.5001 14.25 20.9167V22.5834H12.9167C12.5834 22.5834 12.4167 23.0001 12.6667 23.2501L14.75 25.3334C14.9167 25.5001 15.1667 25.5001 15.25 25.3334L17.3334 23.2501C17.5834 23.0001 17.3334 22.5834 17.0834 22.5834Z" fill="white"/>
<path fill-rule="evenodd" clip-rule="evenodd" d="M15 8.33325C15.4167 8.33325 15.75 7.99992 15.75 7.58325V5.33325C15.75 4.91659 15.4167 4.58325 15 4.58325C14.5833 4.58325 14.25 4.91659 14.25 5.33325V7.58325C14.25 7.99992 14.5833 8.33325 15 8.33325Z" fill="white"/>
</g>
<defs>
<clipPath id="clip0_885_531">
<rect width="30" height="30" fill="white"/>
</clipPath>
</defs>
</svg>
