<svg width="31" height="31" viewBox="0 0 31 31" fill="none" xmlns="http://www.w3.org/2000/svg">
<path d="M14.7212 5.26547V0H16.2772V5.26547H14.7212ZM23.273 8.82713L22.2118 7.76439L25.8792 3.9491L27.0104 5.08964L23.273 8.82713ZM25.733 16.2772V14.7212H31V16.2772H25.733ZM14.7212 31V25.7625H16.2772V31H14.7212ZM7.78462 8.77734L3.9491 5.11921L5.11921 4.01757L8.85514 7.72549L7.78462 8.77734ZM25.8715 27.0478L22.2118 23.2325L23.2652 22.2102L26.9809 25.8606L25.8715 27.0478ZM0 16.2772V14.7212H5.26547V16.2772H0ZM5.08809 27.0493L4.01757 25.8792L7.68659 22.2118L8.24675 22.7533L8.83491 23.3041L5.08809 27.0493ZM15.5086 23.2792C13.3488 23.2792 11.5107 22.5235 9.99413 21.0121C8.47756 19.5007 7.71927 17.6657 7.71927 15.507C7.71927 13.3483 8.47496 11.5097 9.98635 9.99102C11.4977 8.47237 13.3328 7.71512 15.4914 7.71927C17.6501 7.72342 19.4883 8.47911 21.0059 9.98635C22.5235 11.4936 23.2812 13.3286 23.2792 15.4914C23.2771 17.6543 22.5214 19.4924 21.0121 21.0059C19.5028 22.5193 17.6693 23.2771 15.5086 23.2792Z" fill="white"/>
</svg>
