<?xml version="1.0" encoding="UTF-8"?>
<svg xmlns="http://www.w3.org/2000/svg" version="1.1" viewBox="0 0 31 31">
  <defs>
    <style>
      .cls-1 {
        fill: #ff2551;
      }
    </style>
  </defs>
  <!-- Generator: Adobe Illustrator 28.7.1, SVG Export Plug-In . SVG Version: 1.2.0 Build 142)  -->
  <g>
    <g id="Layer_1">
      <path class="cls-1" d="M14.7,5.3V0h1.6v5.3h-1.6ZM23.3,8.8l-1.1-1.1,3.7-3.8,1.1,1.1-3.7,3.7ZM25.7,16.3v-1.6h5.3v1.6h-5.3ZM14.7,31v-5.2h1.6v5.2h-1.6ZM7.8,8.8l-3.8-3.7,1.2-1.1,3.7,3.7-1.1,1.1ZM25.9,27l-3.7-3.8,1.1-1,3.7,3.7-1.1,1.2ZM0,16.3v-1.6h5.3v1.6H0ZM5.1,27l-1.1-1.2,3.7-3.7.6.5.6.6-3.7,3.7ZM15.5,23.3c-2.2,0-4-.8-5.5-2.3s-2.3-3.3-2.3-5.5.8-4,2.3-5.5c1.5-1.5,3.3-2.3,5.5-2.3,2.2,0,4,.8,5.5,2.3,1.5,1.5,2.3,3.3,2.3,5.5,0,2.2-.8,4-2.3,5.5-1.5,1.5-3.3,2.3-5.5,2.3Z"/>
    </g>
  </g>
</svg>