<svg width="31" height="24" viewBox="0 0 31 24" fill="none" xmlns="http://www.w3.org/2000/svg">
<path d="M12.7382 0.484563C15.8311 -0.575521 19.2411 0.128553 21.7 2.35362C23.653 4.1146 24.7831 6.62256 24.8733 9.25132L24.8775 9.58826L25.0057 9.59303C28.2466 9.76308 30.8436 12.7097 30.9944 16.3795L31 16.7148C31 20.5403 28.3439 23.6634 25.0043 23.8382L24.7084 23.8462H7.97123L7.65841 23.8334C3.51568 23.6586 0.166273 20.0206 0.00704545 15.4688L0 15.1255C0 10.7596 2.93091 7.16294 6.74109 6.51608L6.90173 6.49065L7.00036 6.20298C7.93459 3.62826 9.89745 1.58438 12.3958 0.61171L12.7396 0.484563H12.7382Z" fill="white"/>
</svg>
