<?xml version="1.0" encoding="UTF-8"?>
<svg xmlns="http://www.w3.org/2000/svg" version="1.1" viewBox="0 0 31 24">
  <defs>
    <style>
      .cls-1 {
        fill: #ff2551;
      }
    </style>
  </defs>
  <!-- Generator: Adobe Illustrator 28.7.1, SVG Export Plug-In . SVG Version: 1.2.0 Build 142)  -->
  <g>
    <g id="Layer_1">
      <path class="cls-1" d="M12.7.5c3.1-1.1,6.5-.4,9,1.9,2,1.8,3.1,4.3,3.2,6.9v.3s.1,0,.1,0c3.2.2,5.8,3.1,6,6.8v.3c0,3.8-2.7,6.9-6,7.1h-.3s-16.7,0-16.7,0h-.3C3.5,23.7.2,20,0,15.5v-.3c0-4.4,2.9-8,6.7-8.6h.2s0-.3,0-.3c.9-2.6,2.9-4.6,5.4-5.6h.3c0-.1,0-.1,0-.1Z"/>
    </g>
  </g>
</svg>