<svg width="30" height="30" viewBox="0 0 30 30" fill="none" xmlns="http://www.w3.org/2000/svg">
<g clip-path="url(#clip0_885_528)">
<path d="M26.5833 7.33329L15.8333 1.16663C15.3333 0.833293 14.6666 0.833293 14.1666 1.16663L3.41665 7.33329C2.91665 7.66663 2.58331 8.16663 2.58331 8.74996V21.0833C2.58331 21.6666 2.91665 22.25 3.41665 22.5L14.1666 28.6666C14.6666 29 15.3333 29 15.8333 28.6666L26.5833 22.5C27.0833 22.1666 27.4166 21.6666 27.4166 21.0833V8.74996C27.4166 8.16663 27.0833 7.58329 26.5833 7.33329Z" fill="#FF2551" stroke="#FF2551" stroke-width="2"/>
<path fill-rule="evenodd" clip-rule="evenodd" d="M8.33333 10H18.3333C18.75 10 19.1667 10.3333 19.1667 10.8333V13.75L21.75 11.1667C22 10.9167 22.5 11.1667 22.5 11.5V18.6667C22.5 19 22.0833 19.25 21.75 19L19.1667 16.4167V19.3333C19.1667 19.75 18.75 20.1667 18.3333 20.1667H8.33333C7.83333 20.1667 7.5 19.75 7.5 19.3333V11C7.5 10.5 7.83333 10.1667 8.33333 10.1667V10ZM9.16667 18.3333H17.5V11.6667H9.16667V18.3333Z" fill="white"/>
</g>
<defs>
<clipPath id="clip0_885_528">
<rect width="30" height="30" fill="white"/>
</clipPath>
</defs>
</svg>
