<svg width="30" height="30" viewBox="0 0 30 30" fill="none" xmlns="http://www.w3.org/2000/svg">
<g clip-path="url(#clip0_885_558)">
<path d="M15 1.66675C22.3334 1.66675 28.3334 7.66675 28.3334 15.0001C28.3334 22.3334 22.3334 28.3334 15 28.3334C7.66669 28.3334 1.66669 22.3334 1.66669 15.0001C1.66669 7.66675 7.66669 1.66675 15 1.66675Z" fill="#FF2551" stroke="#FF2551" stroke-width="2"/>
<path fill-rule="evenodd" clip-rule="evenodd" d="M12.0833 19.4166H17.9166V14.6666H12.0833V19.4166ZM13.3333 12.4166C13.3333 11.9999 13.5 11.4999 13.8333 11.2499C14.1666 10.9166 14.5833 10.7499 15 10.7499C15.4166 10.7499 15.9166 10.9166 16.1666 11.2499C16.5 11.5833 16.6666 11.9999 16.6666 12.4166V13.2499H13.25V12.4166H13.3333ZM18.6666 13.2499H18.1666V12.4166C18.1666 11.9999 18.0833 11.5833 17.9166 11.1666C17.75 10.7499 17.5 10.4166 17.25 10.1666C17 9.91659 16.5833 9.66659 16.25 9.49992C16.0833 9.49992 15.9166 9.41659 15.75 9.33325C15.75 9.33325 15.75 9.33325 15.75 9.24992V5.58325C15.75 5.16658 15.4166 4.83325 15 4.83325C14.5833 4.83325 14.25 5.16658 14.25 5.58325V9.24992C14.25 9.24992 14.25 9.24992 14.25 9.33325C14.0833 9.33325 13.9166 9.41659 13.75 9.49992C13.3333 9.66659 13 9.91659 12.75 10.1666C12.5 10.4166 12.25 10.8333 12.0833 11.1666C11.9166 11.5833 11.8333 11.9999 11.8333 12.4166V13.2499H11.3333C10.9166 13.2499 10.5833 13.5833 10.5833 13.9999V20.1666C10.5833 20.5833 10.9166 20.9166 11.3333 20.9166H14.25V22.4166H12.9166C12.5833 22.4166 12.4166 22.8333 12.6666 22.9999L14.6666 24.9999C14.8333 25.1666 15 25.1666 15.1666 24.9999L17.1666 22.9999C17.4166 22.7499 17.1666 22.3333 16.9166 22.3333H15.5833V20.8333H18.5C18.9166 20.8333 19.25 20.4999 19.25 20.0833V13.9166C19.25 13.4999 18.9166 13.1666 18.5 13.1666L18.6666 13.2499Z" fill="white"/>
</g>
<defs>
<clipPath id="clip0_885_558">
<rect width="30" height="30" fill="white"/>
</clipPath>
</defs>
</svg>
