<?xml version="1.0" encoding="UTF-8"?>
<svg id="Layer_1" xmlns="http://www.w3.org/2000/svg" viewBox="0 0 106 76">
  <defs>
    <style>
      .cls-1 {
        fill: #ee3155;
      }
    </style>
  </defs>
  <path class="cls-1" d="M52.68,42.05c-10.64,0-21.29,0-31.93.01-2.94,0-6.28-.03-6.4-3.81-.13-4.09,3.29-4.32,6.45-4.32,21.45,0,42.91-.01,64.36.02,2.45,0,5.17-.22,6.25,2.86,1.04,2.96-1.04,5.16-5.3,5.2-11.14.09-22.28.03-33.43.03Z"/>
  <path class="cls-1" d="M53.38,18.22c10.64,0,21.28,0,31.91,0,2.94,0,6.22.02,6.26,3.89.04,3.75-3.07,4.16-6.11,4.16-21.61-.02-43.22-.01-64.83,0-3,0-6.2-.33-6.27-4.02-.08-3.79,3.11-4.04,6.12-4.03,10.97.04,21.94.01,32.91.01Z"/>
  <path class="cls-1" d="M52.96,57.77c-10.96,0-21.93-.03-32.89.02-2.91.01-5.75-.47-5.74-3.92,0-3.43,2.85-3.97,5.75-3.97,21.93.02,43.85.02,65.78,0,2.92,0,5.71.54,5.71,3.98,0,3.47-2.79,3.93-5.72,3.92-10.96-.06-21.93-.02-32.89-.03Z"/>
</svg>