<?xml version="1.0" encoding="UTF-8"?>
<svg xmlns="http://www.w3.org/2000/svg" version="1.1" viewBox="0 0 369.9 47.5">
  <defs>
    <style>
      .cls-1, .cls-2 {
        fill: #ee3255;
      }

      .cls-2, .cls-3 {
        opacity: .3;
      }

      .cls-4, .cls-5 {
        fill: none;
      }

      .cls-6 {
        fill: #ee3456;
      }

      .cls-3 {
        fill: #fff;
      }

      .cls-5 {
        stroke: #ee3456;
        stroke-miterlimit: 10;
      }
    </style>
  </defs>
  <!-- Generator: Adobe Illustrator 28.7.1, SVG Export Plug-In . SVG Version: 1.2.0 Build 142)  -->
  <g>
    <g id="Layer_1">
      <circle class="cls-3" cx="96.3" cy="23.1" r="13.1"/>
      <rect class="cls-1" x="17.5" y="14.6" width="18" height="17"/>
      <circle class="cls-1" cx="26.5" cy="31.6" r="3"/>
      <circle class="cls-1" cx="32.5" cy="31.6" r="3"/>
      <circle class="cls-1" cx="20.5" cy="31.6" r="3"/>
      <g>
        <rect class="cls-4" x="41.5" y="25.1" width="33.1" height="18.9"/>
        <path class="cls-6" d="M42.7,25.6h2.9c1.6,0,2.5.9,2.5,2.1s-.6,1.6-1.3,1.8c.6.2,1.6.8,1.6,2.1s-1.3,2.4-2.7,2.4h-3v-8.4ZM45.4,29.2c1.5,0,2-.5,2-1.5s-.6-1.5-1.8-1.5h-2.3v3h2.1ZM43.3,33.4h2.4c1.1,0,2-.6,2-1.8s-.7-1.8-2.4-1.8h-2v3.6Z"/>
        <path class="cls-6" d="M50.2,31.1c0,1.5.8,2.5,1.9,2.5s1.5-.6,1.7-1.1h.6c-.3.8-.9,1.7-2.4,1.7s-2.5-1.6-2.5-3.1.9-3.2,2.6-3.2,2.4,1.6,2.4,2.7,0,.3,0,.5h-4.4ZM54,30.5c0-1.2-.7-2.1-1.8-2.1s-1.8.9-1.9,2.1h3.8Z"/>
        <path class="cls-6" d="M56.1,29.5c0-.5,0-1,0-1.5h.6c0,.2,0,1,0,1.1.3-.6.8-1.3,2-1.3s2,.6,2,2.3v3.9h-.6v-3.8c0-1.1-.4-1.8-1.5-1.8s-1.9,1.2-1.9,2.5v3.1h-.6v-4.5Z"/>
        <path class="cls-6" d="M67.1,32.2c-.3,1.1-1,1.9-2.3,1.9s-2.6-1.1-2.6-3.1.9-3.2,2.6-3.2,2.1,1.1,2.3,1.9h-.6c-.2-.7-.6-1.4-1.7-1.4s-2,1.1-2,2.6.7,2.6,1.9,2.6,1.4-.4,1.7-1.3h.6Z"/>
        <path class="cls-6" d="M69.1,25.1v3.9c.3-.6.9-1.2,2-1.2s2,.4,2,2.3v3.8h-.6v-3.7c0-1.2-.5-1.9-1.5-1.9s-1.9.7-1.9,2.2v3.3h-.6v-8.8h.6Z"/>
      </g>
      <g>
        <rect class="cls-4" x="115.7" y="25.1" width="37.6" height="18.9"/>
        <path class="cls-6" d="M116.9,31.7c.3,1.1,1,1.8,2.4,1.8s2.1-.8,2.1-1.7-.4-1.5-2.3-2c-1.8-.4-2.5-1-2.5-2.2s.8-2.1,2.6-2.1,2.6,1.1,2.7,2.1h-.7c-.2-.9-.8-1.5-2.1-1.5s-1.9.6-1.9,1.5.6,1.3,2.1,1.7c2.4.6,2.7,1.5,2.7,2.5s-.9,2.3-2.8,2.3-2.9-1.2-3-2.4h.7Z"/>
        <path class="cls-6" d="M123.7,25.1h.6v1.2h-.6v-1.2ZM123.7,28h.6v6h-.6v-6Z"/>
        <path class="cls-6" d="M125.4,28h1.1v-1.9h.6v1.9h1.4v.6h-1.4v3.9c0,.7.1,1.1.7,1.1s.4,0,.6,0v.5c-.2,0-.5.1-.7.1-.8,0-1.2-.4-1.2-1.3v-4.2h-1.1v-.6Z"/>
        <path class="cls-6" d="M129,28h1.1v-1.9h.6v1.9h1.4v.6h-1.4v3.9c0,.7.1,1.1.7,1.1s.4,0,.6,0v.5c-.2,0-.5.1-.7.1-.8,0-1.2-.4-1.2-1.3v-4.2h-1.1v-.6Z"/>
        <path class="cls-6" d="M133.3,25.1h.6v1.2h-.6v-1.2ZM133.3,28h.6v6h-.6v-6Z"/>
        <path class="cls-6" d="M135.9,29.5c0-.5,0-1,0-1.5h.6c0,.2,0,1,0,1.1.3-.6.8-1.3,2-1.3s2,.6,2,2.3v3.9h-.6v-3.8c0-1.1-.4-1.8-1.5-1.8s-1.9,1.2-1.9,2.5v3.1h-.6v-4.5Z"/>
        <path class="cls-6" d="M147,33.6c0,1.9-.9,2.9-2.6,2.9s-2.2-.9-2.4-1.8h.6c.2.8.9,1.2,1.8,1.2,1.6,0,2-1,2-2.5v-.6c-.3.8-.9,1.2-2,1.2s-2.5-1.1-2.5-3,1.2-3.1,2.6-3.1,1.8.6,1.9,1.1c0-.3,0-.8,0-.9h.6c0,.2,0,1.2,0,1.7v3.8ZM142.6,31c0,1.4.8,2.5,1.9,2.5s2-1,2-2.6-.5-2.5-1.9-2.5-1.9,1.2-1.9,2.6Z"/>
      </g>
      <circle class="cls-6" cx="96.3" cy="23.1" r="3.4"/>
      <circle class="cls-2" cx="171.9" cy="23.1" r="13.1"/>
      <g>
        <rect class="cls-4" x="191.2" y="25.1" width="75.1" height="18.9"/>
        <path class="cls-6" d="M192.5,31.7c.3,1.1,1,1.8,2.4,1.8s2.1-.8,2.1-1.7-.4-1.5-2.3-2c-1.8-.4-2.5-1-2.5-2.2s.8-2.1,2.6-2.1,2.6,1.1,2.7,2.1h-.7c-.2-.9-.8-1.5-2.1-1.5s-1.9.6-1.9,1.5.6,1.3,2.1,1.7c2.4.6,2.7,1.5,2.7,2.5s-.9,2.3-2.8,2.3-2.9-1.2-3-2.4h.7Z"/>
        <path class="cls-6" d="M204.2,31c0,1.7-.9,3.2-2.7,3.2s-2.6-1.3-2.6-3.1.9-3.1,2.7-3.1,2.7,1.2,2.7,3.1ZM199.5,31c0,1.4.8,2.6,2,2.6s2-1.1,2-2.6-.7-2.6-2.1-2.6-2,1.1-2,2.6Z"/>
        <path class="cls-6" d="M210.1,32.2c-.3,1.1-1,1.9-2.3,1.9s-2.6-1.1-2.6-3.1.9-3.2,2.6-3.2,2.1,1.1,2.3,1.9h-.6c-.2-.7-.6-1.4-1.7-1.4s-2,1.1-2,2.6.7,2.6,1.9,2.6,1.4-.4,1.7-1.3h.6Z"/>
        <path class="cls-6" d="M211.7,25.1h.6v1.2h-.6v-1.2ZM211.7,28h.6v6h-.6v-6Z"/>
        <path class="cls-6" d="M218.3,32.8c0,.5,0,.9,0,1.1h-.6c0-.1,0-.4-.1-.9-.2.4-.7,1.1-2,1.1s-2-.9-2-1.8c0-1.3,1-1.9,2.8-1.9h1.1v-.6c0-.6-.2-1.4-1.5-1.4s-1.4.6-1.5,1.1h-.6c0-.7.5-1.7,2.1-1.7s2.1.6,2.1,1.9v3.1ZM217.7,30.9h-1.2c-1.3,0-2.2.3-2.2,1.4s.5,1.3,1.4,1.3c1.7,0,2-1.1,2-2.4v-.2Z"/>
        <path class="cls-6" d="M220.3,34v-8.8h.6v8.8h-.6Z"/>
        <path class="cls-6" d="M222.8,25.1h.6v1.2h-.6v-1.2ZM222.8,28h.6v6h-.6v-6Z"/>
        <path class="cls-6" d="M225.3,32.3c.2.8.8,1.2,1.7,1.2s1.5-.5,1.5-1.2-.3-1-1.6-1.3c-1.5-.4-1.9-.8-1.9-1.6s.6-1.6,2-1.6,2,.8,2.1,1.7h-.6c-.1-.5-.5-1.1-1.5-1.1s-1.3.5-1.3,1,.3.8,1.5,1.1c1.7.4,2.1,1,2.1,1.9s-.9,1.8-2.1,1.8-2.1-.7-2.3-1.8h.6Z"/>
        <path class="cls-6" d="M230.7,25.1h.6v1.2h-.6v-1.2ZM230.7,28h.6v6h-.6v-6Z"/>
        <path class="cls-6" d="M233.2,29.5c0-.5,0-1,0-1.5h.6c0,.2,0,1,0,1.1.3-.6.8-1.3,2-1.3s2,.6,2,2.3v3.9h-.6v-3.8c0-1.1-.4-1.8-1.5-1.8s-1.9,1.2-1.9,2.5v3.1h-.6v-4.5Z"/>
        <path class="cls-6" d="M244.4,33.6c0,1.9-.9,2.9-2.6,2.9s-2.2-.9-2.4-1.8h.6c.2.8.9,1.2,1.8,1.2,1.6,0,2-1,2-2.5v-.6c-.3.8-.9,1.2-2,1.2s-2.5-1.1-2.5-3,1.2-3.1,2.6-3.1,1.8.6,1.9,1.1c0-.3,0-.8,0-.9h.6c0,.2,0,1.2,0,1.7v3.8ZM240,31c0,1.4.8,2.5,1.9,2.5s2-1,2-2.6-.5-2.5-1.9-2.5-1.9,1.2-1.9,2.6Z"/>
      </g>
      <circle class="cls-6" cx="171.9" cy="23.1" r="3.4"/>
      <circle class="cls-3" cx="264" cy="23.1" r="13.1"/>
      <g>
        <rect class="cls-4" x="283.4" y="25.1" width="75.1" height="18.9"/>
        <path class="cls-6" d="M284.5,25.6h3c1.5,0,2.6.9,2.6,2.3s-1,2.4-2.7,2.4h-2.3v3.7h-.7v-8.4ZM285.2,29.7h2.3c1.4,0,1.9-.7,1.9-1.8s-.7-1.8-1.9-1.8h-2.4v3.5Z"/>
        <path class="cls-6" d="M295.5,32.8c0,.5,0,.9,0,1.1h-.6c0-.1,0-.4-.1-.9-.2.4-.7,1.1-2,1.1s-2-.9-2-1.8c0-1.3,1-1.9,2.8-1.9h1.1v-.6c0-.6-.2-1.4-1.5-1.4s-1.4.6-1.5,1.1h-.6c0-.7.5-1.7,2.1-1.7s2.1.6,2.1,1.9v3.1ZM294.9,30.9h-1.2c-1.3,0-2.2.3-2.2,1.4s.5,1.3,1.4,1.3c1.7,0,2-1.1,2-2.4v-.2Z"/>
        <path class="cls-6" d="M297.4,32.3c.2.8.8,1.2,1.7,1.2s1.5-.5,1.5-1.2-.3-1-1.6-1.3c-1.5-.4-1.9-.8-1.9-1.6s.6-1.6,2-1.6,2,.8,2.1,1.7h-.6c-.1-.5-.5-1.1-1.5-1.1s-1.3.5-1.3,1,.3.8,1.5,1.1c1.7.4,2.1,1,2.1,1.9s-.9,1.8-2.1,1.8-2.1-.7-2.3-1.8h.6Z"/>
        <path class="cls-6" d="M302.9,32.3c.2.8.8,1.2,1.7,1.2s1.5-.5,1.5-1.2-.3-1-1.6-1.3c-1.5-.4-1.9-.8-1.9-1.6s.6-1.6,2-1.6,2,.8,2.1,1.7h-.6c-.1-.5-.5-1.1-1.5-1.1s-1.3.5-1.3,1,.3.8,1.5,1.1c1.7.4,2.1,1,2.1,1.9s-.9,1.8-2.1,1.8-2.1-.7-2.3-1.8h.6Z"/>
        <path class="cls-6" d="M308.2,25.1h.6v1.2h-.6v-1.2ZM308.2,28h.6v6h-.6v-6Z"/>
        <path class="cls-6" d="M310.8,29.5c0-.5,0-1,0-1.5h.6c0,.2,0,1,0,1.1.3-.6.8-1.3,2-1.3s2,.6,2,2.3v3.9h-.6v-3.8c0-1.1-.4-1.8-1.5-1.8s-1.9,1.2-1.9,2.5v3.1h-.6v-4.5Z"/>
        <path class="cls-6" d="M321.9,33.6c0,1.9-.9,2.9-2.6,2.9s-2.2-.9-2.4-1.8h.6c.2.8.9,1.2,1.8,1.2,1.6,0,2-1,2-2.5v-.6c-.3.8-.9,1.2-2,1.2s-2.5-1.1-2.5-3,1.2-3.1,2.6-3.1,1.8.6,1.9,1.1c0-.3,0-.8,0-.9h.6c0,.2,0,1.2,0,1.7v3.8ZM317.5,31c0,1.4.8,2.5,1.9,2.5s2-1,2-2.6-.5-2.5-1.9-2.5-1.9,1.2-1.9,2.6Z"/>
        <path class="cls-6" d="M327,25.1h.6v3.9c.3-.6.9-1.2,2.1-1.2s2.5,1.2,2.5,3-.9,3.3-2.6,3.3-1.6-.4-1.9-1.1c0,.4,0,.8,0,.9h-.6c0-.7,0-1.4,0-2.1v-6.8ZM331.5,30.9c0-1.5-.7-2.5-1.9-2.5s-2,1-2,2.6.5,2.6,2,2.6,2-1,2-2.7Z"/>
        <path class="cls-6" d="M333.6,28c1.2,3.4,1.7,4.8,1.9,5.5h0c.2-.7.7-2.1,1.9-5.5h.6l-2.3,6.3c-.6,1.8-1.1,2.2-2.1,2.2s-.4,0-.6,0v-.6c.2,0,.3,0,.5,0,.9,0,1.1-.4,1.6-1.7l-2.3-6.3h.7Z"/>
      </g>
      <circle class="cls-5" cx="264" cy="23.1" r="3.4"/>
    </g>
  </g>
</svg>