<svg width="30" height="34" viewBox="0 0 30 34" fill="none" xmlns="http://www.w3.org/2000/svg">
<path d="M26.5833 8.41667L15.8333 2.25C15.3333 1.91667 14.6666 1.91667 14.1666 2.25L3.41665 8.41667C2.91665 8.75 2.58331 9.25 2.58331 9.83333V22.1667C2.58331 22.75 2.91665 23.3333 3.41665 23.5833L14.1666 29.9167C14.6666 30.25 15.3333 30.25 15.8333 29.9167L26.5833 23.75C27.0833 23.4167 27.4166 22.9167 27.4166 22.3333V9.91667C27.4166 9.33333 27.0833 8.75 26.5833 8.41667Z" fill="#FF2551" stroke="#FF2551" stroke-width="2"/>
<path d="M14.9688 24.9375C13.6563 24.9375 12.4375 24.6563 11.2188 24.1875C10 23.7188 8.96875 22.9687 8.03125 22.0312L9.25 20.8125C10 21.5625 10.8437 22.125 11.875 22.5938C12.8125 22.9688 13.8437 23.1563 14.9688 23.1563C16.0938 23.1563 17.0313 22.9688 17.9688 22.5938C18.9063 22.2187 19.75 21.6563 20.5938 20.9063L21.8125 22.125C20.875 23.0625 19.8437 23.7187 18.625 24.2812C17.4062 24.75 16.1875 25.0313 14.875 25.0313L14.9688 24.9375ZM14.9688 21.375C14.125 21.375 13.375 21.1875 12.625 20.9063C11.875 20.625 11.2187 20.1562 10.6562 19.5937L11.875 18.375C12.3437 18.8438 12.8125 19.125 13.2812 19.3125C13.8437 19.5 14.4062 19.5937 14.9688 19.5937C15.5313 19.5937 16.0937 19.5 16.6562 19.3125C17.2187 19.125 17.6875 18.75 18.0625 18.375L19.2813 19.5937C18.7188 20.1562 18.0625 20.625 17.3125 20.9063C16.5625 21.1875 15.8125 21.375 14.9688 21.375ZM8.78125 10.7812V11.625H21.1563V10.7812H8.78125ZM11.5 13.4062L11.7813 14.25H18.1562L18.4375 13.4062H11.5ZM11.7813 16.125C11.4063 16.125 11.0313 16.0313 10.75 15.75C10.4687 15.5625 10.1875 15.1875 10.0938 14.8125L9.625 13.4062H8.78125C8.3125 13.4062 7.84375 13.2188 7.5625 12.8438C7.1875 12.4688 7 12.0938 7 11.625V9H22.9375V11.625C22.9375 12.0938 22.75 12.5625 22.375 12.8438C22 13.2188 21.625 13.4062 21.1563 13.4062H20.3125L19.75 14.9062C19.6563 15.2812 19.375 15.5625 19.0937 15.75C18.8125 15.9375 18.4375 16.0312 18.0625 16.0312H11.7813V16.125Z" fill="white"/>
</svg>
