<svg width="30" height="30" viewBox="0 0 30 30" fill="none" xmlns="http://www.w3.org/2000/svg">
<g clip-path="url(#clip0_885_546)">
<path d="M26.5833 7.33329L15.8333 1.16663C15.3333 0.833293 14.6666 0.833293 14.1666 1.16663L3.41665 7.33329C2.91665 7.66663 2.58331 8.16663 2.58331 8.74996V21.0833C2.58331 21.6666 2.91665 22.25 3.41665 22.5L14.1666 28.8333C14.6666 29.1666 15.3333 29.1666 15.8333 28.8333L26.5833 22.6666C27.0833 22.3333 27.4166 21.8333 27.4166 21.25V8.83329C27.4166 8.24996 27.0833 7.66663 26.5833 7.33329Z" fill="#FF2551" stroke="#FF2551" stroke-width="2"/>
<path d="M7.5 11.25V8.83333C7.5 8.5 7.66667 8.16667 7.91667 7.91667C8.16667 7.66667 8.5 7.5 8.83333 7.5H11.25V8.83333H8.83333V11.25H7.5ZM11.25 22.5H8.83333C8.5 22.5 8.16667 22.3333 7.91667 22.0833C7.66667 21.8333 7.5 21.5 7.5 21.1667V18.75H8.83333V21.1667H11.25V22.5ZM18.75 22.5V21.1667H21.1667V18.75H22.5V21.1667C22.5 21.5 22.3333 21.8333 22.0833 22.0833C21.8333 22.3333 21.5 22.5 21.1667 22.5H18.75ZM21.1667 11.25V8.83333H18.75V7.5H21.1667C21.5 7.5 21.8333 7.66667 22.0833 7.91667C22.3333 8.16667 22.5 8.5 22.5 8.83333V11.25H21.1667ZM16.0833 12.8333C15.6667 12.8333 15.3333 12.6667 15.0833 12.4167C14.8333 12.1667 14.6667 11.8333 14.6667 11.4167C14.6667 11 14.8333 10.6667 15.0833 10.4167C15.3333 10.1667 15.6667 10 16.0833 10C16.5 10 16.8333 10.1667 17.0833 10.4167C17.3333 10.6667 17.5 11 17.5 11.4167C17.5 11.8333 17.3333 12.1667 17.0833 12.4167C16.8333 12.6667 16.5 12.8333 16.0833 12.8333ZM15.4167 19.3333H12.5833L13.4167 15.25L11.8333 16V18.4167H10.5V15.1667L13.5 13.9167C13.9167 13.75 14.25 13.5833 14.4167 13.5833C14.5833 13.5 14.75 13.5 15 13.5C15.25 13.5 15.5 13.5833 15.6667 13.6667C15.8333 13.75 16.0833 13.9167 16.1667 14.1667L16.9167 15.4167C17.25 15.9167 17.6667 16.4167 18.1667 16.75C18.6667 17.0833 19.3333 17.25 20 17.25V18.5833C19.0833 18.5833 18.4167 18.4167 17.75 18.0833C17.1667 17.75 16.5833 17.1667 16.0833 16.5L15.4167 19.3333Z" fill="white"/>
</g>
<defs>
<clipPath id="clip0_885_546">
<rect width="30" height="30" fill="white"/>
</clipPath>
</defs>
</svg>
