<?xml version="1.0" encoding="UTF-8"?>
<svg xmlns="http://www.w3.org/2000/svg" version="1.1" viewBox="0 0 50 50">
  <defs>
    <style>
      .cls-1 {
        fill: #fff;
      }

      .cls-2 {
        fill: none;
        stroke: #fff;
        stroke-miterlimit: 10;
        stroke-width: 2px;
      }
    </style>
  </defs>
  <!-- Generator: Adobe Illustrator 28.7.1, SVG Export Plug-In . SVG Version: 1.2.0 Build 142)  -->
  <g>
    <g id="Layer_1">
      <path class="cls-2" d="M48.7,25c0,13-10.6,23.6-23.7,23.6S1.3,38.1,1.3,25c0-13.1,10.6-23.6,23.8-23.6,12.9,0,23.5,10.6,23.5,23.6Z"/>
      <path class="cls-1" d="M30.5,24.3c2.6-1.4,4-4,3.6-6.8-.4-3-2.3-5.1-5.3-5.8-2.7-.6-5.5-.4-8.2-.1-2.1.2-3.7,1.6-4.5,3.7-.4.9-.5,2,.6,2.5,1.1.5,1.9,0,2.4-1.2.5-1.4,1.5-1.8,2.9-1.8.9,0,1.8,0,2.7,0s1.7,0,2.5,0c2,0,3.3.9,3.7,2.5.4,1.7-.4,3.3-2.1,4.2-1.3.7-2.7,1.4-4.1,2-.8.4-1.3.9-1.3,1.8,0,1,0,2,0,3,0,1,.6,1.6,1.5,1.6s1.7-.6,1.6-1.6c-.3-2,.8-2.8,2.4-3.4s1-.5,1.5-.7Z"/>
      <path class="cls-1" d="M25,37.5c1.4,0,2.5-1,2.4-2.4s-1.1-2.4-2.5-2.4c-1.3,0-2.3,1-2.4,2.4,0,1.4,1,2.4,2.4,2.4Z"/>
    </g>
  </g>
</svg>