<svg width="31" height="29" viewBox="0 0 31 29" fill="none" xmlns="http://www.w3.org/2000/svg">
<path d="M8.04658 21.0076C8.16737 21.0472 8.27903 21.1098 8.37519 21.1918C8.47134 21.2739 8.55011 21.3738 8.60698 21.4858C8.66385 21.5978 8.6977 21.7197 8.70661 21.8446C8.71552 21.9695 8.69931 22.0949 8.65891 22.2136L7.69004 25.0715C7.65354 25.1946 7.59219 25.3091 7.50963 25.4082C7.42708 25.5074 7.32502 25.5892 7.20958 25.6486C7.09414 25.7081 6.96768 25.7441 6.83777 25.7544C6.70786 25.7647 6.57718 25.7491 6.45353 25.7086C6.32989 25.668 6.21584 25.6034 6.1182 25.5185C6.02055 25.4336 5.94133 25.3303 5.88527 25.2146C5.82921 25.0989 5.79746 24.9733 5.79192 24.8453C5.78639 24.7172 5.80718 24.5894 5.85306 24.4695L6.82193 21.6115C6.90289 21.3718 7.07739 21.1735 7.30705 21.0602C7.53671 20.9469 7.80273 20.928 8.04658 21.0076ZM13.8598 21.0076C13.9806 21.0472 14.0923 21.1098 14.1884 21.1918C14.2846 21.2739 14.3633 21.3738 14.4202 21.4858C14.4771 21.5978 14.5109 21.7197 14.5198 21.8446C14.5288 21.9695 14.5125 22.0949 14.4721 22.2136L12.5344 27.9295C12.4979 28.0525 12.4365 28.167 12.354 28.2662C12.2714 28.3653 12.1694 28.4471 12.0539 28.5066C11.9385 28.566 11.812 28.602 11.6821 28.6123C11.5522 28.6226 11.4215 28.607 11.2979 28.5665C11.1743 28.526 11.0602 28.4613 10.9626 28.3765C10.8649 28.2916 10.7857 28.1882 10.7296 28.0725C10.6736 27.9568 10.6418 27.8312 10.6363 27.7032C10.6307 27.5752 10.6515 27.4474 10.6974 27.3274L12.6352 21.6115C12.7161 21.3718 12.8906 21.1735 13.1203 21.0602C13.3499 20.9469 13.616 20.928 13.8598 21.0076ZM19.673 21.0076C19.7938 21.0472 19.9055 21.1098 20.0016 21.1918C20.0978 21.2739 20.1766 21.3738 20.2334 21.4858C20.2903 21.5978 20.3242 21.7197 20.3331 21.8446C20.342 21.9695 20.3258 22.0949 20.2854 22.2136L19.3165 25.0715C19.28 25.1946 19.2186 25.3091 19.1361 25.4082C19.0535 25.5074 18.9515 25.5892 18.836 25.6486C18.7206 25.7081 18.5941 25.7441 18.4642 25.7544C18.3343 25.7647 18.2036 25.7491 18.08 25.7086C17.9564 25.668 17.8423 25.6034 17.7447 25.5185C17.647 25.4336 17.5678 25.3303 17.5117 25.2146C17.4557 25.0989 17.4239 24.9733 17.4184 24.8453C17.4129 24.7172 17.4336 24.5894 17.4795 24.4695L18.4484 21.6115C18.5294 21.3718 18.7039 21.1735 18.9335 21.0602C19.1632 20.9469 19.4292 20.928 19.673 21.0076ZM25.4863 21.0076C25.6071 21.0472 25.7187 21.1098 25.8149 21.1918C25.911 21.2739 25.9898 21.3738 26.0467 21.4858C26.1035 21.5978 26.1374 21.7197 26.1463 21.8446C26.1552 21.9695 26.139 22.0949 26.0986 22.2136L24.1609 27.9295C24.1244 28.0525 24.063 28.167 23.9805 28.2662C23.8979 28.3653 23.7958 28.4471 23.6804 28.5066C23.565 28.566 23.4385 28.602 23.3086 28.6123C23.1787 28.6226 23.048 28.607 22.9244 28.5665C22.8007 28.526 22.6867 28.4613 22.589 28.3765C22.4914 28.2916 22.4122 28.1882 22.3561 28.0725C22.3 27.9568 22.2683 27.8312 22.2627 27.7032C22.2572 27.5752 22.278 27.4474 22.3239 27.3274L24.2616 21.6115C24.3426 21.3718 24.5171 21.1735 24.7467 21.0602C24.9764 20.9469 25.2424 20.928 25.4863 21.0076ZM25.9649 7.67432C25.5625 5.67979 24.5217 3.86414 22.9947 2.49284C21.4677 1.12154 19.5346 0.266522 17.4781 0.0527916C15.4215 -0.160939 13.3493 0.277832 11.5645 1.30495C9.77967 2.33207 8.37585 3.89366 7.55827 5.76141C6.6414 5.65756 5.71262 5.7388 4.8288 6.00016C3.94497 6.26152 3.1247 6.6975 2.4182 7.28141C1.71171 7.86532 1.13385 8.58486 0.720013 9.396C0.306177 10.2071 0.06507 11.0928 0.0114542 11.9987C-0.0421616 12.9047 0.092842 13.8118 0.408199 14.6647C0.723557 15.5175 1.21263 16.2981 1.84548 16.9587C2.47833 17.6192 3.24163 18.1458 4.08866 18.5062C4.93569 18.8666 5.84862 19.0532 6.77155 19.0546H25.1801C26.6549 19.0563 28.0753 18.5067 29.1534 17.5172C30.2316 16.5277 30.8869 15.1723 30.9867 13.7254C31.0864 12.2786 30.6232 10.8486 29.6908 9.72506C28.7584 8.60151 27.4265 7.86843 25.9649 7.67432Z" fill="white"/>
</svg>
