<?xml version="1.0" encoding="UTF-8"?>
<svg xmlns="http://www.w3.org/2000/svg" version="1.1" viewBox="0 0 31 29">
  <defs>
    <style>
      .cls-1 {
        fill: #ff2551;
      }
    </style>
  </defs>
  <!-- Generator: Adobe Illustrator 28.7.1, SVG Export Plug-In . SVG Version: 1.2.0 Build 142)  -->
  <g>
    <g id="Layer_1">
      <path class="cls-1" d="M8,21c.1,0,.2.1.3.2,0,0,.2.2.2.3,0,.1,0,.2,0,.4,0,.1,0,.3,0,.4l-1,2.9c0,.1,0,.2-.2.3,0,0-.2.2-.3.2-.1,0-.2,0-.4.1s-.3,0-.4,0c-.1,0-.2-.1-.3-.2,0,0-.2-.2-.2-.3,0-.1,0-.2,0-.4,0-.1,0-.3,0-.4l1-2.9c0-.2.3-.4.5-.6.2-.1.5-.1.7,0ZM13.9,21c.1,0,.2.1.3.2,0,0,.2.2.2.3s0,.2,0,.4c0,.1,0,.3,0,.4l-1.9,5.7c0,.1,0,.2-.2.3,0,0-.2.2-.3.2-.1,0-.2,0-.4.1-.1,0-.3,0-.4,0s-.2-.1-.3-.2c0,0-.2-.2-.2-.3,0-.1,0-.2,0-.4,0-.1,0-.3,0-.4l1.9-5.7c0-.2.3-.4.5-.6.2-.1.5-.1.7,0ZM19.7,21c.1,0,.2.1.3.2,0,0,.2.2.2.3,0,.1,0,.2,0,.4,0,.1,0,.3,0,.4l-1,2.9c0,.1,0,.2-.2.3,0,0-.2.2-.3.2-.1,0-.2,0-.4.1-.1,0-.3,0-.4,0-.1,0-.2-.1-.3-.2,0,0-.2-.2-.2-.3,0-.1,0-.2,0-.4,0-.1,0-.3,0-.4l1-2.9c0-.2.3-.4.5-.6.2-.1.5-.1.7,0ZM25.5,21c.1,0,.2.1.3.2,0,0,.2.2.2.3,0,.1,0,.2,0,.4,0,.1,0,.3,0,.4l-1.9,5.7c0,.1,0,.2-.2.3,0,0-.2.2-.3.2-.1,0-.2,0-.4.1-.1,0-.3,0-.4,0-.1,0-.2-.1-.3-.2,0,0-.2-.2-.2-.3s0-.2,0-.4c0-.1,0-.3,0-.4l1.9-5.7c0-.2.3-.4.5-.6.2-.1.5-.1.7,0ZM26,7.7c-.4-2-1.4-3.8-3-5.2-1.5-1.4-3.5-2.2-5.5-2.4-2.1-.2-4.1.2-5.9,1.3-1.8,1-3.2,2.6-4,4.5-.9-.1-1.8,0-2.7.2-.9.3-1.7.7-2.4,1.3-.7.6-1.3,1.3-1.7,2.1-.4.8-.7,1.7-.7,2.6,0,.9,0,1.8.4,2.7.3.9.8,1.6,1.4,2.3.6.7,1.4,1.2,2.2,1.5.8.4,1.8.5,2.7.5h18.4c1.5,0,2.9-.5,4-1.5,1.1-1,1.7-2.3,1.8-3.8,0-1.4-.4-2.9-1.3-4-.9-1.1-2.3-1.9-3.7-2.1Z"/>
    </g>
  </g>
</svg>