<svg width="30" height="30" viewBox="0 0 30 30" fill="none" xmlns="http://www.w3.org/2000/svg">
<g clip-path="url(#clip0_885_521)">
<path d="M26.547 7.37099L15.8333 1.18545C15.3176 0.887727 14.6823 0.887727 14.1666 1.18545L3.45296 7.37099C2.9373 7.66872 2.61963 8.21893 2.61963 8.81441V21.1854C2.61963 21.7809 2.9373 22.3311 3.45296 22.6288L14.1666 28.8144C14.6823 29.1121 15.3176 29.1121 15.8333 28.8144L26.547 22.6288C27.0626 22.3311 27.3803 21.7809 27.3803 21.1854V8.81441C27.3803 8.21893 27.0626 7.66871 26.547 7.37099Z" fill="#FF2551" stroke="#FF2551" stroke-width="2"/>
<mask id="mask0_885_521" style="mask-type:alpha" maskUnits="userSpaceOnUse" x="7" y="6" width="16" height="18">
<path fill-rule="evenodd" clip-rule="evenodd" d="M7.50006 6.66675H22.5V23.3426H7.50006V6.66675Z" fill="white"/>
</mask>
<g mask="url(#mask0_885_521)">
<path fill-rule="evenodd" clip-rule="evenodd" d="M21.6642 17.0617H14.9609C14.4992 17.0617 14.1259 17.4359 14.1259 17.8975V18.32C14.1259 18.7809 14.4992 19.1559 14.9609 19.1559H16.6534C16.5759 19.2125 16.4951 19.2667 16.4126 19.3184C15.7609 19.725 15.0084 19.9409 14.2351 19.9409C13.6784 19.9409 13.1392 19.8317 12.6326 19.6175C12.1417 19.41 11.7017 19.1134 11.3234 18.735C10.9442 18.3559 10.6467 17.915 10.4401 17.4259C10.2251 16.9184 10.1176 16.3792 10.1176 15.8234C10.1176 14.66 10.6042 13.5684 11.4434 12.7942L12.5209 13.8717C12.8476 14.1975 13.3767 14.1975 13.7026 13.8717L14.7417 12.8325C15.0676 12.5059 15.0676 11.9767 14.7417 11.6517L10.0017 6.91088C9.67505 6.58505 9.14672 6.58505 8.82005 6.91088L7.78173 7.95005C7.45506 8.27671 7.45506 8.80586 7.78173 9.1317L9.59339 10.9434C9.09172 11.4209 8.66339 11.975 8.33006 12.5809C8.06256 13.0675 7.85673 13.5867 7.71673 14.1234C7.57339 14.6759 7.50006 15.2475 7.50006 15.8234C7.50006 16.7317 7.67839 17.6134 8.03006 18.4442C8.36922 19.2467 8.85422 19.9667 9.47255 20.585C9.71422 20.8275 9.97255 21.0484 10.2442 21.2484H8.49422C8.03339 21.2484 7.65923 21.6234 7.65923 22.0842V22.5067C7.65923 22.9684 8.03339 23.3425 8.49422 23.3425H19.3851C19.8459 23.3425 20.2209 22.9684 20.2209 22.5067V22.0842C20.2209 21.6234 19.8459 21.2484 19.3851 21.2484H18.2242C18.9842 20.69 19.6201 19.9759 20.0876 19.1559H21.6642C22.1259 19.1559 22.5001 18.7809 22.5001 18.32V17.8975C22.5001 17.4359 22.1259 17.0617 21.6642 17.0617Z" fill="white"/>
</g>
</g>
<defs>
<clipPath id="clip0_885_521">
<rect width="30" height="30" fill="white"/>
</clipPath>
</defs>
</svg>
