<svg width="30" height="30" viewBox="0 0 30 30" fill="none" xmlns="http://www.w3.org/2000/svg">
<g clip-path="url(#clip0_885_549)">
<path d="M15 1.66675C22.3334 1.66675 28.3334 7.66675 28.3334 15.0001C28.3334 22.3334 22.3334 28.3334 15 28.3334C7.66669 28.3334 1.66669 22.3334 1.66669 15.0001C1.66669 7.66675 7.66669 1.66675 15 1.66675Z" fill="#FF2551" stroke="#FF2551" stroke-width="2"/>
<path fill-rule="evenodd" clip-rule="evenodd" d="M15 24.6667C14.5833 24.6667 14.25 24.3334 14.25 23.9167V21.6667C14.25 21.2501 14.5833 20.9167 15 20.9167C15.4167 20.9167 15.75 21.2501 15.75 21.6667V23.9167C15.75 24.3334 15.4167 24.6667 15 24.6667Z" fill="white"/>
<path fill-rule="evenodd" clip-rule="evenodd" d="M14.25 22.5833H12.9167C12.5834 22.5833 12.4167 22.9999 12.6667 23.2499L14.75 25.3333C14.9167 25.4999 15.1667 25.4999 15.25 25.3333L17.3334 23.2499C17.5834 22.9999 17.3334 22.5833 17.0834 22.5833H15.75" fill="white"/>
<path fill-rule="evenodd" clip-rule="evenodd" d="M13.9167 19.4168C13.75 19.4168 13.5833 19.4168 13.4167 19.2501L9.75 16.2501C9.41667 16.0001 9.41667 15.5001 9.66667 15.2501C9.91667 14.9168 10.4167 14.9168 10.6667 15.1668L13.75 17.6668L19.25 9.41676C19.5 9.08343 19.9167 9.0001 20.25 9.2501C20.5833 9.5001 20.6667 9.91676 20.4167 10.2501L14.5 19.1668C14.4167 19.3334 14.1667 19.4168 14 19.5001C14 19.5001 14 19.5001 13.9167 19.5001V19.4168Z" fill="white"/>
<path fill-rule="evenodd" clip-rule="evenodd" d="M15 9.08325C14.5833 9.08325 14.25 8.74992 14.25 8.33325V5.33325C14.25 4.91659 14.5833 4.58325 15 4.58325C15.4167 4.58325 15.75 4.91659 15.75 5.33325V8.33325C15.75 8.74992 15.4167 9.08325 15 9.08325Z" fill="white"/>
</g>
<defs>
<clipPath id="clip0_885_549">
<rect width="30" height="30" fill="white"/>
</clipPath>
</defs>
</svg>
