<svg width="127" height="127" viewBox="0 0 127 127" fill="none" xmlns="http://www.w3.org/2000/svg">
<path d="M85.0257 78.8819C85.0043 78.8761 84.9829 78.8761 84.9634 78.8663C84.5874 78.6969 84.2972 78.7884 84.1024 79.1799C83.6524 79.1955 83.2044 79.2111 82.7817 79.2247C82.6239 79.4332 82.6453 79.628 82.7077 79.8111C82.8713 80.2961 83.0525 80.7734 83.2258 81.2565C83.368 81.6519 83.5044 82.0493 83.6524 82.4427C83.6972 82.5596 83.7888 82.659 83.8297 82.7758C83.8667 82.883 83.8628 83.0038 83.8881 83.1966C83.3719 82.8499 82.994 82.3512 82.3045 82.583C82.2265 83.0934 82.172 83.6135 82.435 84.118C82.6317 84.4978 82.7817 84.9127 83.2317 85.0881C83.3057 85.1173 83.3544 85.2069 83.4206 85.2614C83.7109 85.501 83.9524 85.8205 84.3712 85.8516C84.6225 86.0679 84.9303 86.1516 85.2614 86.2646C85.3725 86.1789 85.4816 86.0776 85.6062 86.0016C85.9354 85.801 86.2646 85.6062 86.6834 85.7543C86.8412 85.8107 87.0204 85.7952 87.1899 85.8224C87.2892 85.838 87.3866 85.877 87.5483 85.9218C87.3516 86.1068 87.1899 86.2373 87.0535 86.3912C86.925 86.5334 86.8237 86.699 86.7088 86.8509C86.4984 87.1275 86.2257 87.2639 85.8731 87.2386C85.8108 87.2347 85.7484 87.2542 85.6647 87.2659C85.5049 87.4645 85.6199 87.7236 85.5341 87.9476C85.1972 88.0957 84.8543 88.2457 84.5017 88.4015C84.4277 88.7171 84.4082 89.0015 84.7628 89.1709C84.8154 89.1963 84.8602 89.2566 84.8874 89.3112C85.0238 89.5839 85.2673 89.7066 85.5322 89.7748C85.5731 90.0962 85.6101 90.3884 85.653 90.7371C85.2829 91.2533 84.9459 91.8727 84.4024 92.4026C84.3693 92.3149 84.3362 92.2467 84.3167 92.1766C84.2095 91.789 83.9076 91.6682 83.6018 91.8961C83.5161 91.9604 83.4479 92.0461 83.3661 92.1182C83.3038 92.1747 83.2336 92.2234 83.1557 92.2876C83.0408 92.2253 82.9336 92.1688 82.7934 92.0929C82.8927 91.8961 82.9765 91.7305 83.0817 91.5202C82.9804 91.4695 82.8791 91.3741 82.8129 91.3935C82.6668 91.4364 82.5363 91.5377 82.3337 91.6526C82.3571 91.3078 82.5129 91.1013 82.6492 90.8949C82.8616 90.5735 82.8966 90.2754 82.6395 89.9579C82.5674 89.8683 82.5343 89.728 82.5246 89.6092C82.5051 89.3735 82.5187 89.1359 82.5129 88.8982C82.5031 88.4619 82.5012 88.4638 82.0843 88.3158C81.7824 88.2087 81.4922 88.0665 81.163 88.047C81.1026 88.0431 81.0363 88.0139 80.9837 87.9788C80.6994 87.786 80.3779 87.7782 80.0526 87.784C79.4994 87.7918 79.0163 87.5425 78.5157 87.3555C78.3073 87.2775 78.2235 87.1198 78.2274 86.9016C78.2294 86.7535 78.2099 86.6055 78.2021 86.4652C78.1008 86.4224 78.0229 86.3873 77.9391 86.3503C77.9391 86.2938 77.9196 86.2237 77.943 86.175C78.0112 86.0425 78.1066 85.9237 78.1748 85.7932C78.2995 85.5517 78.243 85.3374 78.0151 85.1777C77.7326 84.979 77.4541 84.7861 77.0723 84.8757C76.8502 84.9283 76.7431 85.0335 76.747 85.2751C76.7489 85.4465 76.747 85.6121 76.8736 85.7601C77.1775 86.1244 77.1755 86.5938 77.2807 87.0263C77.3216 87.1899 77.3411 87.3594 77.3664 87.5288C77.421 87.8775 77.608 88.1191 77.945 88.2359C78.2683 88.347 78.5099 88.5749 78.6423 88.871C78.7923 89.2099 79.0572 89.4047 79.3377 89.6014C79.476 89.6969 79.6182 89.7904 79.7507 89.88C79.5754 90.6261 79.6358 91.3507 79.628 92.0753C80.0273 92.3558 80.5162 92.2935 80.9448 92.5214C81.2467 93.2266 81.2117 93.9921 81.1493 94.7693C80.637 94.8901 80.7519 94.333 80.4909 94.2005C80.3234 94.1148 80.1617 94.1538 80.0039 94.2395C79.4721 94.5219 78.9209 94.7537 78.3443 94.9271C78.3034 94.9388 78.2644 94.9583 78.2255 94.9797C78.0735 95.0596 78.0696 95.2505 78.2216 95.3381C78.2761 95.3693 78.3462 95.3712 78.4047 95.3966C78.4417 95.4141 78.467 95.4511 78.5274 95.5095C78.4378 95.868 78.1534 96.1485 78.0073 96.4972C77.9605 96.6082 77.7658 96.6588 77.6528 96.727C77.3021 96.5907 76.9729 96.4679 76.9651 96.0335C76.7509 95.8348 76.7197 95.5407 76.5814 95.3031C76.521 95.1998 76.4119 95.12 76.3106 95.0479C76.2035 94.97 76.0535 94.9115 75.9659 95.0342C75.9035 95.1239 75.8685 95.3147 75.921 95.3888C76.1042 95.6401 76.1217 95.9517 76.258 96.2089C76.4412 96.5517 76.4626 96.9062 76.4684 97.2724C76.4704 97.4419 76.4684 97.6133 76.4684 97.8276C76.3671 97.9542 76.186 98.0302 75.9912 98.0224C75.6542 98.0049 75.3659 98.1451 75.0542 98.2854C74.9685 98.2269 74.877 98.1743 74.799 98.1042C74.6607 97.9815 74.5867 97.8315 74.6802 97.6464C74.762 97.4828 74.7659 97.325 74.6938 97.1497C74.6451 97.0348 74.6529 96.8965 74.6198 96.7738C74.5244 96.4056 74.4932 96.0296 74.2497 95.6965C74.0257 95.3907 73.8484 95.0284 73.7413 94.6641C73.6088 94.2161 73.5095 93.7233 73.9575 93.3571C74.1835 93.172 74.2361 92.9363 74.2205 92.6675C74.2108 92.498 74.203 92.3286 74.1932 92.1162C74.0257 92.1026 73.8816 92.0792 73.7413 92.0851C73.5718 92.0909 73.4394 92.1922 73.4335 92.3578C73.4179 92.6753 73.2387 92.9227 73.1258 93.1973C73.0303 93.433 72.9115 93.6551 72.8491 93.9122C72.6544 94.7031 71.8752 94.8843 71.2791 94.5784C71.1856 94.5297 71.096 94.4518 70.9986 94.4362C70.3558 94.3271 69.937 93.9492 69.6175 93.3999C69.4383 93.0902 69.1773 92.8292 68.926 92.5117C69.1442 92.2234 69.45 91.902 69.0838 91.4617C69.1695 91.3293 69.2474 91.1812 69.3526 91.0566C69.4695 90.9163 69.5396 90.7683 69.5279 90.5871C69.5182 90.4196 69.6058 90.3222 69.7227 90.2111C69.8532 90.0865 69.787 89.8586 69.6292 89.7806C69.5902 89.7612 69.5513 89.7397 69.5104 89.7358C69.002 89.6891 68.4916 89.6443 67.9676 89.5975C67.8449 89.841 67.8644 90.0573 67.9657 90.2871C68.1585 90.7293 68.215 91.1948 68.1507 91.6721C68.1429 91.7344 68.1137 91.7929 68.0884 91.8786C67.7767 91.9584 67.467 91.9682 67.1534 91.8552C66.7657 91.7169 66.3722 91.6526 65.9534 91.6663C65.3223 91.6896 64.7243 91.5085 64.1555 91.2416C63.8711 91.1072 63.5906 91.0449 63.2886 91.1306C63.1387 91.2708 63.1874 91.413 63.2984 91.526C63.386 91.6156 63.5107 91.6701 63.6159 91.7422C63.9315 91.9604 64.2198 92.2662 64.5684 92.3792C64.9424 92.5019 65.1217 92.7629 65.3203 93.0279C65.4976 93.2655 65.6398 93.5343 65.7723 93.8012C65.858 93.9765 65.7879 94.1382 65.6184 94.2434C65.4333 94.3583 65.2346 94.4265 65.0087 94.4206C64.6425 94.4109 64.2762 94.4148 63.91 94.4206C63.7406 94.4226 63.5711 94.4382 63.388 94.4479C63.2847 94.7109 63.2731 94.9602 63.5438 95.0654C64.1652 95.3089 64.4866 95.7784 64.6658 96.3861C64.7087 96.5283 64.8197 96.6608 64.8295 96.801C64.8723 97.44 65.2502 98.0282 65.1197 98.6925C65.108 98.7548 65.0963 98.8171 65.0788 98.9126C64.6756 99.0665 64.2918 98.9223 64.0444 98.6535C63.6451 98.223 63.1718 97.8081 63.0568 97.1887C62.9906 96.8341 62.6848 96.6764 62.5134 96.4095C62.4725 96.3472 62.2777 96.3822 62.1919 96.3744C61.7439 96.7893 61.7615 97.4322 61.3212 97.8295C60.9725 97.5685 61.1303 97.1224 60.8927 96.838C60.4641 96.7504 60.394 96.7757 60.2499 97.1127C60.2012 97.2296 60.1953 97.364 60.1466 97.4809C60.0317 97.7575 59.9206 98.038 59.7687 98.2951C59.7005 98.41 59.5505 98.5016 59.4181 98.5522C59.1804 98.6418 58.9291 98.6905 58.6389 98.7685C58.6272 98.7646 58.561 98.7529 58.5064 98.7236C58.1091 98.5133 58.0331 98.1997 58.3565 97.9114C58.6428 97.6581 58.7597 97.3776 58.7344 97.0095C58.7188 96.7952 58.7519 96.579 58.7441 96.3647C58.7324 96.0433 58.8395 95.7764 59.0558 95.5446C59.1434 95.4511 59.2116 95.3401 59.2954 95.2427C59.5914 94.9057 59.6363 94.5239 59.5057 94.0661C59.159 94.0155 58.824 93.8772 58.4577 93.8869C57.9162 93.9005 57.4799 93.5928 57.0085 93.4038C56.9228 93.3688 56.8507 93.2577 56.8078 93.1662C56.6949 92.9344 56.6072 92.6928 56.5001 92.4591C56.4085 92.2584 56.3286 92.0695 56.4747 91.8513C56.5293 91.7714 56.5293 91.6429 56.5234 91.5377C56.4942 90.9182 56.7221 90.3631 56.9461 89.804C57.0805 89.467 57.2052 89.1261 57.3299 88.7852C57.3864 88.6333 57.3299 88.4755 57.1916 88.3957C57.0708 88.3255 56.9578 88.3294 56.841 88.4346C56.6656 88.5905 56.4786 88.7307 56.2936 88.8749C55.717 89.3248 55.5767 89.5294 55.4482 90.2404C55.419 90.404 55.3605 90.4897 55.2378 90.5968C55.0683 90.7468 54.9553 90.963 54.7956 91.1832C54.3301 91.3565 53.8664 91.1364 53.3639 91.039C53.2899 90.9338 53.2158 90.7994 53.1145 90.6942C52.8866 90.4566 52.5399 90.4975 52.4347 90.7975C52.3607 91.0117 52.2049 91.1559 52.1036 91.339C51.9536 91.6098 51.7646 91.8942 51.8776 92.2623C52.086 92.4065 52.4483 92.3032 52.5847 92.7006C52.5438 92.7746 52.4951 92.9149 52.4035 93.0162C52.1581 93.2889 51.9711 93.5869 51.8153 93.9239C51.6945 94.1849 51.5484 94.4323 51.4685 94.7148C51.4393 94.8141 51.3809 94.9135 51.3127 94.9933C50.9854 95.3868 50.6504 95.7745 50.29 96.1972C50.2141 96.1212 50.0913 96.053 50.0543 95.9537C49.8848 95.5037 49.7836 95.044 50.0738 94.5979C50.2024 94.4012 50.1731 94.181 50.1634 93.9687C50.1439 93.5772 50.1809 93.1895 50.3426 92.835C50.4575 92.5837 50.4478 92.3305 50.4342 92.0773C50.4283 91.9584 50.3679 91.8338 50.3037 91.7286C50.1731 91.5085 50.0173 91.3039 49.8849 91.0858C49.6784 90.7468 49.17 90.6884 48.983 91.0273C48.7161 91.5085 48.2447 91.7383 47.8454 92.05C47.5493 92.2818 47.185 92.4298 46.8168 92.6344C46.6532 92.2448 46.6746 91.8903 46.772 91.5377C46.8227 91.3526 46.9123 91.1773 46.9668 90.9942C47.0564 90.6962 46.9805 90.5676 46.6474 90.4059C46.6104 90.3884 46.5772 90.3631 46.5227 90.328C46.5363 90.2131 46.5519 90.0884 46.5675 89.956C46.9532 89.8254 47.3369 89.6949 47.746 89.5547C47.8044 89.2216 48.0324 88.9352 47.9564 88.5379C47.5863 88.4093 47.2824 88.0762 46.7565 88.2203C46.3805 88.6917 45.9656 89.2099 45.5546 89.73C45.4883 89.8138 45.428 89.9034 45.3832 90.0008C45.3013 90.18 45.3793 90.3183 45.5877 90.3845C45.6812 90.4137 45.7786 90.4332 45.9383 90.4741C45.5916 90.552 45.3267 90.63 45.054 90.667C44.6722 90.7176 44.5611 91.0079 44.5124 91.3C44.4579 91.6351 44.4676 91.974 44.3663 92.313C44.2339 92.7532 44.491 93.0493 44.8903 93.246V94.3291C44.7345 94.4616 44.5728 94.4362 44.4813 94.3077C44.3098 94.0622 44.1618 93.807 43.8248 93.8187C43.8852 93.4954 44.1365 93.6103 44.2884 93.4447C44.2495 93.0941 44.2066 92.7026 44.1618 92.2838C43.8832 92.2428 43.6397 92.1786 43.3515 92.2838C43.2833 92.5058 43.2696 92.7318 43.3476 92.9616L43.3631 92.95C43.2541 92.9928 43.1099 92.9967 43.0768 92.8935C42.9502 92.4902 42.6755 92.1455 42.6892 91.6838C42.7008 91.2494 42.919 90.9981 43.2696 90.8442C43.48 90.7527 43.7216 90.7332 43.9514 90.6884C44.0547 90.6689 44.1598 90.667 44.302 90.6553C44.3507 90.2871 44.4735 89.9462 44.1404 89.6345C44.0663 89.5664 44.1073 89.3521 44.1306 89.2099C44.1949 88.8125 44.2806 88.4171 44.3507 88.0197C44.3663 87.9359 44.3566 87.8483 44.3507 87.7626C44.3215 87.3964 44.1073 87.2951 43.7722 87.4821C43.4586 87.6574 43.1489 87.8424 42.8898 88.0937C42.6346 88.3411 42.3249 88.4697 42.0191 88.5827C41.8632 88.5301 41.8691 88.4112 41.8749 88.31C41.8905 87.9905 41.8204 87.6671 41.947 87.3535C42.2372 86.6347 42.7982 86.2919 43.5385 86.2802C43.9125 86.2743 44.2514 86.1516 44.6118 86.1107C44.7812 86.0912 44.8728 85.9724 44.9001 85.8068C44.9098 85.7426 44.9098 85.6783 44.9118 85.614C44.9488 84.8076 44.941 84.7939 45.6715 84.4803C45.8448 84.4063 45.8585 84.266 45.95 84.1628C46.211 84.4004 46.4876 84.4121 46.7623 84.1998C47.0077 84.0089 47.2824 83.9057 47.5707 83.8881C47.6934 83.7381 47.7986 83.6037 47.9116 83.4752C48.009 83.3622 48.1122 83.2531 48.2291 83.1265C48.2291 82.7895 48.2408 82.4447 48.2252 82.1019C48.2116 81.8097 48.2544 81.5292 48.4434 81.3129C48.7025 81.0149 48.6947 80.7149 48.5135 80.3604C48.7278 80.3409 48.9167 80.3214 49.0842 80.3059C49.2342 80.1676 49.2226 80.0195 49.1797 79.8715C49.1563 79.7896 49.1018 79.7137 49.0862 79.6319C49.0453 79.404 49.0862 79.2053 49.3141 79.0825C49.4057 79.0339 49.4836 78.9598 49.579 78.8916C49.7329 79.1897 49.9745 79.2715 50.2783 79.1312C50.4108 79.0709 50.5179 79.0825 50.6445 79.1371C50.8374 79.2209 50.9991 79.1858 51.1666 79.0241C51.3185 78.8761 51.4023 78.9111 51.5913 79.0962C51.6361 79.141 51.677 79.1916 51.751 79.2715C51.6438 79.3338 51.5367 79.3806 51.449 79.4527C51.3867 79.5033 51.3107 79.589 51.3127 79.6552C51.3263 80.0098 51.1958 80.3935 51.5309 80.7266C51.6244 80.7305 51.7529 80.7227 51.8776 80.7441C52.4678 80.8493 52.8126 80.5221 53.0619 80.0604C53.136 79.9221 53.1944 79.813 53.3483 79.7468C53.5762 79.6494 53.6619 79.402 53.7846 79.2131C54.0242 78.8468 53.9171 78.5235 53.5294 78.3014C53.3814 78.2157 53.2178 78.1553 53.06 78.0871C52.8107 77.98 52.5302 77.9547 52.3081 77.7638C52.2321 77.6995 52.0665 77.7385 51.9516 77.7326C51.8562 77.9021 51.7958 78.0657 51.6867 78.1845C51.6107 78.2664 51.4666 78.2858 51.3556 78.3345C51.116 78.0969 51.0809 77.7716 50.8354 77.5768C50.6134 77.4015 50.514 77.3839 50.2998 77.5904C50.1459 77.7385 49.992 77.8846 49.8303 78.0384C49.7816 78.0053 49.7368 77.9469 49.6823 77.9391C49.6063 77.9274 49.5186 77.9372 49.4505 77.9683C49.4232 77.982 49.4115 78.0988 49.4388 78.1378C49.5323 78.28 49.5537 78.4105 49.431 78.5683C49.0726 78.5021 48.7511 78.6345 48.4278 78.8098C48.0148 79.0338 47.5824 79.2228 47.1577 79.4273C46.9629 79.5208 46.7974 79.628 46.6746 79.8306C46.5461 80.0429 46.3688 80.2688 46.1565 80.374C45.8429 80.5299 45.7552 80.7928 45.6461 81.0675C45.5176 81.3889 45.3793 81.6947 45.0481 81.8798C44.9273 81.948 44.8611 82.1097 44.7598 82.2168C44.5981 82.3882 44.4189 82.4992 44.1696 82.5655C43.8638 82.6492 43.5774 82.8187 43.3203 83.0602C42.7827 83.5648 42.2392 84.0907 41.4581 84.2251C41.3607 84.2426 41.2769 84.3712 41.1834 84.3771C41.0685 84.3829 40.936 84.3342 40.8386 84.2699C40.7899 84.2368 40.7802 84.1121 40.7919 84.0342C40.8016 83.9524 40.8795 83.8803 40.8912 83.7985C40.9399 83.4109 41.1737 83.1869 41.5321 83.0505C41.6451 82.7564 41.7444 82.4505 41.8769 82.1622C41.945 82.0123 42.0502 81.8506 42.1827 81.7649C42.506 81.5564 42.432 81.2019 42.5411 80.9175C42.5586 80.8747 42.5158 80.7792 42.4729 80.7461C42.1827 80.5357 41.9139 80.2727 41.5009 80.3331C41.347 80.3546 41.2107 80.3799 41.0938 80.4929C40.936 80.6428 40.8854 80.8123 40.9516 81.0578C41.0743 81.1181 41.2204 81.1902 41.3782 81.2662C41.3743 81.3441 41.3918 81.4162 41.3646 81.461C41.312 81.5467 41.234 81.6869 41.1678 81.685C40.8347 81.6792 40.6886 81.9207 40.4977 82.1213C40.3399 82.2869 40.2211 82.4856 39.9932 82.6005C39.7517 82.7213 39.7127 83.0135 39.6192 83.3252C39.2257 83.5648 38.7894 83.8297 38.3511 84.0946C38.1972 84.1881 38.0472 84.2329 37.868 84.1394C37.6089 84.005 37.3966 84.0888 37.1648 84.268C36.7791 84.566 36.3778 84.8426 35.9317 85.0608C35.5402 85.2536 35.2129 85.5789 34.8409 85.8575C34.7084 85.7737 34.5896 85.6861 34.4591 85.6159C34.3344 85.5497 34.1942 85.6004 34.1474 85.7406C34.1007 85.8809 34.1007 86.0445 33.8591 86.0718C33.7734 85.9257 33.6799 85.764 33.5884 85.6043C33.791 85.351 33.9624 85.1036 34.3266 85.1387C34.4377 84.827 34.5701 84.566 34.8448 84.3498C35.1214 84.1316 35.2987 83.7868 35.5188 83.4985C35.5694 83.4304 35.6064 83.3271 35.6727 83.2998C36.0895 83.1304 36.4031 82.77 36.859 82.6707C37.2622 82.583 37.5368 82.2947 37.7725 81.9908C37.8953 81.8311 37.9595 81.6051 37.9907 81.3986C38.0394 81.085 37.9712 81.0091 37.6537 80.8786C37.3128 80.7383 37.0148 80.5338 36.7635 80.2669C36.5142 80 36.5551 79.6942 36.8609 79.513C37.0284 79.4156 37.2037 79.3319 37.3771 79.2462C37.6089 79.1293 37.829 79.0338 38.1056 79.1702C38.2401 79.2364 38.4368 79.1819 38.6335 79.1819C38.7115 78.8488 38.7543 78.5566 38.5147 78.2664C38.3589 78.0794 38.3861 77.982 38.5206 77.8066C38.6257 77.6722 38.7504 77.5476 38.8381 77.4034C39.0874 76.9943 38.9004 76.6515 38.4056 76.6048C38.3452 76.5989 38.281 76.6281 38.2069 76.6437C38.1699 76.7431 38.1349 76.8405 38.094 76.9515C38.0394 76.9671 37.9771 77.008 37.9206 77.0021C37.605 76.969 37.3518 77.0781 37.0888 77.2573C36.7343 77.5008 36.3778 77.7346 36.0817 78.0501C35.8266 78.3209 35.5441 78.5332 35.1428 78.5508C34.9558 78.5586 34.7649 78.6248 34.5877 78.6891C34.4727 78.7319 34.3636 78.8098 34.2701 78.8916C33.8903 79.2189 33.7267 79.2812 33.0819 79.3046C33.0215 78.9326 32.9066 78.5585 33.2319 78.2313C33.265 77.9391 33.4656 77.7287 33.6137 77.4969C33.7715 77.2515 33.9156 76.9827 34.2526 76.9164C34.3481 76.897 34.424 76.7898 34.5156 76.7333C34.7006 76.6184 34.6948 76.4587 34.6247 76.2483C34.1708 76.1431 33.7169 76.1158 33.2981 76.4178C33.2241 76.7119 32.8793 76.6827 32.7293 76.895C32.6202 77.0489 32.4547 77.0314 32.3339 76.9203C31.9774 76.5911 31.6599 76.7587 31.3502 76.9788C31.1749 77.1015 31.0015 77.232 30.8574 77.3878C30.6801 77.5826 30.4639 77.6644 30.2282 77.6021C30.0003 77.5417 29.8561 77.6255 29.7139 77.7716C29.6535 77.8339 29.5873 77.8885 29.5308 77.9547C29.3691 78.1436 29.1471 78.1768 28.9386 78.1144C28.6328 78.0229 28.3387 77.8865 28.0484 77.7521C27.8926 77.68 27.8751 77.4638 28.0211 77.382C28.2607 77.2495 28.4516 77.0411 28.7419 76.9788C28.9659 76.9301 29.1685 76.784 29.3574 76.6924C29.5581 76.371 29.3009 76.1373 29.2581 75.8412C29.1743 75.81 29.0711 75.7847 28.9795 75.7379C28.7789 75.6308 28.6893 75.4711 28.7438 75.2626C28.8023 75.0406 28.8958 74.8263 28.9873 74.5731C29.4276 74.651 29.8561 74.6821 30.2515 74.8146C30.5223 74.9062 30.758 75.1243 30.984 75.3172C31.1476 75.4555 31.1417 75.6659 31.0502 75.8529C31.0034 75.9483 30.9138 76.0204 30.8612 76.1119C30.7775 76.26 30.8671 76.4372 31.0307 76.447C31.2002 76.4567 31.3716 76.4489 31.5138 76.4489C31.8255 75.849 32.1196 75.288 32.4138 74.7231C32.2618 74.5224 32.1118 74.7581 31.956 74.7328C31.7904 74.7036 31.6229 74.6938 31.4106 74.6705C31.3989 74.5477 31.3833 74.3861 31.3716 74.2536C31.5976 74.0627 31.7787 73.8815 31.9872 73.7413C32.182 73.6108 32.404 73.4491 32.6202 73.4394C32.9728 73.4238 33.1812 73.1316 33.5066 73.0829C33.6858 73.0556 33.7812 72.8374 33.6897 72.666C33.5241 72.3524 33.6215 72.1264 33.7773 71.8362C33.8942 71.618 33.8416 71.2947 33.8143 71.022C33.8065 70.9363 33.6449 70.835 33.5358 70.798C33.0916 70.6499 32.6378 70.5272 32.1897 70.3908C32.067 70.3538 31.9443 70.3129 31.8294 70.2584C31.4787 70.0908 31.134 69.9175 30.7268 69.9506C30.6509 69.9564 30.5496 69.9038 30.5846 69.7928C30.6002 69.7461 30.6879 69.6818 30.721 69.6915C31.0969 69.8084 31.4826 69.8084 31.8683 69.8201C31.8898 69.8201 31.917 69.8201 31.9307 69.8337C32.2579 70.1298 32.6943 70.0675 33.078 70.1766C33.2183 70.2175 33.3721 70.2233 33.5202 70.2214C33.6585 70.2214 33.7403 70.0869 33.7033 69.9428C33.639 69.6954 33.5728 69.45 33.4988 69.1792C33.4053 69.1461 33.2903 69.1032 33.1754 69.0604C33.341 68.6864 33.3468 68.6825 33.1014 68.4526C32.9942 68.3513 32.8579 68.1897 32.7469 68.1994C32.3923 68.2306 32.143 68.0143 31.8625 67.8819C31.321 68.0747 30.8164 68.2987 30.4483 68.7468C30.2808 68.9494 30.0645 68.9766 29.8152 68.9961C29.3224 69.0331 28.8977 68.8033 28.44 68.702C28.3815 68.6883 28.3133 68.6474 28.2841 68.5968C28.0036 68.1215 27.6413 67.6812 27.6413 67.0871C27.6413 67.0248 27.6588 66.9625 27.6725 66.8826C27.8439 66.83 27.9199 67.0267 28.0601 67.0287C28.2101 67.0326 28.364 67.0248 28.512 67.0482C28.6581 67.0696 28.8179 67.1865 28.9406 67.1514C29.1997 67.0774 29.4373 67.1339 29.6866 67.1611C29.8249 67.1767 29.9243 67.0618 29.9652 66.9313C30.0061 66.7969 29.971 66.6625 29.8444 66.5943C29.6029 66.4638 29.3574 66.3294 29.1003 66.2417C28.7925 66.1365 28.6211 65.9164 28.4458 65.6437C28.8919 65.3028 29.4276 65.2677 29.899 65.0613C29.9165 65.034 29.9535 65.0009 29.9613 64.9639C29.9905 64.7983 29.9535 64.5899 30.1366 64.5061C30.3061 64.4282 30.5009 64.3697 30.6859 64.3697C30.8944 64.3697 31.1028 64.4399 31.2976 64.4769C31.3288 64.5314 31.3619 64.5645 31.3677 64.6035C31.4437 65.1236 31.8157 65.3086 32.2696 65.3573C32.5852 65.3905 32.9085 65.3632 33.2728 65.3632C33.2845 65.2151 33.2942 65.0963 33.3079 64.9405C32.817 64.7418 32.6222 64.2587 32.3397 63.8691C32.0923 63.5302 31.7631 63.349 31.4047 63.2185C31.2275 63.1542 30.9957 63.236 30.7872 63.2536V62.7354C30.5087 62.5387 30.2535 62.2815 29.9438 62.1647C29.6574 62.0556 29.3165 62.0926 28.9971 62.0653C29.0789 61.5218 29.0945 61.5102 29.7548 61.5316C29.9418 61.8394 30.2145 62.0575 30.6178 62.0692C30.9625 62.079 31.1593 61.8744 31.0755 61.5452C31.019 61.3173 30.9138 61.103 30.8457 60.879C30.8242 60.8108 30.8496 60.7271 30.8535 60.6531C31.095 60.6531 31.0892 60.8498 31.1768 60.9569C31.4534 61.2978 31.6852 61.3173 32.104 61.0524C32.182 61.0037 32.3105 60.9764 32.3962 61.0037C32.5793 61.0621 32.7585 61.1478 32.9222 61.2472C33.1637 61.3952 33.4208 61.4186 33.6663 61.3232C34.0461 61.1751 34.4338 61.2452 34.8175 61.2258C34.8993 61.2219 34.9987 61.2394 35.063 61.2842C35.4662 61.5647 35.9239 61.516 36.3739 61.516C36.5648 61.516 36.7577 61.516 36.894 61.516C37.0849 61.3465 37.0713 61.1907 37.0012 61.0563C36.7304 60.542 36.3915 60.0726 35.9473 59.6908C35.7603 59.531 35.4623 59.5369 35.2285 59.7005C34.9831 59.8719 34.7435 60.055 34.5214 60.2537C34.3598 60.3979 34.1766 60.4797 33.9916 60.3998C33.6351 60.244 33.2825 60.2771 32.8598 60.3667C32.7917 60.2869 32.7098 60.1914 32.6495 60.1213C32.6436 60.0356 32.6241 59.9849 32.6417 59.9538C32.7917 59.6713 32.7644 59.3674 32.741 59.0674C32.7313 58.9467 32.6709 58.8259 32.6163 58.7149C32.5326 58.5454 32.4332 58.3818 32.328 58.1967C32.5657 58.0097 32.7936 58.035 33.0118 58.1285C33.1676 58.1948 33.302 58.3077 33.452 58.3915C33.8338 58.6058 34.124 58.4324 34.1338 57.9863C34.1338 57.9026 34.1104 57.8188 34.0948 57.7136C33.9604 57.6922 33.8358 57.6591 33.713 57.6571C33.4501 57.6571 33.2066 57.6162 32.965 57.4935C32.8189 57.4195 32.6378 57.4 32.4702 57.3805C32.3222 57.361 32.1683 57.3727 32.0183 57.3727C31.8898 57.3727 31.7612 57.3727 31.6365 57.3727C31.3872 57.1818 31.1515 57.0007 30.9002 56.8098C30.982 56.5799 31.0658 56.3481 31.169 56.0598C31.6755 55.8553 32.2384 55.6819 32.852 55.7014C33.2397 55.715 33.6293 55.7092 34.015 55.6819C34.2468 55.6644 34.4766 55.5982 34.7026 55.5358C34.7435 55.5241 34.7961 55.4267 34.7864 55.3819C34.7688 55.3099 34.7162 55.2008 34.6597 55.1871C34.202 55.0781 33.7384 54.9943 33.2806 54.8891C33.117 54.8521 32.9631 54.7742 32.8287 54.7235C32.7975 54.6476 32.7741 54.6086 32.7663 54.5677C32.7098 54.3242 32.815 54.0476 32.5969 53.8333C32.3086 53.5489 32.0553 53.2178 31.619 53.1418C31.5138 53.1243 31.4086 53.1048 31.3054 53.0795C30.9684 52.9977 30.8515 52.6782 31.0541 52.386C31.2002 52.1756 31.3443 51.9594 31.5197 51.7743C31.9482 51.3244 32.3709 50.8647 32.9046 50.5257C33.1209 50.3894 33.3137 50.2179 33.5066 50.0504C33.9234 49.6881 34.35 49.3336 34.7377 48.942C34.95 48.7258 35.2071 48.6401 35.4681 48.568C35.6941 48.5057 35.9259 48.4765 36.1402 48.3654C36.2064 48.3304 36.3038 48.3362 36.3837 48.346C36.5726 48.3674 36.7616 48.4025 36.968 48.4356C36.9427 48.755 36.9193 49.0667 36.8882 49.4427C36.8005 49.4797 36.672 49.5537 36.5356 49.5907C36.3428 49.6433 36.1538 49.6569 36.0369 49.431C35.9493 49.2596 35.7856 49.1875 35.6025 49.2167C35.2733 49.2693 34.9285 49.2732 34.6539 49.5245C34.5506 49.6199 34.3909 49.6628 34.2526 49.7115C33.937 49.8206 33.8163 50.0387 33.8591 50.3621C33.8708 50.4478 33.8747 50.5335 33.8845 50.6601C34.3383 50.7302 34.7279 51.0302 35.2188 51.0147C35.4428 51.0069 35.624 50.9582 35.809 50.814C36.072 50.6095 36.2921 50.3231 36.6622 50.2744C36.8336 50.3894 36.8979 50.5588 36.9077 50.7634C36.9174 50.9562 36.9271 51.151 36.968 51.338C37.0128 51.5406 37.2836 51.6146 37.4356 51.4744C37.5115 51.4042 37.5778 51.3107 37.6167 51.2153C37.7648 50.8647 38.0336 50.6231 38.3413 50.3621C38.505 50.5335 38.7154 50.6738 38.8069 50.8686C38.9647 51.1997 39.2062 51.2854 39.5315 51.2659C39.6172 51.262 39.7088 51.2503 39.7887 51.2718C39.8861 51.299 40.0146 51.3341 40.0555 51.4081C40.1763 51.6244 40.3906 51.6594 40.5795 51.751C40.7471 51.8328 40.899 51.8523 41.0704 51.7646C41.2808 51.6575 41.4931 51.6906 41.686 51.8114C42.0307 52.0295 42.4535 52.0743 42.7807 52.3392C42.88 52.4191 43.0671 52.3899 43.2307 52.4133C43.3105 52.5788 43.3437 52.8087 43.5891 52.8944C43.7469 52.8068 43.9105 52.7133 44.0761 52.6256C44.1852 52.5672 44.2417 52.4814 44.2027 52.3646C44.1598 52.2321 44.0702 52.1445 43.9144 52.1698C43.817 52.1854 43.7196 52.2029 43.5969 52.2224C43.591 52.1172 43.5657 52.0451 43.5891 52.0003C43.7742 51.6516 43.6281 51.3516 43.4021 51.1159C42.9268 50.6231 42.4515 50.1322 41.9567 49.6589C41.7795 49.4875 41.5652 49.3784 41.3178 49.394C40.9399 49.4173 40.5893 49.3121 40.2562 49.168C39.9542 49.0375 39.7185 49.0764 39.5004 49.3063C39.4712 49.3355 39.4244 49.3472 39.3913 49.3725C38.9374 49.7134 38.8264 49.7154 38.3316 49.3881C38.3725 49.1057 38.5868 48.9576 38.7757 48.8388C38.8731 48.4687 38.8205 48.1668 38.5946 47.9213C38.6959 47.7869 38.7835 47.8473 38.8342 47.8999C39.1049 48.1765 39.3932 48.1648 39.7146 47.9934C40.0361 47.822 40.3692 47.6661 40.6964 47.5045C40.8678 47.072 40.6399 46.6961 40.5308 46.324C40.4607 46.0864 40.1938 46.0182 39.9328 46.0454C39.3887 46.1013 38.9037 46.011 38.4777 45.7747C38.3394 45.8331 38.1855 45.9032 38.0258 45.9636C37.6479 46.1078 37.2739 46.1175 36.9077 45.9247C36.7362 45.8351 36.5668 45.7416 36.3915 45.6578C36.2103 45.5701 36.0525 45.4708 36.0428 45.239C36.0369 45.0968 35.9376 45.0033 35.8149 44.9507C35.6025 44.8572 35.4428 44.6702 35.1896 44.6371C35.0961 44.6254 35.0201 44.4735 34.9247 44.3741C35.1136 44.1559 35.3142 44.0761 35.5655 44.0683C36.3155 44.0469 36.3622 44.0683 36.746 44.7208C36.7791 44.7754 36.8161 44.828 36.8629 44.8962H37.3654C37.3966 44.8241 37.4356 44.7695 37.4433 44.7111C37.4667 44.5514 37.4005 44.4209 37.2914 44.304C37.1706 44.1754 37.0927 44.0254 37.1083 43.8014C37.3226 43.7079 37.5524 43.6066 37.7881 43.5034C38.0959 43.5988 38.3491 43.8423 38.69 43.8228C39.2432 44.1715 39.9094 44.3936 40.1159 45.1299C40.1724 45.3344 40.2815 45.5234 40.3594 45.7201C40.4685 45.9948 40.5678 46.0474 40.8464 45.989C41.0334 45.95 41.2224 45.9188 41.4133 45.9013C41.6256 45.8818 41.8398 45.8838 42.0697 45.876C42.1788 45.5526 42.2626 45.2409 42.5801 45.0695C42.6502 45.0325 42.6424 44.8533 42.6755 44.7208C42.4885 44.6799 42.3463 44.6468 42.2236 44.6196C42.1359 44.4481 42.0522 44.3001 41.984 44.1482C41.9334 44.0332 41.8671 43.9086 41.8691 43.7897C41.8808 43.4021 41.7113 43.0865 41.5087 42.7437C41.2418 42.7359 40.9633 42.7106 40.6867 42.7262C40.2815 42.7476 39.9231 42.6521 39.5939 42.3775C39.6426 41.6879 40.0672 41.1834 40.4237 40.6633C40.6477 40.6672 40.7276 40.7841 40.786 40.9321C40.8328 41.047 40.8678 41.2126 40.9555 41.2574C41.2594 41.4054 41.4347 41.6879 41.684 41.8866C41.834 42.0054 41.9937 42.1126 42.1554 42.2177C42.208 42.2509 42.2937 42.2937 42.3346 42.2723C42.6755 42.0931 43.0164 42.3307 43.3339 42.2723C43.6514 42.2119 43.969 42.1866 44.2865 42.1496C44.5027 42.1242 44.6079 41.9742 44.6079 41.7366C44.6079 41.5087 44.4891 41.3645 44.2845 41.3217C44.0235 41.2671 43.8248 41.3801 43.6417 41.5554C43.0963 41.4054 42.5625 41.2613 42.1379 40.8678C42.0775 40.8113 41.9918 40.7782 41.9119 40.7451C41.4892 40.5717 41.2087 40.264 41.0392 39.8393C41.0977 39.477 41.3314 39.327 41.684 39.2432C42.1496 39.1322 42.6151 39.101 43.0865 39.0913C43.2365 39.0874 43.3885 39.0913 43.5385 39.0718C43.7235 39.0484 43.8365 38.8614 43.78 38.69C43.7605 38.6296 43.7216 38.5751 43.6943 38.5186C43.482 38.0764 43.2112 37.6635 43.0417 37.1979C42.9541 36.9525 42.7846 36.7654 42.5431 36.6291C42.3619 36.5278 42.2158 36.3603 42.0307 36.2025C42.097 36.1129 42.1301 36.0174 42.1924 35.9921C42.6093 35.8246 43.032 35.6707 43.4489 35.5149C43.6436 35.5811 43.8248 35.6434 44.0254 35.7136C44.1637 35.9804 44.3215 36.2512 44.4462 36.5375C44.5475 36.7674 44.5202 36.7927 44.2183 36.9466C44.1813 36.9661 44.154 36.9992 44.1189 37.0304C44.0449 37.3323 44.1287 37.6031 44.228 37.8992C44.4345 38.505 44.7364 39.0679 44.976 39.6562C45.054 39.8471 45.0384 40.075 45.0734 40.2854C45.0949 40.4081 45.0988 40.5503 45.165 40.6477C45.4046 41.0003 45.6656 41.3373 45.9188 41.6801C46.25 41.723 46.5467 41.6606 46.8091 41.4931C46.8 41.1723 46.6233 40.9607 46.2792 40.8581C46.6026 40.4373 47.0993 40.3185 47.5356 40.1081C47.6603 40.0477 47.7986 40.1062 47.8746 40.225C47.9408 40.3282 47.9759 40.4529 48.0265 40.5678C47.7168 40.7081 47.3876 40.8055 47.448 41.271C47.598 41.2827 47.7441 41.31 47.8863 41.2983C48.0109 41.2866 48.1317 41.2223 48.2544 41.1931C48.833 41.0529 48.8583 40.975 48.6518 40.4081C48.4025 39.7263 48.1512 39.0445 48.2038 38.2907C48.2213 38.0472 48.1142 37.794 48.0596 37.529C47.8083 37.418 47.5726 37.3187 47.3408 37.2096C46.7662 36.9388 46.2656 36.5882 46.0123 35.9551C46.1701 35.5792 46.3493 35.2285 46.6493 34.9285C46.9629 34.613 47.2162 34.237 47.4811 33.9059C47.9077 33.7461 48.1746 34.1396 48.5447 34.1494C48.8778 34.1572 49.207 34.2526 49.5946 34.3188C49.5303 34.1942 49.5108 34.0812 49.4524 34.0539C49.0589 33.8747 48.8524 33.5552 48.6986 33.1676C48.6051 32.9319 48.4551 32.7157 48.3129 32.5014C48.1921 32.3183 48.1843 32.1391 48.2895 31.9599C48.381 31.8021 48.5817 31.7437 48.8096 31.8177C49.1135 31.917 49.429 31.9969 49.6355 32.2813C49.7349 32.4196 49.8693 32.5345 49.9959 32.6514C50.2939 32.928 50.4712 33.2514 50.4537 33.6741C50.4459 33.863 50.4887 34.0559 50.5082 34.2448C50.3894 34.4162 50.2686 34.5877 50.142 34.7688C50.2511 34.9363 50.3407 35.0785 50.4361 35.2188C50.6387 35.511 50.6212 35.8324 50.5452 36.1518C50.4946 36.3622 50.3816 36.5336 50.179 36.6603C49.879 36.8473 49.9121 36.859 49.9822 37.2252C50.105 37.8777 50.4127 38.429 50.7575 38.8517C51.1101 39.0231 51.3828 39.1361 51.638 39.2822C51.8425 39.3991 52.0178 39.5607 52.2146 39.6913C52.5594 39.9211 53.0152 39.8393 53.134 39.4633C53.2801 38.9978 53.6074 38.6569 53.8333 38.2478C54.0651 37.8271 54.1197 37.4609 53.8255 37.0498C53.6775 36.8434 53.5781 36.5979 53.4885 36.3583C53.284 35.8149 53.4067 35.3493 53.847 34.9207C54.1333 34.6422 54.2307 34.3149 54.1275 33.9234C54.0846 33.7598 54.0651 33.5903 54.0359 33.4228C54.0184 33.3176 54.0437 33.1773 53.9833 33.1131C53.7165 32.8267 53.769 32.4761 53.7437 32.1391C53.732 31.993 53.6716 31.8508 53.6385 31.7066C53.5567 31.3482 53.6463 31.1982 54.0086 31.095C54.0496 31.0833 54.0944 31.0872 54.1353 31.0736C54.1742 31.0599 54.2073 31.0327 54.2755 30.9918C54.2853 30.8671 54.3242 30.7171 54.3028 30.5749C54.2404 30.1756 54.147 29.7821 54.0827 29.3847C54.0515 29.1957 54.0437 29.0029 54.0457 28.8101C54.0457 28.6815 54.1879 28.5685 54.3164 28.5977C54.7956 28.7049 55.3235 28.7594 55.6858 29.1003C56.3131 29.6944 56.5001 30.3002 55.8884 31.0814C55.3722 31.4534 55.4053 31.991 55.4462 32.5326C55.4579 32.6981 55.5397 32.8228 55.6975 32.8715C55.9001 32.9338 56.1124 32.9728 56.315 33.0371C56.4319 33.076 56.5936 33.1189 56.6403 33.2085C56.8234 33.5591 57.1078 33.8747 57.1039 34.3052C57.1039 34.5428 57.0786 34.7844 57.2831 34.9656C57.3669 35.4467 57.5149 35.9122 57.6279 36.3856C57.6961 36.67 57.6045 36.7927 57.2286 37.3265C56.9422 37.083 56.6325 36.9038 56.4923 36.4966C56.4007 36.2317 56.1339 36.0272 55.9118 35.7525C55.9157 35.7214 55.9118 35.6356 55.9332 35.5597C55.9936 35.361 55.9235 35.2227 55.754 35.1253C55.4209 34.9344 55.0878 34.7454 54.6729 34.7552C54.6515 34.8117 54.5969 34.8837 54.6145 34.9246C54.7157 35.1584 54.8287 35.3883 54.9495 35.6142C54.9768 35.6649 55.0449 35.7155 55.1014 35.7233C55.5436 35.7915 55.754 36.1324 55.9215 36.4772C56.1514 36.9505 56.6189 37.1609 56.9637 37.5018C57.0728 37.6109 57.2734 37.6498 57.439 37.6771C57.7974 37.7336 58.1597 37.7531 58.5551 37.681C58.5551 37.2388 58.6545 36.8531 59.1415 36.6973C59.1493 36.4694 59.159 36.257 59.1649 36.0428C59.1726 35.7155 59.0343 35.4525 58.7694 35.2753C58.3389 34.987 58.1324 34.6032 58.1714 34.0812C58.1909 33.8241 58.1675 33.563 58.1772 33.3059C58.1909 32.9806 58.1714 32.6728 58.0039 32.3709C57.8208 32.0378 57.8656 31.6579 57.9474 31.3015C57.9863 31.1301 58.0311 30.9781 57.9649 30.8047C57.9376 30.7327 57.9474 30.6372 57.9669 30.5593C58.0526 30.2106 58.15 29.8619 58.2493 29.4879C58.5941 29.7256 58.9603 29.7723 59.3791 29.6301C59.4454 29.1548 59.6031 28.6912 59.5681 28.1906C59.5486 27.9043 59.6168 27.8653 60.0044 27.7757C60.2615 28.3854 60.2908 28.4127 60.9297 28.6523C61.1362 28.9873 61.1595 29.3496 61.029 29.7431C60.9083 30.1074 60.918 30.4502 61.2219 30.7541C61.3836 30.9158 61.4848 31.1378 61.6154 31.3385C62.0264 31.395 62.4374 31.2937 62.8465 31.3852C62.9458 31.6073 62.9653 31.806 62.8698 32.0183C62.6672 32.4644 62.5406 32.9436 62.2621 33.3566C62.1316 33.5513 62.0459 33.7695 62.0575 34.0247C62.0634 34.1649 62.0361 34.3461 61.9504 34.4455C61.7108 34.726 61.8141 34.9539 61.9952 35.1896C62.5776 35.1603 62.827 34.9402 62.8737 34.4045C62.8893 34.2331 62.8835 34.0598 62.8835 33.8883C62.8835 33.7189 62.8835 33.5494 62.8835 33.4189C63.0666 33.2416 63.2107 33.2884 63.3218 33.4014C63.5847 33.6682 63.9178 33.8182 64.2412 33.9877C64.473 34.1104 64.7184 34.1864 64.9853 34.1143C65.1645 33.9409 65.1158 33.75 65.0067 33.5845C64.8217 33.2981 64.621 33.0196 64.3249 32.8949C64.2373 32.5676 64.1535 32.2813 64.0834 31.991C64.0191 31.7242 63.9704 31.4534 63.91 31.1593C63.7815 31.1242 63.6412 31.0853 63.464 31.0366C63.4834 30.8086 63.3315 30.6041 63.3958 30.3606C63.4776 30.0431 63.4484 29.7236 63.425 29.4256C63.2555 29.2795 63.1016 29.1646 62.9692 29.0263C62.8367 28.888 62.8172 28.6854 62.9166 28.5451C63.0744 28.3231 63.2341 28.0757 63.5555 28.0465C63.6393 28.0387 63.7367 28.0387 63.8048 27.9978C64.0892 27.8263 64.3483 27.9004 64.5879 28.0718C64.8275 28.2432 65.1041 28.3971 65.1197 28.7516C65.1236 28.8354 65.1333 28.9347 65.1781 28.9971C65.5288 29.4879 65.297 29.8834 64.9795 30.2652C64.9522 30.2983 64.9074 30.3158 64.886 30.3489C64.7847 30.5028 64.8236 30.7658 64.9756 30.8729C65.0807 30.9469 65.2035 30.9937 65.3126 31.0619C65.4197 31.1281 65.5697 31.1826 65.6164 31.282C65.8034 31.6833 66.1677 31.8722 66.5242 32.0943C66.5105 32.2657 66.4852 32.4313 66.4852 32.5988C66.4852 32.6787 66.5144 32.7975 66.569 32.8287C66.9722 33.0585 67.1008 33.4851 67.3228 33.8455C67.3443 33.8805 67.3754 33.9117 67.4241 33.9663C67.6579 34.0305 67.839 33.9799 67.9968 33.7306C68.1429 33.4988 68.3241 33.2553 68.55 33.1131C68.9669 32.8501 69.2766 32.4313 69.7636 32.2774C69.9467 32.0436 70.1922 32.0358 70.4629 32.0495C70.7785 32.0651 70.8915 31.9423 70.8993 31.6307C70.907 31.3093 70.8993 30.9879 70.8993 30.6431C70.4025 30.4385 70.3129 29.9593 70.237 29.5366C70.1629 29.112 70.0909 28.6328 70.4376 28.2198H71.0668C71.1778 28.3951 71.2596 28.6036 71.4077 28.736C71.5557 28.8704 71.77 28.9308 71.9784 29.0341C71.9083 29.1996 71.8537 29.3379 71.7934 29.4704C71.6784 29.7236 71.7447 29.9282 71.9998 30.0957C71.618 30.5009 71.7057 30.9528 71.8284 31.4086C71.9122 31.7183 71.992 32.0222 72.0193 32.3475C72.0622 32.852 71.807 33.2572 71.6706 33.7013C71.6414 33.7987 71.5499 33.8786 71.4778 33.9799C71.2265 33.8844 70.9908 33.8533 70.8525 33.7208C70.7395 33.6137 70.7454 33.3819 70.6947 33.1851C70.272 33.2572 70.0889 33.565 69.9526 33.8669C69.8688 34.05 69.7675 34.1883 69.6331 34.3305C69.411 34.5623 69.2318 34.8272 69.1734 35.1896H69.5454C69.5785 35.1077 69.6214 35.0142 69.6526 34.9188C69.7188 34.7201 69.8259 34.5701 70.0519 34.5506C70.2545 34.5312 70.4162 34.5604 70.5389 34.7708C70.6986 35.0454 70.9947 35.0084 71.2343 34.9188C71.657 34.7591 72.0485 34.5526 72.2511 34.089C72.3855 33.7851 72.666 33.6195 73.0108 33.5708C73.5153 33.5026 73.5446 33.4559 73.677 32.9611C73.7705 32.6105 73.8913 32.2696 74.0043 31.9073C74.2205 31.8781 74.3198 32.0768 74.4289 32.217C74.7211 32.591 74.8614 33.0468 75.0523 33.4734C75.0951 33.5708 75.1068 33.6838 75.1633 33.7734C75.3503 34.0714 75.3932 34.3675 75.2237 34.6889C75.1984 34.7357 75.2315 34.8136 75.2412 34.913C75.4048 34.9324 75.5685 34.9539 75.7282 34.9733C75.7866 34.911 75.8314 34.8682 75.8704 34.8214C75.9522 34.7221 76.0282 34.6188 76.1139 34.5214C76.3399 34.2682 76.445 33.9799 76.4334 33.6371C76.4197 33.1851 76.4392 32.7313 76.4236 32.2793C76.4158 32.0339 76.5347 31.8703 76.7022 31.7281C76.8814 31.5742 77.1288 31.6326 77.2398 31.8547C77.2671 31.9112 77.2612 31.9833 77.2846 32.0417C77.3937 32.3125 77.4638 32.3456 77.7774 32.2969C77.8378 32.2871 77.9002 32.2813 77.9605 32.2715L77.943 32.254C77.9333 32.5813 77.9898 32.8871 78.1709 33.1754C78.3307 33.4286 78.43 33.7189 78.578 33.9818C78.8274 34.4201 79.0105 34.8662 78.9384 35.3883C78.8917 35.735 79.1157 35.996 79.2657 36.2902C79.5871 36.4148 79.891 36.3564 80.187 36.2005C80.337 36.1226 80.4851 36.0135 80.7013 36.1402C80.6818 36.2064 80.6779 36.2921 80.6351 36.3505C80.5474 36.4713 80.4305 36.5746 80.4422 36.744C80.4598 36.9953 80.3857 37.2057 80.1052 37.3148C80.2708 37.6264 80.4013 37.868 80.5299 38.1076C80.4247 38.3861 80.1091 38.3842 79.889 38.5926C79.9046 38.7075 79.8754 38.8984 79.9552 38.9803C80.1948 39.2238 80.3409 39.5335 80.5669 39.7789C80.7519 39.9796 80.9896 40.1295 81.2604 40.3497C81.2682 40.4393 81.2818 40.6048 81.2974 40.7821C80.9214 40.9691 80.5591 41.1483 80.3 41.4736C80.1948 41.6041 80.0585 41.645 79.8968 41.6041C79.7955 41.5788 79.6923 41.5613 79.5384 41.5282C79.5053 42.0814 79.2403 42.5742 79.4293 43.1508C79.6514 43.1021 79.852 43.0573 80.0546 43.0106C80.1383 42.845 80.1929 42.6521 80.3117 42.5177C80.4325 42.3794 80.6156 42.2957 80.789 42.1788C80.8065 42.0794 80.8299 41.9567 80.8513 41.8379C80.9214 41.7989 80.976 41.7483 81.0344 41.7405C81.4961 41.6782 81.7123 41.3217 81.7902 40.9516C81.9188 40.338 82.1759 39.7711 82.3473 39.177C82.3804 39.0582 82.3687 38.9277 82.3785 38.7601C81.9733 38.5595 81.572 38.3628 81.1513 38.1563C81.2974 37.9946 81.4668 37.868 81.5487 37.6985C81.6402 37.5135 81.6519 37.2875 81.6967 37.0791C81.7551 36.8064 81.8779 36.6369 82.2343 36.3525C82.5265 36.5161 82.77 36.6953 82.8285 37.0966C82.8655 37.3576 83.0349 37.6011 83.1616 37.8446C83.2258 37.9654 83.3583 38.0043 83.4966 38.0043C83.9914 38.0004 84.4881 37.9965 84.9829 37.9946C85.2166 37.9946 85.4523 37.9946 85.7173 37.9946C85.725 38.1543 85.7309 38.2732 85.7367 38.3939C85.7737 38.4017 85.8302 38.429 85.8478 38.4134C86.1516 38.1485 86.4497 37.8777 86.812 37.5524C86.8665 37.2778 86.9386 36.9232 87.0185 36.522C87.1217 36.5142 87.2425 36.5044 87.3983 36.4927C87.5055 36.7323 87.8054 36.8609 87.7645 37.1823C87.5503 37.3771 87.3457 37.5641 87.1412 37.7492C87.0224 37.8563 86.923 38.0004 86.9737 38.1465C87.1139 38.5517 86.9717 38.9471 86.96 39.3445C86.9503 39.7516 87.0263 40.0633 87.41 40.2523C87.4392 40.2678 87.4509 40.3185 87.4801 40.3691C87.3711 40.5717 87.149 40.6107 86.9659 40.7022C86.7341 40.8172 86.5023 40.9282 86.2607 41.0217C86.1906 41.049 86.0835 41.0314 86.0114 40.9983C85.7211 40.8639 85.4251 40.9126 85.1407 40.9301C84.9634 41.1113 84.9848 41.3197 85.0569 41.4892C85.1796 41.7814 85.2829 42.0911 85.5361 42.319C85.6763 42.4456 85.7815 42.6132 85.8906 42.771C86.1029 43.0787 86.3873 43.2385 86.7613 43.2404C87.0613 43.2404 87.3613 43.2404 87.634 43.2404C87.9788 43.6534 87.9788 43.6729 88.5242 43.6631C88.8573 43.6573 89.1067 43.7722 89.319 44.0098C89.4787 44.191 89.4982 44.3176 89.358 44.5299C89.0755 44.9585 88.7833 45.3812 88.495 45.8039C88.2905 46.1039 88.0762 46.398 87.8853 46.7077C87.8249 46.8032 87.823 46.9357 87.7899 47.0681C88.2359 47.1577 88.645 47.1129 89.0521 47.1227C89.3541 47.1305 89.6501 47.1266 89.9287 47.2804C90.2793 47.4733 90.5949 47.3681 90.8754 47.1168C90.9709 47.0311 91.0566 46.9318 91.1501 46.8441C91.3786 46.6246 91.6325 46.5909 91.9117 46.7428C91.9857 46.7818 92.0695 46.8441 92.1435 46.8383C92.5545 46.7974 92.8078 47.0681 93.1389 47.2921C92.9753 47.4577 92.7863 47.3623 92.6402 47.4246C92.5097 47.4791 92.35 47.4694 92.2039 47.4869C91.9624 47.5181 91.8747 47.6603 91.9039 47.8882C92.1182 48.159 92.4435 48.2271 92.7376 48.3499C92.8701 48.4044 92.9948 48.3401 93.059 48.2096C93.1077 48.1142 93.1175 47.9953 93.1779 47.9116C93.2636 47.7928 93.361 47.6447 93.4856 47.5999C93.7934 47.4928 94.0778 47.3564 94.3447 47.1694C94.481 47.074 94.633 47.1382 94.7187 47.2921C94.933 47.672 94.8999 47.9856 94.5921 48.2797C94.4713 48.3966 94.3174 48.4804 94.1791 48.5778C93.959 48.7356 93.9395 48.9226 94.1324 49.1174C94.1927 49.1777 94.257 49.2673 94.3291 49.279C94.781 49.3492 95.0771 49.6823 95.4336 49.9121C95.6303 50.0387 95.8154 50.1848 96.0219 50.3329C96.053 50.5335 96.0842 50.7419 96.1134 50.9309C96.3394 51.0419 96.4699 50.9231 96.5926 50.7984C96.6978 50.6893 96.7971 50.553 96.9725 50.6192C97.1595 50.6893 97.2237 50.8685 97.2043 51.04C97.1439 51.5679 97.3562 52.0471 97.4926 52.5769C97.0445 52.7191 96.6316 52.8788 96.1952 52.947C95.9926 52.9801 95.8212 52.8262 95.7862 52.6178C95.7608 52.4698 95.7823 52.31 95.7316 52.1737C95.7024 52.0958 95.5777 52.0276 95.4862 52.0062C95.4238 51.9925 95.3187 52.049 95.2739 52.1055C95.1959 52.2048 95.1453 52.3276 95.0888 52.4444C94.9739 52.6782 94.8531 52.8847 94.5921 53.0093C94.3427 53.1282 94.2375 53.3678 94.2726 53.66C94.2921 53.8255 94.3525 53.9755 94.5142 54.0047C94.8278 54.0651 95.0401 54.2891 95.2894 54.4489C95.4433 54.5482 95.5855 54.6008 95.7647 54.6047C95.9401 54.6086 96.016 54.4956 96.1271 54.3904C96.3589 54.1723 96.6238 53.9892 96.8829 53.7827C97.2569 54.0554 97.6075 54.332 97.9834 54.5735C98.1607 54.6865 98.2678 54.8034 98.3107 55.0138C98.3613 55.2612 98.4665 55.4988 98.5386 55.7111C98.4529 55.9371 98.301 56.0072 98.1159 55.9936C97.7361 55.9624 97.3952 56.0501 97.0776 56.2605C96.8868 56.3871 96.7173 56.276 96.54 56.1806C96.3764 56.0929 96.3024 56.1786 96.2615 56.4864C96.3881 56.5449 96.5244 56.6637 96.6549 56.6559C97.0036 56.6364 97.2608 56.839 97.551 56.9559C97.6854 57.0104 97.849 57.0864 97.9114 57.1994C98.0847 57.513 98.2153 57.85 98.3536 58.1811C98.3847 58.2551 98.41 58.3642 98.3769 58.4266C98.2484 58.674 98.338 58.9389 98.2912 59.1882C98.2698 59.3012 98.1997 59.4064 98.1315 59.5622C97.9757 59.4395 97.8588 59.3538 97.7516 59.2583C97.6114 59.1317 97.5491 58.9661 97.6367 58.7928C97.7653 58.5415 97.6835 58.2902 97.6971 58.0214C97.3757 57.8597 97.0562 57.9162 96.7426 57.9571C96.6024 57.9746 96.5322 58.0974 96.5069 58.2337C96.4017 58.7967 96.131 59.3265 96.1933 59.9654C95.9771 59.9284 95.8154 59.87 95.6595 59.8797C95.494 59.8895 95.3342 59.9752 95.1687 60.0063C95.0888 60.0219 94.9992 59.9947 94.9174 59.9732C94.5103 59.8719 94.5103 59.8719 94.1109 59.9635C93.5012 59.6596 92.4006 58.7304 91.9273 58.0448C92.161 57.8013 92.6383 57.6532 92.3987 57.1312C92.2662 57.102 92.1104 57.0942 91.9799 57.0338C91.7442 56.9247 91.5396 56.9539 91.302 57.0494C91.0546 57.1487 90.8033 57.2208 90.5014 57.1156C90.2521 57.0279 89.9482 57.0864 89.6677 57.1039C89.5683 57.1098 89.4593 57.1643 89.3813 57.2305C89.1456 57.4253 88.9099 57.4136 88.6664 57.2636C88.0782 56.9033 87.3087 57.0572 86.775 57.6902C86.6367 57.8539 86.6971 58.15 86.8958 58.148C87.4646 58.1441 87.9671 58.448 88.5262 58.4558C88.9781 58.4616 89.4281 58.4772 89.9151 58.4908C89.9677 58.6525 90.0164 58.8084 90.0709 58.9837H90.7137C90.9066 59.1785 90.8871 59.4278 90.78 59.6343C90.6183 59.9479 90.7332 60.1661 90.9455 60.3959C91.8747 60.4524 92.8292 60.2674 93.7973 60.6102C93.8187 60.6648 93.846 60.766 93.8967 60.8518C93.9356 60.9199 94.0057 60.9706 94.0681 61.0349C94.033 61.0952 94.0135 61.1693 93.9648 61.1985C93.6746 61.3777 93.3785 61.5452 93.0688 61.7264V62.2543C93.3025 62.4043 93.5285 62.5601 93.6434 62.8367C93.7058 62.9867 93.8538 63.0432 94.0252 62.9964C94.1889 62.6536 94.372 62.3225 94.6271 62.0322C94.7518 61.89 94.8512 61.7166 94.9349 61.5433C95.0537 61.2939 95.2446 61.2355 95.5057 61.2102C96.0939 61.1556 96.6082 61.3602 97.0913 61.6387C97.4809 61.8627 97.8393 62.1335 98.2932 62.2251C98.3516 62.2367 98.4139 62.2796 98.451 62.3283C98.486 62.3731 98.5152 62.4471 98.5016 62.4958C98.488 62.5426 98.4178 62.601 98.3691 62.603C98.2659 62.6088 98.1315 62.6166 98.0614 62.5601C97.6387 62.2153 97.1614 62.3653 96.6998 62.3945C96.5322 62.4043 96.3667 62.4588 96.1991 62.4919C96.1777 62.4958 96.1524 62.49 96.1348 62.4997C95.7725 62.7159 95.3888 62.899 95.0362 63.127C94.7635 63.3023 94.7927 63.6393 95.0479 63.8418C95.1959 63.9607 95.3693 64.0678 95.5485 64.1223C95.8018 64.1983 96.0082 64.3405 96.2342 64.4632C96.6647 64.697 97.1147 64.9093 97.5783 65.0632C97.8529 65.1548 98.1646 65.1275 98.4626 65.0165C99.0042 64.8178 99.5574 64.6483 100.109 64.4749C100.226 64.4379 100.356 64.4438 100.5 64.4262C100.5 65.1996 100.52 65.9437 100.492 66.6858C100.475 67.1417 100.227 67.539 100.048 67.9481C100.005 68.0455 99.8632 68.1176 99.7522 68.1624C99.5769 68.2345 99.384 68.2656 99.2068 68.3319C98.8853 68.4507 98.5639 68.5461 98.2153 68.5812C97.7146 68.6318 97.2432 68.774 97.0484 69.3331C97.0173 69.4227 96.9238 69.4987 96.8478 69.5649C96.4076 69.9506 95.905 70.1473 95.3109 70.1084C95.0128 70.0889 94.7012 70.0577 94.4655 70.3129C94.3272 70.5876 94.4966 70.8486 94.5278 71.1544C94.1109 71.1836 93.7252 71.2869 93.3162 71.1992C93.1097 71.1544 92.8935 71.1681 92.6909 71.2869C92.5058 71.394 92.4182 71.5499 92.3558 71.7271C92.4922 72.0836 92.837 71.9667 93.1038 72.0797C93.2149 72.331 93.3103 72.5998 93.5694 72.7985C93.7798 72.9602 93.9142 73.2114 94.1655 73.3614C94.4538 73.5329 94.7012 73.7763 94.9641 73.9887C95.0148 74.0296 95.0557 74.0802 95.1063 74.1192C95.7375 74.6081 95.8017 74.6295 96.6335 74.6471C96.7582 74.649 96.8848 74.6724 97.0075 74.686C97.0932 74.9841 96.9432 75.2139 96.8595 75.4477C96.7796 75.6659 96.6452 75.8684 96.5225 76.0691C96.2829 76.4567 96.3121 76.6009 96.6569 76.8638C96.8887 77.0411 97.1108 77.2378 97.3114 77.4482C97.7107 77.867 98.1588 78.243 98.4724 78.7417C98.6321 78.9929 98.825 79.2209 99.0178 79.478C98.862 79.7916 98.5542 79.9202 98.2698 80.0254C97.9971 80.1247 97.7146 80.039 97.5257 79.778C97.475 79.7098 97.4419 79.626 97.3835 79.5656C97.2997 79.476 97.1731 79.4663 97.0913 79.5423C96.9335 79.6864 96.7621 79.8345 96.6666 80.0195C96.5147 80.3098 96.279 80.4695 96.0004 80.5941C95.8641 80.6545 95.718 80.7032 95.5875 80.7734C95.3596 80.8961 95.1375 80.8941 94.9096 80.7812C94.4908 80.5747 94.0057 80.5006 93.6707 80.1247C93.5967 80.0409 93.4447 80.0273 93.3142 79.9747C93.3473 79.5111 93.2285 79.1079 92.95 78.7046C92.65 78.6482 92.3305 78.6131 91.9916 78.7767C91.5903 78.9715 91.2416 78.8449 90.9786 78.4884C90.8014 78.2469 90.6222 78.0073 90.4157 77.7268C90.4488 77.6021 90.5014 77.4443 90.5326 77.2807C90.5559 77.1482 90.5832 77.0353 90.7157 76.9632C90.7877 76.9242 90.8715 76.8619 90.8988 76.7898C91.1501 76.1567 91.7286 75.999 92.2916 75.9171C92.7688 75.849 93.2714 75.8236 93.7447 76.0749C94.0973 76.2619 94.5064 76.1684 94.8901 76.1548C95.0459 76.1509 95.1453 75.9834 95.0966 75.8178C95.0245 75.5685 94.9154 75.3328 94.7051 75.1652C94.3914 74.9159 94.0408 74.7114 93.8246 74.351C93.7895 74.2906 93.6804 74.277 93.6084 74.2361C93.5168 74.1835 93.398 74.1465 93.3415 74.0666C93.0805 73.7062 92.6617 73.6303 92.2955 73.4705C91.7754 73.2426 91.3371 73.4764 90.9338 73.7919C90.8871 73.8289 90.8559 73.8952 90.8325 73.9536C90.7936 74.053 90.7683 74.1581 90.7332 74.2594C90.5092 74.9062 90.4332 74.9821 89.7651 74.9081C89.3443 74.8633 88.9158 74.8166 88.5164 74.6315C88.2067 74.4893 87.8795 74.3841 87.5522 74.2828C87.2016 74.1737 87.1022 74.238 86.9289 74.6198C86.9113 74.6588 86.8841 74.6919 86.8607 74.7269C86.5627 74.8536 86.2588 74.949 85.9257 74.9198C85.8224 74.9101 85.7114 74.9393 85.6101 74.9685C85.4893 75.0016 85.4153 75.1165 85.466 75.2139C85.538 75.3522 85.5614 75.4282 85.3958 75.5061C85.3394 75.5334 85.2907 75.6483 85.2965 75.7204C85.3121 75.9035 85.3588 76.0847 85.3958 76.2853C85.3705 76.297 85.2926 76.3087 85.2614 76.3515C85.2186 76.4119 85.1913 76.4976 85.1972 76.5697C85.201 76.6126 85.279 76.6807 85.3257 76.6827C85.4932 76.6885 85.6608 76.671 85.8439 76.6632C85.9257 76.7801 85.9978 76.9125 86.0971 77.0216C86.2257 77.1658 86.4341 77.1151 86.5003 76.934C86.5218 76.8736 86.5217 76.8074 86.5412 76.745C86.5529 76.7061 86.5841 76.6729 86.6055 76.6359C87.1821 76.4937 87.784 76.4548 88.3411 76.221C88.5651 76.1275 88.7502 76.1918 88.9333 76.4022C88.7658 76.5015 88.6236 76.5872 88.4619 76.6827C88.495 76.8619 88.5242 77.0236 88.5554 77.1814C88.5048 77.2028 88.4658 77.2378 88.4307 77.232C88.2846 77.2125 88.1385 77.158 87.9944 77.1599C87.8444 77.1638 87.7684 77.2671 87.8171 77.4541C88.0178 77.5203 88.234 77.5904 88.5437 77.6917C88.2885 77.8378 88.1132 77.9372 87.9009 78.0579C87.9457 78.1845 87.9535 78.3501 88.0334 78.3969C88.3041 78.5605 88.3645 78.8176 88.4288 79.102C88.2788 79.2189 88.1347 79.3475 87.9769 79.4546C87.6925 79.6475 87.3944 79.7468 87.0341 79.7877C86.5412 79.8422 86.1107 79.7935 85.6861 79.5539C85.577 79.4916 85.4426 79.478 85.3218 79.4312C85.0686 79.3358 84.94 79.1644 85.0082 78.88C85.0355 78.8293 85.0686 78.7417 85.0959 78.7417C85.2439 78.7514 85.39 78.7884 85.538 78.804C85.6432 78.8157 85.7776 78.8137 85.7952 78.6852C85.8069 78.5956 85.7523 78.4865 85.7056 78.4008C85.6783 78.3521 85.6043 78.3287 85.5478 78.2917C85.3355 78.3579 85.1251 78.4241 84.8855 78.5001C84.9381 78.652 84.979 78.7709 85.0199 78.8878L85.0257 78.8819ZM54.334 54.0067C54.1469 53.9814 53.9541 53.9794 53.7768 53.9229C53.4476 53.8158 53.1983 53.9229 52.949 54.1294C52.6899 54.3417 52.4795 54.6222 52.1133 54.6963C51.9828 54.7216 51.9497 54.8813 52.0256 55.0177C52.3354 55.0099 52.6587 55.0995 52.9178 54.8638C53.023 54.9086 53.1067 54.9339 53.1788 54.9768C53.5158 55.1755 53.8664 55.3157 54.2716 55.2923C54.3904 55.2845 54.5385 55.3332 54.63 55.4073C54.7528 55.5066 54.8774 55.5533 55.0274 55.5865C55.119 55.6059 55.2047 55.6956 55.2748 55.7715C55.3586 55.865 55.4229 55.9761 55.4988 56.0832C55.6196 56.0696 55.7248 56.0618 55.828 56.0442C56.0832 56.0014 56.1923 55.8319 56.1261 55.5943C56.0813 55.4384 55.98 55.3235 55.828 55.2826C55.5008 55.1949 55.1716 55.1229 54.817 55.0391C54.6593 54.7683 54.482 54.4761 54.3184 54.1762C54.293 54.1294 54.3184 54.0534 54.3184 53.9872C54.4508 53.9541 54.5852 53.921 54.6982 53.8937C54.7099 53.7418 54.7411 53.6152 54.7216 53.4983C54.7119 53.4398 54.6145 53.3658 54.5502 53.358C54.4859 53.3502 54.3788 53.4028 54.3515 53.4593C54.2677 53.6346 54.2677 53.8236 54.3379 54.0106L54.334 54.0067ZM77.5281 92.124C77.3878 92.0442 77.2866 91.9701 77.1736 91.9234C76.8619 91.7929 76.7119 91.5766 76.7061 91.228C76.7002 90.9319 76.5911 90.6358 76.7859 90.3533C76.8229 90.2988 76.7918 90.1897 76.7781 90.1079C76.7022 89.6092 76.4782 89.1651 76.221 88.7463C76.0126 88.4093 76.0165 88.0528 76.0184 87.6905C76.0184 87.5542 76.1899 87.4119 76.334 87.4334C76.4782 87.4529 76.6165 87.5093 76.7489 87.5464C76.9567 87.3503 77.0268 87.1548 76.9593 86.96C76.9262 86.8626 76.5775 86.2841 76.5483 86.2179C76.4236 85.9237 76.1139 85.9666 75.8938 85.8575C75.4438 85.6335 74.9529 85.5789 74.4562 85.6549C73.9828 85.7289 73.5231 85.7465 73.1238 85.466C72.8102 85.653 73.003 85.9042 72.9913 86.1224C72.9738 86.4945 73.2115 86.7068 73.5251 86.9386C73.8835 86.9113 74.2848 86.8802 74.7192 86.8451C74.7192 86.9756 74.7036 87.0983 74.7231 87.2152C74.7425 87.3418 74.7776 87.4723 74.838 87.5834C74.9958 87.8736 74.9393 88.1249 74.7172 88.3431C74.5263 88.5301 74.3978 88.7463 74.3588 89.0112C74.3374 89.1593 74.3432 89.317 74.3004 89.4573C74.1484 89.956 74.3023 90.3904 74.5594 90.8033C74.8322 91.2397 75.1165 91.6663 75.3951 92.0968C75.475 92.2195 75.5178 92.3889 75.6289 92.4649C75.9756 92.7065 76.2405 93.024 76.4275 93.3824C76.6379 93.7817 77.0294 93.9804 77.2982 94.3077C77.3508 94.37 77.5164 94.409 77.5865 94.3739C77.8495 94.2375 78.1066 94.0798 78.3423 93.8986C78.4845 93.7895 78.4144 93.5343 78.2508 93.4759C78.2099 93.4623 78.167 93.4545 78.1242 93.4506C77.7774 93.4116 77.6197 93.1856 77.5028 92.8818C77.4054 92.6266 77.4171 92.385 77.5242 92.124H77.5281ZM75.7438 47.7518C75.66 48.1414 76.036 48.3343 76.1606 48.6226C75.9581 48.9167 75.7672 49.1738 75.5996 49.4446C75.1867 50.1147 75.2549 50.5686 75.8237 51.1023C75.9814 51.2484 76.1236 51.412 76.2892 51.5484C76.5385 51.7549 76.8191 52.0042 77.1385 51.9555C77.5223 51.8971 77.943 51.9165 78.282 51.6205C78.5177 51.414 78.7904 51.2211 79.1527 51.2718C79.2851 51.2913 79.8539 50.9562 79.8968 50.8413C80.0137 50.5335 80.2825 50.3913 80.526 50.2179C80.6604 50.1205 80.7967 50.027 80.9351 49.9296C80.711 49.5751 80.4461 49.8946 80.1812 49.8167C80.0819 49.6745 79.963 49.505 79.8578 49.3569C79.778 49.3569 79.7293 49.3433 79.6923 49.3589C79.3767 49.4953 79.0748 49.5634 78.8176 49.2479C78.7943 49.2206 78.7397 49.2128 78.6988 49.205C78.1729 49.1096 77.7346 48.8972 77.5106 48.3674C77.4833 48.3031 77.3742 48.2778 77.3099 48.2271C77.2457 48.1765 77.1658 48.1278 77.1346 48.0577C77.0372 47.8434 76.9515 47.6213 76.8775 47.3973C76.7742 47.0876 76.7041 46.7779 76.8658 46.4584C76.9126 46.3688 76.9242 46.25 76.9184 46.1467C76.8931 45.7026 76.8561 45.2585 76.8229 44.8143C76.9671 44.6721 77.1989 44.5689 77.0548 44.2592H76.3476C76.2074 44.9955 76.3535 45.7494 76.2697 46.4526C75.8743 46.8012 75.4107 46.6396 75.0133 46.7331C74.8438 47.0214 74.912 47.2434 75.1652 47.411C75.3445 47.5298 75.5334 47.6311 75.7418 47.7538L75.7438 47.7518ZM76.26 36.2337C76.1158 36.4051 76.2152 36.7362 75.8782 36.7713C75.8295 36.7771 75.7886 36.8999 75.7496 36.97C75.7087 37.044 75.6951 37.1609 75.6347 37.1901C75.2958 37.3596 75.2003 37.7141 75.0036 37.9888C74.8692 38.1758 74.6977 38.3491 74.7737 38.6238C74.7912 38.6881 74.7289 38.7874 74.6802 38.8497C74.6003 38.951 74.5029 39.0368 74.4094 39.1264C74.2322 39.2958 74.1932 39.4887 74.314 39.74C74.6958 39.74 74.762 40.1295 75.0153 40.3575C75.1458 40.3399 75.2899 40.3185 75.4302 40.299C75.5509 40.0146 75.6542 39.7555 75.773 39.5043C75.9016 39.2335 76.0555 38.9725 76.1801 38.6998C76.26 38.5244 76.3827 38.3277 76.3613 38.1563C76.3106 37.7667 76.5347 37.568 76.7723 37.3459C76.9535 37.1765 77.156 37.1239 77.3586 37.2563C77.6742 37.4628 78.017 37.4141 78.3599 37.4122C78.5566 37.4122 78.6754 37.3167 78.7456 37.1317C78.9189 36.67 78.8624 36.1967 78.7709 35.7369C78.7222 35.4954 78.6189 35.2383 78.3618 35.098C78.0735 35.1701 77.7755 35.322 77.4969 35.2909C77.195 35.2577 76.9126 35.0552 76.595 34.913C76.3691 35.061 76.1217 35.2227 75.8762 35.3863C75.6211 35.5558 75.4672 35.8811 75.0503 35.9103C75.1049 35.6902 75.1497 35.5129 75.1984 35.3103C75.0776 35.1701 74.9568 35.0298 74.8127 34.8643C74.6568 34.9909 74.5322 35.0902 74.4172 35.1837C74.0608 35.0805 74.2458 34.6402 73.9225 34.5039C73.7413 34.5195 73.529 34.539 73.3517 34.5565C73.0634 34.7961 72.9543 35.0707 72.9037 35.4038C72.8667 35.6512 72.9115 35.9181 72.7517 36.1538C72.6797 36.259 72.7362 36.4246 72.8706 36.4811C73.153 36.6018 73.3517 36.8161 73.5212 37.0654C74.0393 36.8979 74.5263 36.7421 75.0133 36.5843C75.0328 36.5784 75.0562 36.5707 75.0717 36.557C75.3932 36.2531 75.81 36.2492 76.2561 36.2298L76.26 36.2337ZM78.6637 74.5127C78.9111 74.3296 79.0494 74.088 79.3514 74.09C79.4585 74.09 79.6202 73.9906 79.6669 73.8952C79.7624 73.6945 79.9299 73.6127 80.1072 73.5465C80.413 73.4316 80.5961 73.2212 80.6955 72.9309C80.5766 72.7089 80.4266 72.5336 80.1831 72.6056C79.9026 72.6894 79.6864 72.629 79.4722 72.4518C79.3942 72.3855 79.2851 72.3154 79.1916 72.3154C78.8761 72.3154 78.6131 72.1771 78.3326 72.0096C77.9313 72.3037 77.458 72.068 77.0586 72.2141C76.897 72.1206 76.7704 72.0388 76.6379 71.9687C75.9931 71.6278 75.3289 71.3219 74.764 70.8427C74.6958 70.7843 74.5692 70.796 74.4601 70.7746C74.353 70.9927 74.2595 71.1817 74.166 71.3687C73.8777 71.3297 73.6049 71.2869 73.3439 71.4077C73.2641 72.029 73.4063 72.2745 73.9517 72.4128C74.0822 72.4459 74.1698 72.516 74.275 72.5862C74.5964 72.7965 74.8886 73.0751 75.362 72.8725C75.6405 72.7517 75.9522 72.8667 76.073 73.2309C76.0964 73.303 76.1762 73.3731 76.2483 73.4121C76.8035 73.714 77.2807 74.2146 78.0034 74.1036C78.1885 74.0763 78.3307 74.164 78.4358 74.3257C78.4787 74.3919 78.5644 74.4328 78.6676 74.5146L78.6637 74.5127ZM70.9109 84.2972C70.9967 84.2349 71.0882 84.1823 71.1661 84.1141C71.3823 83.9232 71.6317 83.7673 71.9141 83.781C72.3271 83.8024 72.7771 83.6232 73.1511 83.9602C73.2056 84.0089 73.3225 84.0401 73.3887 84.0186C73.6926 83.9154 73.9751 83.9816 74.2653 84.0771C74.4056 84.1238 74.5263 84.0362 74.5731 83.9076C74.6315 83.7498 74.6568 83.5784 74.7114 83.3563C74.6179 83.2395 74.5302 83.0291 74.3783 82.957C73.9264 82.7447 73.4939 82.5265 73.19 82.1135C73.1667 82.0824 73.1199 82.0629 73.081 82.0454C72.8316 81.9324 72.6816 81.7181 72.5492 81.498C72.1537 80.8376 71.7193 80.2085 71.1642 79.6689C71.0843 79.5929 71.0044 79.4975 70.8993 79.5754C70.8525 79.6104 70.8486 79.7273 70.8506 79.8052C70.8545 79.9026 70.8856 80 70.9129 80.1305C70.7687 80.152 70.6655 80.1637 70.5642 80.1851C70.4668 80.2065 70.3714 80.2435 70.2954 80.2669C70.2038 80.6565 70.2642 80.9857 70.3928 81.3129C70.4395 81.4298 70.5175 81.5818 70.4785 81.6772C70.2973 82.1174 70.6051 82.5655 70.4298 82.9979C70.5954 83.2628 70.4454 83.5414 70.4434 83.7907C70.6071 83.968 70.7493 84.1258 70.909 84.3011L70.9109 84.2972ZM86.5373 49.4018C86.5782 49.1563 86.8997 49.0881 86.7204 48.8407C86.3094 48.7823 86.3055 48.7745 86.1068 48.868C85.912 48.9596 85.7114 49.02 85.503 49.0745C85.1095 49.1797 84.7355 49.3492 84.6829 49.8439C84.6809 49.8712 84.6225 49.8907 84.5738 49.9257C84.4842 49.8887 84.3595 49.8732 84.2933 49.8011C84.1472 49.6472 84.0128 49.4758 83.9076 49.2907C83.8375 49.168 83.8628 49.0005 83.6661 48.9557C83.5044 48.9187 83.3583 48.8174 83.1966 48.7862C82.9395 48.7356 82.7856 48.8193 82.6726 49.055C82.583 49.244 82.5148 49.4446 82.4291 49.6628C82.7291 49.8225 82.9181 50.0368 83.0583 50.3153C83.1635 50.5218 83.3388 50.6952 83.4947 50.8705C83.6096 50.9991 83.7459 51.0965 83.9329 51.1198C84.0576 51.1335 84.1725 51.2153 84.2972 51.2328C84.8154 51.3029 85.0335 51.6146 85.0452 52.1113C85.0452 52.1445 85.0959 52.1756 85.1329 52.2185C85.4387 52.3003 85.7017 52.1328 85.9997 52.0549V51.4432C86.1789 51.3361 86.3484 51.1822 86.5432 51.1296C86.7672 51.0692 86.9776 51.0341 87.1899 50.9017C87.3788 50.7848 87.6262 50.7828 87.7022 50.5062C87.7139 50.4614 87.8522 50.4517 87.9301 50.4225C88.2281 50.3114 88.5281 50.2063 88.8203 50.0796C88.8768 50.0543 88.9314 49.9316 88.9177 49.8693C88.9041 49.8069 88.8067 49.7271 88.7385 49.7212C88.5262 49.7017 88.3158 49.7212 88.123 49.5907C87.8386 49.3959 87.521 49.4154 87.2542 49.4504C87.0964 49.5478 87.186 49.7563 86.9815 49.766C86.8451 49.653 86.699 49.5323 86.5393 49.4018H86.5373ZM62.3127 85.4173C62.3225 85.1445 62.3225 84.866 62.3478 84.5894C62.3653 84.4004 62.3887 84.2017 62.4608 84.0284C62.6634 83.5453 62.977 83.1343 63.3821 82.8031C63.5964 82.6278 63.8321 82.4642 64.1808 82.5557C64.3327 82.7797 64.4944 83.0291 64.6697 83.2687C64.8704 83.5433 65.1178 83.781 65.1742 84.1433C65.1996 84.3011 65.4314 84.3634 65.5385 84.2485C65.8521 83.9057 66.269 83.629 66.3157 83.0602C66.2846 82.9843 66.2437 82.8635 66.1872 82.7486C66.0761 82.5285 65.895 82.3551 65.669 82.2928C65.3632 82.209 65.0379 82.1252 64.7282 82.1525C64.3561 82.1837 64.1243 81.9967 63.8886 81.7902C63.799 81.7123 63.7717 81.5662 63.6958 81.4668C63.6237 81.3714 63.5263 81.2974 63.4211 81.1961C62.5445 81.8389 61.9115 82.6707 61.2043 83.4031C61.2569 83.7148 61.2608 83.9855 61.144 84.2563C61.0972 84.3673 61.0816 84.5154 61.1089 84.6322C61.2082 85.0588 61.331 85.4796 61.4459 85.9062C61.7303 85.7445 61.9855 85.6004 62.3147 85.4153L62.3127 85.4173ZM55.5806 71.6667C55.6722 71.8654 55.7209 71.9726 55.7696 72.0797C56.1494 72.2238 56.5234 72.368 56.876 72.5024C56.9909 72.4401 57.0708 72.407 57.1409 72.3563C57.3474 72.2102 57.4156 71.955 57.2929 71.8128C57.1273 71.618 56.8507 71.5635 56.6871 71.7427C56.541 71.9024 56.3968 71.9122 56.2293 71.8557C56.1085 71.8148 56.0014 71.7388 55.8923 71.6823C55.8436 71.5187 55.7462 71.3745 55.793 71.2031C56.1553 71.1758 56.1592 71.17 56.4358 71.359C56.578 71.4564 56.726 71.4719 56.8565 71.3882C56.9851 71.3083 57.0689 71.2927 57.1916 71.3979C57.2344 71.4349 57.3922 71.4193 57.4253 71.3745C57.5383 71.2226 57.6571 71.0551 57.5929 70.8447C57.55 70.7025 57.4896 70.5661 57.4331 70.4161C57.1565 70.3265 56.8741 70.2369 56.5566 70.1356C56.5897 70.0382 56.6208 69.9642 56.6364 69.8883C56.6988 69.5824 56.613 69.4461 56.3189 69.3779C56.091 69.3253 55.865 69.2708 55.5962 69.2084C55.5378 69.2435 55.4306 69.2824 55.3605 69.3565C55.1774 69.5532 54.9768 69.6759 54.6943 69.6409C54.6593 69.637 54.6145 69.7246 54.5521 69.7948C54.6748 69.9253 54.7956 70.0421 54.9008 70.1727C54.9612 70.2467 54.9963 70.3421 55.0547 70.4493C54.8969 70.5135 54.78 70.5622 54.6612 70.6071C54.2814 70.7454 53.8957 70.872 53.5197 71.0239C53.3249 71.1038 53.3171 71.2674 53.4769 71.431C53.5217 71.4758 53.5704 71.5187 53.621 71.5576C54.0203 71.8674 54.4197 72.1751 54.8131 72.479C55.1443 72.2777 55.3988 72.0063 55.5767 71.6648L55.5806 71.6667ZM83.0427 59.0032C83.3018 58.7577 83.5881 58.6428 83.9057 58.5629C84.1706 58.4967 84.4199 58.3564 84.6673 58.2298C84.9887 58.0662 85.3082 57.8928 85.6121 57.7C85.6705 57.663 85.6647 57.5208 85.688 57.4253C85.1972 57.3279 85.1952 57.3221 84.8991 57.4C84.6537 57.4643 84.4121 57.5461 84.1706 57.6221C84.0264 57.6688 83.8687 57.7389 83.7401 57.6299C83.52 57.4448 83.3096 57.5052 83.0797 57.5909C82.7388 57.7156 82.3902 57.8091 82.0746 57.6825C81.8993 57.5208 81.7493 57.402 81.6227 57.2598C81.5019 57.1253 81.4065 56.9676 81.3013 56.8215C81.2545 56.8137 81.2097 56.7942 81.1708 56.8039C80.6468 56.9228 80.2143 56.7572 79.8462 56.389C79.8306 56.3734 79.8228 56.352 79.8091 56.3306C79.8539 56.1631 79.8987 55.9916 79.9435 55.8183C79.5871 55.68 79.3124 55.8319 79.0378 55.9351C78.8235 56.017 78.7553 56.2468 78.9209 56.4027C79.1371 56.6052 79.2072 56.876 79.3475 57.1117C79.4975 57.3649 79.6533 57.6143 79.8033 57.8656C79.8676 57.9727 79.9241 58.0857 79.9845 58.1987C80.0916 58.2045 80.1773 58.222 80.2591 58.2123C80.4286 58.1909 80.5961 58.1577 80.7636 58.1188C80.9351 58.0798 81.0948 58.0681 81.2623 58.1558C81.7298 58.4032 82.2869 58.4655 82.6863 58.861C82.7564 58.9291 82.881 58.9408 83.0408 59.0012L83.0427 59.0032ZM70.3616 46.7974C70.1746 46.9649 70.0577 47.0486 69.9701 47.1577C69.9194 47.2181 69.9155 47.3194 69.8961 47.4032C69.8045 47.8298 69.526 48.1687 69.337 48.5466C69.2708 48.6791 69.1695 48.8661 68.9338 48.7843C68.889 48.3713 68.9455 47.9349 68.7098 47.5804C68.6494 47.5668 68.6221 47.5512 68.6085 47.559C68.2656 47.7324 67.9228 47.9096 67.58 48.0849C67.4007 48.4999 66.904 48.3947 66.6372 48.6654C66.6235 48.6791 66.6216 48.7024 66.5982 48.7609C66.6566 48.8446 66.7092 48.9654 66.7988 49.0453C67.2839 49.4738 67.8215 49.8225 68.4448 50.0738C68.6085 49.9394 68.7702 49.805 68.924 49.6784C69.1597 49.8225 69.2727 50.0952 69.5708 50.1361C69.9564 49.7777 70.272 49.3453 70.7434 49.0628C70.7434 48.8739 70.7259 48.7044 70.7473 48.5369C70.8077 48.0421 70.8447 47.559 70.4843 47.1441C70.4337 47.0856 70.4279 46.9902 70.3636 46.8012L70.3616 46.7974ZM37.5992 70.9986C37.2953 71.3142 36.8862 71.4817 36.857 71.9609C36.8531 72.0154 36.8064 72.0855 36.7596 72.1187C36.4635 72.3232 36.2064 72.5803 35.8558 72.705C35.4954 72.8335 35.1272 72.9602 34.8 73.1511C34.611 73.2621 34.4494 73.3634 34.2234 73.3692C33.6565 73.3848 33.2786 73.714 32.9806 74.1601C32.9027 74.277 32.9865 74.4426 33.1248 74.4445C33.2085 74.4445 33.2923 74.4328 33.3741 74.4133C34.0461 74.2536 34.7338 74.1815 35.4116 74.2633C35.961 74.3296 36.3544 74.0646 36.7849 73.8387C36.9232 73.5835 37.1609 73.5095 37.4297 73.4822C37.568 73.4686 37.6732 73.3907 37.7024 73.2485C37.7706 72.9134 37.8427 72.5803 37.8914 72.2433C37.9225 72.0349 37.8758 71.8109 37.9323 71.6122C38.016 71.3142 37.868 71.1739 37.5992 70.9947V70.9986ZM58.7285 61.479C58.261 61.5218 58.0272 61.2589 57.7779 61.0212C57.6708 60.9199 57.5656 60.8089 57.3864 60.8673C57.2948 60.8966 57.1916 60.8966 57.1331 60.9044C57.063 60.7427 57.0416 60.6024 56.9598 60.5226C56.6773 60.2498 56.3092 60.2187 55.9391 60.2362C55.8709 60.2401 55.7813 60.3141 55.7423 60.3804C55.6683 60.5089 55.5884 60.6511 55.5728 60.7933C55.5592 60.9297 55.5767 61.1245 55.6644 61.2082C55.9858 61.5199 56.1942 61.9426 56.6111 62.1569C56.6832 62.1939 56.7397 62.266 56.7962 62.3302C57.0533 62.6166 57.3007 62.9127 57.5675 63.1873C57.6649 63.2886 57.8071 63.3432 57.9221 63.4152C58.2143 63.1698 58.5045 62.9692 58.4324 62.5523C58.4227 62.4978 58.4577 62.4237 58.4948 62.377C58.672 62.1413 58.6311 61.8549 58.7266 61.4809L58.7285 61.479ZM38.5615 65.7859C38.8361 65.332 38.8985 65.0729 38.8361 64.7262C38.8069 64.5626 38.7251 64.4029 38.5595 64.4223C38.1933 64.4652 38.0375 64.2003 37.8758 63.9977C37.1453 63.9646 36.4635 63.9178 35.7934 63.7425C35.6337 63.7016 35.4506 63.7172 35.285 63.7483C35.137 63.7756 35.0863 63.8964 35.1448 64.0444C35.3922 64.1672 35.6396 64.2879 35.883 64.4126C36.1519 64.5509 36.3311 64.7749 36.3155 65.0749C36.298 65.4021 36.4674 65.593 36.6681 65.7586C36.9213 65.7742 37.1531 65.7917 37.3869 65.8015C37.6518 65.8112 37.7511 65.7158 37.7862 65.4314C37.7881 65.4099 37.7803 65.3885 37.7803 65.3671C37.7803 65.2736 37.8076 65.1898 37.9128 65.1859C37.9712 65.184 38.0355 65.2074 38.0862 65.2366C38.2907 65.3612 38.2498 65.6885 38.5595 65.7859H38.5615ZM92.9675 51.1627C92.574 51.301 92.2097 51.5094 91.937 51.8464C91.9117 51.8776 91.8611 51.8873 91.8241 51.9088C91.5124 52.0938 91.3897 52.2068 91.1325 52.6003C91.0507 52.723 90.928 52.7386 90.8131 52.7892C90.6611 52.8574 90.6241 52.9899 90.667 53.1847C91.2397 53.134 91.7091 52.8925 92.1727 52.6353C92.4006 52.2808 92.7883 52.1932 93.1487 52.0724C93.3396 52.0081 93.4915 51.9068 93.6337 51.7724C93.7584 51.6555 93.8811 51.5172 94.033 51.4549C94.4323 51.2893 94.7109 50.9211 95.1433 50.814C95.2115 50.7965 95.27 50.6991 95.3109 50.627C95.3381 50.5783 95.3479 50.4965 95.3226 50.4536C95.2992 50.4108 95.2115 50.3679 95.1687 50.3796C94.7421 50.5043 94.3233 50.4712 93.9045 50.3387C93.8032 50.3075 93.6941 50.2978 93.5869 50.29C93.1564 50.2569 92.9207 50.5082 92.9694 50.9465C92.9753 51.0069 92.9694 51.0672 92.9694 51.1666L92.9675 51.1627ZM45.3793 43.2774C44.9176 43.4527 44.9215 43.4547 44.7053 43.6612C44.5981 43.7625 44.4949 43.8832 44.3644 43.9417C44.1598 44.0313 44.004 44.152 43.8696 44.3313C43.7858 44.4403 43.63 44.4929 43.4995 44.5748V45.0871C43.7235 45.1922 43.9241 45.2702 44.1092 45.3754C44.2358 45.4474 44.3761 45.537 44.4501 45.6559C44.6313 45.9422 44.9195 46.1545 45.0169 46.5013C45.0462 46.6026 45.1182 46.7506 45.2877 46.7116C45.3871 46.2519 45.502 45.7981 45.578 45.3383C45.615 45.1124 45.5974 44.8728 45.5741 44.641C45.5585 44.4735 45.4494 44.3079 45.4611 44.1482C45.4747 43.9709 45.576 43.7995 45.6442 43.6183C45.5546 43.5034 45.463 43.3865 45.3773 43.2774H45.3793ZM92.8019 56.9559C92.9733 57.1039 93.1019 57.0221 93.246 56.9676C93.7798 56.763 94.2901 56.4708 94.9038 56.5604C95.081 56.5858 95.2739 56.5098 95.5544 56.463C95.3245 56.1202 95.4219 55.8085 95.4803 55.493C95.4979 55.3975 95.4667 55.2943 95.4609 55.228C95.081 55.1365 94.7518 55.0547 94.4207 54.9787C94.3583 54.9651 94.2921 54.967 94.2278 54.969C94.0096 54.9729 93.6999 55.154 93.7116 55.3625C93.7311 55.6917 93.5012 55.8144 93.3298 55.9877C93.0513 56.2663 92.9363 56.6189 92.8019 56.9559ZM41.7931 58.6155C41.7132 58.711 41.6704 58.7577 41.6334 58.8084C41.3159 59.235 41.0918 59.2953 40.5951 59.1551C40.4159 59.1044 40.299 58.9973 40.1646 58.8902C40.0497 58.7986 39.9231 58.7012 39.74 58.8064C39.8802 59.1356 40.2289 59.2856 40.4042 59.57C40.6049 59.8973 40.9516 60.0336 41.1775 60.2713C41.2827 60.2713 41.347 60.2713 41.4113 60.2713C41.7795 60.2771 42.1379 60.2752 42.4106 59.9518C42.4846 59.8641 42.6443 59.8525 42.7573 59.794C42.8859 59.7278 43.0086 59.646 43.1021 59.5895C43.1625 59.3596 43.0865 59.2077 43.0086 59.0499C42.9268 58.8843 42.8645 58.709 42.8041 58.5629C42.4944 58.5025 42.4145 58.7791 42.2061 58.8629C42.0872 58.7908 41.9626 58.7149 41.7931 58.6116V58.6155ZM58.935 64.7009C58.7792 64.547 58.709 64.3074 58.4422 64.2451C58.1363 64.173 57.8519 63.9938 57.5149 64.1555C57.1741 64.3191 56.8254 64.2373 56.5449 64.0289C56.2566 63.8146 55.9176 63.7815 55.604 63.6568C55.4112 63.5789 55.2573 63.649 55.2164 63.7639C55.1677 63.8964 55.2962 64.0386 55.5378 64.0542C55.867 64.0756 56.1222 64.1886 56.2468 64.508C56.3111 64.6697 56.4572 64.7145 56.5916 64.773C56.7124 64.8275 56.8117 64.882 56.8702 65.0145C56.952 65.1957 57.1117 65.2658 57.2948 65.1762C57.4409 65.1041 57.552 65.1275 57.7078 65.1625C58.1831 65.2716 58.6486 65.2522 58.935 64.7028V64.7009ZM93.9337 78.1748C93.998 78.2196 94.0505 78.2566 94.1012 78.2917C94.7031 78.7008 95.3888 78.8274 96.0959 78.8839C96.1173 78.8839 96.1387 78.8839 96.1602 78.8839C96.2985 78.8722 96.4076 78.8098 96.4543 78.6774C96.5011 78.5449 96.4718 78.3988 96.355 78.3345C96.0082 78.1417 95.7647 77.8612 95.5816 77.5164C95.5329 77.4248 95.4433 77.3547 95.3693 77.2788C95.2291 77.1327 95.0674 77.082 94.9174 77.1814C94.5473 77.4248 94.1343 77.6294 93.9337 78.1748ZM85.5712 71.4018C85.4874 71.6979 85.4816 71.9433 85.3588 72.1849C85.1679 72.5589 85.3588 72.9641 85.6919 73.2621C85.9471 73.49 86.251 73.5504 86.586 73.6303C86.6484 73.5445 86.7419 73.4686 86.7594 73.377C86.7984 73.19 86.7964 72.9933 86.812 72.8024C86.8256 72.6232 86.7906 72.4615 86.662 72.3271C86.4555 72.1128 86.3815 71.8557 86.3893 71.5596C86.3912 71.4427 86.3367 71.3258 86.2997 71.1778C86.0426 71.2577 85.8224 71.3239 85.5731 71.4018H85.5712ZM75.6269 42.1476C75.7925 42.5391 75.6016 43.0028 76.0535 43.256C76.4567 43.482 76.8171 43.854 77.3372 43.5852C77.4502 43.3768 77.6391 43.18 77.6528 42.9696C77.6742 42.6638 77.7872 42.397 77.8729 42.1184C77.6567 41.9606 77.4482 42.0074 77.2456 42.0541C77.1599 42.1768 77.082 42.2898 77.0022 42.4047C76.6788 42.1496 76.6807 42.1437 76.0262 42.0639C75.9133 42.0502 75.7905 42.1106 75.625 42.1476H75.6269ZM77.6274 76.9145C77.569 77.1015 77.4969 77.2612 77.4755 77.4268C77.4541 77.5865 77.4852 77.7521 77.493 77.9196C77.0158 77.8592 76.9749 77.8651 76.7684 78.0092C76.5288 78.1768 76.3691 78.3852 76.3944 78.7183C76.6963 78.878 76.9593 79.1001 77.3255 79.1702C77.645 78.6131 78.2664 78.3599 78.5878 77.8339C78.5021 77.6196 78.4358 77.419 78.3423 77.2339C78.2079 76.9632 78.0131 76.782 77.6274 76.9145ZM44.2553 50.6114C44.4598 50.7361 44.6157 50.8393 44.7793 50.925C44.828 50.9504 44.9001 50.9289 44.9721 50.9289C45.0306 50.7926 45.0871 50.6601 45.1455 50.5257C45.4416 50.6309 45.6403 50.4283 45.8799 50.3855C45.8039 49.8868 45.4143 49.8069 45.0754 49.7582C44.7364 49.7095 44.4033 49.6589 44.0761 49.5595C43.9339 49.5167 43.78 49.4875 43.6339 49.4914C43.5404 49.4933 43.4313 49.5498 43.3592 49.616C43.2696 49.6959 43.2813 49.8186 43.3573 49.9063C43.4878 50.0563 43.5774 50.2082 43.5833 50.4186C43.5852 50.5082 43.6651 50.6134 43.7391 50.6815C43.8716 50.8062 43.9417 50.9445 43.9612 51.1276C43.9709 51.2211 44.0332 51.3283 44.2008 51.2679C44.2183 51.0731 44.2378 50.8686 44.2611 50.6114H44.2553ZM62.2504 89.6307C62.4802 89.0794 62.3419 88.5807 62.0848 88.0976C62.0498 88.0314 61.9621 87.9632 61.89 87.9496C61.5978 87.895 61.2998 87.8561 61.0037 87.8249C60.8712 87.8113 60.7661 87.9437 60.8206 88.0801C60.881 88.232 60.8868 88.3411 60.7992 88.4911C60.6842 88.6859 60.7037 88.8982 60.8946 89.0658C61.1323 89.2742 61.4829 89.3053 61.6757 89.582C61.8627 89.5975 62.0498 89.6131 62.2504 89.6307ZM82.248 65.895C82.2694 65.9515 82.2772 66.0235 82.3181 66.0606C82.7798 66.5008 83.2141 66.9624 83.52 67.5312C83.5609 67.6053 83.6037 67.6851 83.668 67.7397C83.707 67.7728 83.8024 67.7884 83.8394 67.765C83.8803 67.7377 83.9135 67.6384 83.894 67.5975C83.8239 67.4514 83.67 67.3209 83.6544 67.1748C83.6271 66.9021 83.6641 66.6216 83.6953 66.3469C83.7167 66.158 83.7557 65.9671 83.8161 65.7859C83.8803 65.5892 83.9777 65.4002 84.0634 65.2015C83.744 64.9522 83.4479 64.8782 83.1323 65.1392C83.1323 65.184 83.1245 65.2268 83.1323 65.2677C83.2064 65.6398 83.144 65.7372 82.8051 65.7839C82.622 65.8093 82.4194 65.7352 82.2499 65.8969L82.248 65.895ZM89.6501 47.8843C89.4125 47.8668 89.1924 47.8083 88.9898 47.8453C88.2983 47.97 87.6301 48.1823 86.9698 48.4161C86.849 48.4589 86.8373 48.6576 86.9386 48.7375C87.2561 48.9829 87.6301 48.9829 87.9788 48.8992C88.2515 48.833 88.5203 48.7959 88.795 48.7609C89.0852 48.7239 89.3716 48.6537 89.6521 48.5992V47.8863L89.6501 47.8843ZM96.166 65.3535C96.3881 66.0508 96.6238 66.5943 96.8965 67.1202C97.0796 67.4728 97.251 67.5059 97.7068 67.3131C97.6835 67.0579 97.6289 66.7969 97.738 66.5261C97.8354 66.2865 97.7146 66.0859 97.4906 65.932C97.1205 65.6768 96.7075 65.5405 96.1641 65.3535H96.166ZM51.0692 52.0178C51.4549 51.8464 51.4529 51.5776 51.3945 51.2874C51.301 50.8199 51.0673 50.4127 50.8199 50.0134C50.7712 49.9355 50.6874 49.879 50.592 49.7855C50.4147 50.253 50.2569 50.6679 50.103 51.0848C50.0212 51.3049 50.0368 51.3867 50.2355 51.5192C50.4985 51.6945 50.779 51.8445 51.0692 52.0178ZM44.5514 54.032C44.5007 53.7301 44.4618 53.5041 44.4228 53.2665C44.1228 53.1983 43.856 53.136 43.593 53.3561C43.5774 53.4768 43.5462 53.6035 43.5482 53.7301C43.554 54.0242 43.667 54.1586 43.9728 54.1762C44.1754 54.1878 44.3469 54.256 44.5222 54.3398C44.7131 54.4313 44.9079 54.517 45.1143 54.6105C45.2293 54.5248 45.3403 54.4606 45.4299 54.3729C45.537 54.2697 45.6247 54.1469 45.7104 54.0476C45.7104 53.9794 45.7163 53.9346 45.7104 53.8937C45.6344 53.432 45.5643 53.3989 45.2078 53.6463C45.0189 53.7788 44.8436 53.9366 44.5533 54.0301L44.5514 54.032ZM39.514 75.4438C39.5588 75.4243 39.6796 75.4087 39.7439 75.3405C40.1335 74.9237 40.5094 74.4951 40.8893 74.0685C40.9165 74.0374 40.9535 73.9984 40.9535 73.9614C40.9574 73.8621 40.9789 73.7393 40.9302 73.6692C40.8795 73.5971 40.7471 73.5329 40.6633 73.5465C40.4549 73.5796 40.2523 73.6497 40.0536 73.7218C39.9776 73.7491 39.8958 73.8056 39.8549 73.8718C39.6134 74.2478 39.3738 74.6237 39.1556 75.0113C39.0407 75.2159 39.216 75.4477 39.516 75.4438H39.514ZM47.8161 43.6086C47.7986 43.5151 47.8064 43.4313 47.7713 43.4001C47.446 43.1235 47.1207 42.8469 46.7779 42.5917C46.6571 42.5021 46.5052 42.5314 46.3532 42.6151C46.0046 42.808 46.0065 43.1839 45.8721 43.4859C45.8546 43.5268 45.9364 43.6573 45.9948 43.6787C46.6065 43.891 47.2064 43.7839 47.8161 43.6086ZM79.2053 80.0059C79.1196 80.0117 79.0553 80.0059 78.9949 80.0215C78.6579 80.1052 78.5683 80.2688 78.7787 80.5026C78.993 80.7422 79.0202 81.163 79.4429 81.2136C79.4858 81.2194 79.5131 81.3168 79.5559 81.3655C79.9377 81.8058 80.1831 81.8097 80.6662 81.3889C80.2241 80.8766 79.5618 80.6 79.2053 80.0059ZM61.5589 32.2852C61.2628 32.4702 61.0368 32.6222 60.7992 32.7546C60.4836 32.93 60.1856 32.9319 59.9401 32.6241C59.9148 32.591 59.8758 32.5521 59.8388 32.5482C59.7395 32.5365 59.5914 32.5014 59.5466 32.5501C59.3986 32.7196 59.2252 32.8111 59.0149 32.8696C58.9584 32.8852 58.8941 33.002 58.898 33.0702C58.9019 33.1364 58.972 33.2221 59.0382 33.2553C59.3129 33.3955 59.6031 33.4384 59.909 33.3624C60.2187 33.2845 60.5362 33.2338 60.8401 33.1403C61.1401 33.0488 61.4693 33.0157 61.7361 32.7585C61.6796 32.6085 61.6232 32.4566 61.5589 32.2871V32.2852ZM73.6556 60.1505C73.6459 60.3511 73.455 60.542 73.6497 60.7816C73.7277 60.7777 73.8504 60.8089 73.9264 60.7602C74.1036 60.6472 74.3062 60.5284 74.4133 60.3589C74.5633 60.1213 74.7659 60.0005 75.0075 59.9051C75.1165 59.8622 75.1769 59.7843 75.1458 59.6674C74.8964 59.5505 74.6549 59.4376 74.4133 59.3226C74.2069 59.2252 74.0413 59.2876 73.8991 59.4473C73.7608 59.6012 73.6244 59.7551 73.4744 59.9226C73.5309 59.9927 73.5933 60.0706 73.6575 60.1485L73.6556 60.1505ZM34.7649 70.196C34.9578 70.2408 35.1409 70.2993 35.3279 70.3207C35.5227 70.3441 35.6512 70.2233 35.6863 70.0402C35.7584 69.6448 35.8402 69.2513 35.8967 68.8539C35.9084 68.774 35.8266 68.6825 35.7876 68.5968C35.4798 68.6981 35.4077 68.9922 35.2013 69.1286C34.9772 69.2747 34.7162 69.3623 34.4825 69.4714C34.4747 69.5357 34.4552 69.5863 34.4688 69.6175C34.5604 69.8084 34.6597 69.9934 34.763 70.196H34.7649ZM88.4346 71.5382C88.5496 71.5382 88.6002 71.5537 88.6314 71.5362C88.8515 71.4018 89.0677 71.2986 89.3424 71.2771C89.582 71.2577 89.8079 71.0999 90.0417 71.0064C90.0982 70.983 90.1625 70.9577 90.2209 70.9616C90.3611 70.9713 90.515 71.0862 90.6183 70.8934C90.6806 70.7785 90.6066 70.7025 90.3339 70.5369C90.217 70.4668 90.106 70.4454 89.9696 70.459C89.8469 70.4726 89.7066 70.4668 89.5976 70.4181C89.3346 70.2993 89.1106 70.4064 88.945 70.5622C88.684 70.8057 88.4541 71.094 88.4327 71.5382H88.4346ZM44.0956 76.9009C44.1696 76.8288 44.2456 76.7197 44.3507 76.6554C44.4559 76.5911 44.5981 76.5872 44.7072 76.5249C44.8553 76.4392 44.9897 76.3243 44.939 76.0749C44.4657 76.0652 44.006 75.9152 43.5657 75.7847C43.3378 75.9814 43.256 76.2775 42.9171 76.3145C42.7866 76.3282 42.7242 76.5307 42.7495 76.6944C42.7554 76.7314 42.7846 76.7801 42.8158 76.7957C42.8469 76.8112 42.9112 76.8112 42.9365 76.7898C43.0437 76.7002 43.143 76.5989 43.2385 76.5074C43.517 76.6885 43.7371 76.9067 44.0995 76.8989L44.0956 76.9009ZM34.8039 57.6318C35.1604 57.474 35.4973 57.3396 35.8207 57.176C35.9473 57.1117 36.0564 56.9968 36.1441 56.8819C36.185 56.8273 36.1889 56.7046 36.1538 56.6423C36.1226 56.5858 36.0213 56.5624 35.9454 56.5371C35.9084 56.5254 35.8597 56.5332 35.8188 56.5449C35.3902 56.6676 34.9558 56.763 34.5117 56.8293C34.3481 56.8526 34.1279 56.876 33.9955 57.1078C34.2078 57.3494 34.4396 57.55 34.8039 57.6338V57.6318ZM77.7209 66.6605C77.8904 66.7599 78.0151 66.9488 78.2352 66.8826C78.6053 66.7716 79.0611 66.8495 79.2832 66.4112C79.0066 66.2378 78.9813 66.2047 78.8995 66.2437C78.5371 66.417 78.3384 66.2398 78.1787 65.9417C78.1417 65.8716 78.0891 65.8073 78.0501 65.7489C77.9722 65.7762 77.906 65.782 77.9021 65.8034C77.8378 66.0878 77.7813 66.3742 77.7209 66.6605ZM68.9825 43.2716C69.1091 43.3514 69.2104 43.4352 69.3253 43.4839C69.4597 43.5404 69.6117 43.5969 69.7422 43.4664C69.8201 43.3904 69.7597 43.2131 69.6117 43.0807C69.5493 43.0242 69.4812 42.9677 69.4091 42.9248C69.1597 42.7729 68.9065 42.6288 68.6163 42.4593C68.5169 42.6852 68.5306 42.9268 68.3319 43.0865C68.2364 43.1625 68.2364 43.3651 68.439 43.4917C68.5929 43.4294 68.7663 43.3592 68.9825 43.2716ZM69.635 37.494C69.6409 37.3518 69.6487 37.2037 69.6545 37.0576C69.6584 36.9525 69.674 36.8434 69.6584 36.7421C69.6331 36.5862 69.5435 36.4538 69.3818 36.4304C69.2396 36.4109 69.1675 36.5161 69.1188 36.6525C69.0545 36.8278 68.9883 37.0089 68.7507 37.046C68.5929 37.0693 68.5734 37.2154 68.6046 37.3459C68.6357 37.4784 68.7234 37.5816 68.8656 37.5875C69.1188 37.5992 69.376 37.6148 69.635 37.492V37.494ZM56.8935 90.815C57.0085 91.041 57.137 91.1734 57.3201 91.1559C57.4838 91.1403 57.6104 91.1578 57.7273 91.2747C57.85 91.3974 57.9805 91.5124 58.2084 91.4072C58.3058 90.8929 57.887 90.6533 57.6221 90.2871C57.3649 90.4741 57.1448 90.6338 56.8955 90.8131L56.8935 90.815ZM61.2082 36.1596C61.1732 36.1908 61.1147 36.22 61.1147 36.2492C61.1128 36.7382 61.1108 37.2291 61.1264 37.718C61.1264 37.7706 61.2375 37.8485 61.3095 37.8641C61.4887 37.9069 61.666 37.8057 61.7244 37.6381C61.7965 37.4297 61.8121 37.2252 61.6972 37.0167C61.6154 36.8706 61.5589 36.709 61.5043 36.5492C61.4478 36.3837 61.366 36.2434 61.2063 36.1596H61.2082ZM48.2875 64.5879C47.7382 64.3756 47.5084 64.3444 47.148 64.4009C46.8987 64.4399 46.7759 64.5957 46.8207 64.8528C46.8383 64.9502 46.9142 65.0379 46.959 65.1197C47.1714 65.1548 47.3584 65.2074 47.5473 65.2093C47.6661 65.2113 47.7869 65.147 47.9038 65.1022C47.9272 65.0944 47.9311 65.0379 47.9428 65.0048C47.8629 64.9541 47.785 64.9054 47.6486 64.8197C47.8707 64.7379 48.0168 64.6853 48.2856 64.5879H48.2875ZM61.6933 87.186C61.8491 86.925 61.8978 86.6659 61.6913 86.4652C61.4985 86.2782 61.2511 86.1419 61.0134 86.0094C60.9492 85.9744 60.8323 86.0328 60.7251 86.0503C60.8187 86.3951 60.8381 86.7204 61.0972 86.9483C61.1907 87.0301 61.2784 87.1314 61.3894 87.1782C61.4771 87.2152 61.5939 87.186 61.6952 87.186H61.6933ZM65.6281 37.8836C65.5775 37.9303 65.558 37.942 65.5463 37.9595C65.3963 38.1894 65.2697 38.4465 64.9054 38.3413C64.8587 38.3277 64.7418 38.4621 64.699 38.5478C64.6386 38.6666 64.5178 38.8088 64.7262 38.9452C65.2736 38.7855 65.7508 38.4738 66.1989 38.1154C66.306 38.0297 66.3469 37.9069 66.1911 37.7842C66.0177 37.8134 65.8307 37.8466 65.6262 37.8816L65.6281 37.8836ZM37.8738 53.2723C37.7706 52.5048 37.4784 52.1737 36.7577 52.0334C36.6934 52.2457 36.6291 52.46 36.557 52.6996C36.672 52.7327 36.7499 52.7756 36.8278 52.7736C36.9077 52.7736 36.9875 52.7269 37.0674 52.7074C37.3537 52.6392 37.4161 52.6762 37.5115 52.984C37.5291 53.0425 37.5193 53.1243 37.5563 53.1613C37.6401 53.2431 37.7199 53.3736 37.8738 53.2743V53.2723ZM45.613 48.6421C45.537 49.0589 45.7611 49.2946 45.8857 49.5303C46.2851 49.69 46.4818 49.4349 46.6941 49.2381C46.7798 49.1602 46.7311 48.9537 46.6182 48.9148C46.3026 48.8037 45.9929 48.6674 45.613 48.6421ZM61.629 40.7178C61.3115 40.4665 60.955 40.4529 60.5888 40.375C60.5187 40.6419 60.6063 40.8347 60.6784 41.0159C60.8674 41.1288 61.0427 41.234 61.2199 41.3392C61.4439 41.2184 61.5413 41.01 61.629 40.7159V40.7178ZM88.9177 67.8176C89.2216 67.8897 89.4437 67.9442 89.6677 67.9968C89.9034 68.0533 90.0378 67.9306 90.0047 67.6871C89.9696 67.4241 89.8781 67.315 89.4417 67.0345C89.3268 67.3189 88.9937 67.4533 88.9177 67.8157V67.8176ZM61.216 95.7608C61.5998 95.7745 61.8374 96.0121 62.1842 95.9517C62.1744 95.6888 62.4802 95.5407 62.4004 95.2329C62.077 95.1609 61.7673 95.2524 61.4342 95.2719C61.3738 95.4063 61.3173 95.5349 61.216 95.7608ZM69.3156 62.0984C69.1656 61.8394 69.0273 61.6835 69.0059 61.4634C68.9903 61.3076 68.7994 61.218 68.663 61.2452C68.439 61.29 68.3708 61.4731 68.3124 61.6582C68.2656 61.8082 68.2715 61.9582 68.402 62.0692C68.4468 62.1062 68.5189 62.1277 68.5773 62.1277C68.7896 62.1277 69 62.1121 69.3156 62.0984ZM90.1936 54.2541C90.5832 54.6008 90.5793 55.043 90.9553 55.3099C91.0488 54.9086 91.2475 54.5716 91.0683 54.1976C90.8072 54.2151 90.5793 54.2287 90.1936 54.2541ZM38.1427 53.3385C38.2362 53.5509 38.3297 53.7554 38.4173 53.9619C38.4835 54.1158 38.5985 54.1839 38.764 54.1956C39.0114 54.2112 39.1478 54.0495 39.0309 53.8431C38.9082 53.6249 38.7524 53.4243 38.6218 53.2295C38.4232 53.1827 38.2595 53.173 38.1427 53.3366V53.3385ZM55.2514 74.7308C54.6787 75.1146 54.669 75.1321 54.817 75.4341C55.0683 75.397 55.3235 75.3834 55.5631 75.3133C55.7462 75.2607 55.9741 75.2373 56.0949 74.9899C55.7988 74.9003 55.5417 74.8204 55.2514 74.7328V74.7308ZM64.284 38.1933C64.175 37.9732 64.1243 37.831 64.0386 37.7122C63.9412 37.5777 63.801 37.5349 63.614 37.6693C63.6003 37.7901 63.5886 37.9362 63.5633 38.0803C63.536 38.2381 63.3588 38.4154 63.5497 38.5478C63.762 38.6978 63.8867 38.4718 64.0328 38.3667C64.1029 38.316 64.175 38.2673 64.2821 38.1913L64.284 38.1933ZM47.3642 66.0333C47.4168 66.3333 47.7499 66.4034 47.7772 66.6858C47.785 66.7618 48.0129 66.7229 48.0363 66.6274C48.0947 66.382 48.1512 66.1365 48.196 65.8872C48.2038 65.8385 48.1648 65.7567 48.122 65.7275C48.0772 65.6982 47.9642 65.6885 47.9447 65.7158C47.8045 65.9145 47.559 65.9378 47.3642 66.0333ZM79.7838 77.1658C80.5747 77.2963 80.9623 77.2378 81.2253 76.9671C81.2 76.9379 81.1727 76.8814 81.1474 76.8814C80.748 76.8911 80.3468 76.897 79.9494 76.932C79.8929 76.9359 79.8462 77.0742 79.7838 77.1677V77.1658ZM60.8148 55.1443C60.9336 55.4462 61.0251 55.6839 61.1186 55.9196C61.1342 55.9585 61.1576 55.9955 61.1849 56.0287C61.2589 56.1183 61.3524 56.1631 61.4673 56.1163C61.59 56.0657 61.6056 55.9683 61.5589 55.8553C61.5219 55.7618 61.4654 55.6722 61.442 55.5748C61.3719 55.2651 61.3017 55.2066 60.8128 55.1443H60.8148ZM49.6336 61.4595C49.2927 61.2628 49.0336 61.2959 48.7628 61.4634C48.8719 61.7011 49.0161 61.8491 49.2323 61.9153C49.2888 61.9329 49.3531 61.9173 49.4388 61.9173C49.4972 61.779 49.5537 61.6446 49.6316 61.4595H49.6336ZM95.8504 66.456C95.568 66.456 95.3888 66.5144 95.268 66.7657C95.6147 66.943 95.8894 67.2079 96.3589 67.0871C96.1699 66.8514 96.016 66.6625 95.8504 66.456ZM47.8142 67.093C47.9525 67.1806 48.0479 67.2858 48.1512 67.2955C48.4629 67.3267 48.7804 67.3287 49.055 67.0267C48.9615 66.978 48.8914 66.9079 48.831 66.9138C48.5096 66.9488 48.1609 66.8436 47.8142 67.091V67.093ZM54.3495 47.783C54.5034 47.9642 54.6476 48.1414 54.8911 48.0518C54.9865 48.0168 55.0469 47.8882 55.1209 47.8064C54.9748 47.5921 54.8502 47.4226 54.593 47.3564C54.5151 47.4947 54.4352 47.6369 54.3515 47.783H54.3495ZM74.1289 40.0458C73.8738 40.1257 73.7238 40.1256 73.6614 40.1997C73.4842 40.41 73.3439 40.6516 73.4764 40.9711C73.9809 40.9165 73.9283 40.486 74.1289 40.0438V40.0458ZM43.2872 67.4046C43.5833 67.5644 43.7781 67.4903 43.9651 67.3696C44.1073 67.278 44.0858 67.0988 43.928 67.0053C43.704 66.8748 43.5677 66.8923 43.4294 67.091C43.3709 67.1728 43.3437 67.2761 43.2872 67.4046ZM55.756 73.9692C55.7404 74.1328 55.7228 74.2887 55.7053 74.4698C56.1027 74.538 56.2663 74.3042 56.4572 74.0549C56.2312 73.8776 56.015 73.901 55.754 73.9692H55.756ZM83.2901 47.7012C83.6291 47.9077 83.7907 47.7557 83.9427 47.6038C84.0225 47.5239 84.0712 47.3993 83.966 47.3272C83.8959 47.2785 83.744 47.2668 83.6778 47.3097C83.5453 47.3993 83.4459 47.5376 83.2901 47.7012ZM67.2624 42.8508C67.2196 42.8606 67.1787 42.8703 67.1358 42.88C67.1202 43.0183 67.0774 43.1625 67.1008 43.295C67.1144 43.3748 67.2215 43.4625 67.3072 43.5014C67.4456 43.5638 67.6033 43.591 67.6813 43.369C67.5449 43.2015 67.4027 43.0242 67.2605 42.8489L67.2624 42.8508ZM78.354 58.3194C78.1787 58.3253 78.1027 58.4168 78.1125 58.6116C78.1203 58.7733 78.206 58.8726 78.3307 58.8649C78.5021 58.8551 78.6423 58.7207 78.6657 58.5473C78.6832 58.4129 78.5508 58.3155 78.354 58.3214V58.3194ZM64.1808 66.6839C64.3035 66.4346 64.2548 66.2924 64.0951 66.1716C64.0152 66.1112 63.9529 66.0274 63.8633 65.9339C63.76 66.0177 63.6802 66.082 63.5984 66.1463C63.6821 66.4521 63.9256 66.5436 64.1808 66.6839ZM91.8416 70.796C91.7169 70.8155 91.6293 70.9811 91.6974 71.0434C91.8377 71.172 91.9273 71.3258 92.0169 71.4895C92.0383 71.5304 92.1864 71.5479 92.2312 71.5148C92.2799 71.4797 92.3149 71.3453 92.2857 71.3025C92.1805 71.1544 92.0422 71.0317 91.976 70.8525C91.9624 70.8155 91.8708 70.8077 91.8416 70.796ZM47.9389 34.9578C47.9389 34.9266 47.9467 34.9013 47.9389 34.8857C47.8902 34.8 47.8395 34.7162 47.7889 34.6325C47.7071 34.6831 47.6077 34.7201 47.5454 34.7902C47.4597 34.8876 47.4324 35.0123 47.4986 35.1428C47.5493 35.2441 47.6213 35.3337 47.7363 35.3006C47.8025 35.2831 47.8609 35.1974 47.9018 35.1311C47.933 35.0805 47.9311 35.0104 47.9408 34.9578H47.9389ZM45.2429 65.6203C45.1767 65.5658 45.1085 65.4723 45.0208 65.445C44.9312 65.4177 44.8163 65.4392 44.7228 65.4703C44.6858 65.482 44.6449 65.595 44.6624 65.634C44.7053 65.7236 44.7676 65.8249 44.8514 65.8697C44.9721 65.9339 45.1027 65.8891 45.1923 65.7762C45.2176 65.745 45.2195 65.6963 45.2429 65.6223V65.6203ZM44.043 39.6465C44.0138 39.6874 43.9495 39.738 43.9514 39.7828C43.9573 39.8841 43.9748 39.9971 44.0274 40.0789C44.115 40.2172 44.3391 40.2406 44.417 40.1334C44.4968 40.0244 44.4326 39.9328 44.3605 39.849C44.304 39.7848 44.2475 39.7205 44.1813 39.6679C44.154 39.6465 44.1014 39.6542 44.041 39.6465H44.043ZM79.3261 77.1677C79.3085 77.0567 79.1839 76.9924 79.0241 77.0119C78.8644 77.0314 78.7943 77.1385 78.8176 77.3333C78.8332 77.4599 78.9092 77.5203 79.0319 77.5067C79.2209 77.4852 79.3494 77.3294 79.3261 77.1677ZM41.4016 76.523C41.6003 76.5931 41.7873 76.6242 41.9411 76.4723C42.0405 76.3749 42.1593 76.2697 42.0541 76.0652C41.7736 76.1275 41.497 76.1762 41.4016 76.5249V76.523ZM47.8103 48.5232C47.9038 48.6265 47.9953 48.7433 48.1005 48.8407C48.1434 48.8797 48.2213 48.8972 48.2797 48.8933C48.3362 48.8894 48.4161 48.8583 48.4395 48.8154C48.4629 48.7726 48.4492 48.681 48.4142 48.6401C48.2875 48.4823 48.1103 48.4102 47.9096 48.4083C47.8843 48.4083 47.859 48.4628 47.8083 48.5232H47.8103ZM81.2565 72.5764C81.1669 72.8861 81.2 72.9757 81.4026 73.0361C81.537 73.0751 81.5935 73.0147 81.6499 72.7595C81.5233 72.7011 81.3928 72.6407 81.2584 72.5784L81.2565 72.5764ZM66.7696 53.4632C66.5475 53.3152 66.3937 53.2119 66.2378 53.1126C66.2242 53.1028 66.1969 53.1165 66.1735 53.1184C66.0313 53.2411 66.1112 53.3444 66.2164 53.4262C66.3547 53.5333 66.4988 53.6853 66.7696 53.4632ZM81.2506 81.4688C81.2506 81.5779 81.2389 81.6986 81.2565 81.8155C81.2623 81.8564 81.3402 81.8973 81.3909 81.9149C81.4181 81.9246 81.4902 81.8934 81.4961 81.8701C81.5175 81.7727 81.5467 81.6655 81.5253 81.572C81.498 81.4629 81.4026 81.4084 81.2506 81.4668V81.4688ZM55.6819 73.4277C55.7404 73.34 55.8163 73.2679 55.8261 73.19C55.8319 73.1433 55.7404 73.0615 55.678 73.0361C55.5787 72.9952 55.4657 73.0089 55.4034 73.116C55.3761 73.1628 55.3566 73.264 55.3781 73.2796C55.456 73.3361 55.5514 73.3692 55.6819 73.4296V73.4277ZM70.646 38.7972C70.5019 38.6959 70.4181 38.6121 70.3168 38.5731C70.2214 38.5361 70.0909 38.6627 70.1142 38.7485C70.1512 38.8907 70.2603 38.9549 70.3947 38.9413C70.461 38.9355 70.5233 38.8712 70.646 38.7972ZM82.135 63.9996C82.0298 63.9061 81.9694 63.8204 81.8895 63.7931C81.8447 63.7795 81.7376 63.8535 81.7103 63.91C81.6597 64.0211 81.7863 64.1788 81.9051 64.1555C81.9733 64.1418 82.0298 64.0717 82.135 63.9977V63.9996ZM39.327 76.0944C39.1945 76.0418 39.066 75.9756 38.9277 76.1528C38.9608 76.2541 38.9998 76.371 39.0387 76.4859C39.2841 76.4489 39.3153 76.2911 39.327 76.0944ZM65.4645 89.5586C65.5405 89.4125 65.5775 89.2664 65.3729 89.2099C65.3262 89.1963 65.223 89.282 65.1918 89.3443C65.1392 89.4534 65.2191 89.5099 65.4645 89.5586ZM78.6112 57.7876C78.5683 57.8695 78.5118 57.9298 78.5254 57.961C78.5819 58.0857 78.691 58.15 78.8274 58.111C78.8566 58.1032 78.8897 57.9824 78.8722 57.9649C78.804 57.8987 78.7144 57.8558 78.6112 57.7876ZM88.5359 72.5453C88.6859 72.518 88.7463 72.4089 88.7132 72.2998C88.684 72.2044 88.6119 72.1751 88.5223 72.1946C88.4093 72.218 88.3392 72.3271 88.3937 72.4225C88.4268 72.4829 88.5028 72.518 88.5359 72.5453ZM85.5478 64.3697C85.3374 64.5061 85.2887 64.5918 85.3452 64.7126C85.3588 64.7437 85.4153 64.7827 85.4387 64.7749C85.4893 64.7593 85.5673 64.7204 85.5712 64.6834C85.5809 64.5879 85.5595 64.4866 85.5478 64.3697ZM69.1695 36.2863C69.0721 36.1967 69.0175 36.109 68.963 36.109C68.9046 36.109 68.7955 36.1908 68.7994 36.2337C68.8033 36.2979 68.8714 36.3875 68.9318 36.4109C68.9766 36.4265 69.0546 36.3505 69.1695 36.2882V36.2863ZM44.193 41.0431C44.1774 40.8737 44.0586 40.7665 43.9339 40.8055C43.893 40.8191 43.8365 40.9301 43.8482 40.9418C43.9144 41.0159 43.9923 41.0801 44.078 41.1288C44.0956 41.1386 44.1618 41.0685 44.193 41.0431ZM84.6128 87.9963C84.5154 87.9457 84.4647 87.897 84.418 87.9009C84.2972 87.9087 84.2095 88.0236 84.2543 88.1113C84.2777 88.16 84.3712 88.2262 84.3849 88.2164C84.4589 88.1639 84.5193 88.0898 84.6108 87.9963H84.6128ZM63.3744 68.6143C63.3042 68.7117 63.2516 68.7643 63.2321 68.8266C63.2263 68.8481 63.312 68.9299 63.3432 68.924C63.4114 68.9104 63.4698 68.8578 63.5341 68.8208C63.4912 68.7662 63.4503 68.7117 63.3744 68.6163V68.6143ZM43.3495 68.0104C43.4216 67.9364 43.4956 67.8897 43.4898 67.8585C43.48 67.8118 43.4196 67.7533 43.3709 67.7416C43.3281 67.7319 43.2716 67.7786 43.2209 67.802C43.258 67.8624 43.295 67.9247 43.3495 68.0124V68.0104ZM39.4712 58.5766C39.5549 58.5084 39.6153 58.4811 39.6406 58.4344C39.6854 58.3487 39.6562 58.261 39.5608 58.2376C39.5218 58.2279 39.4283 58.2824 39.4244 58.3155C39.4147 58.3857 39.4478 58.4636 39.4712 58.5766ZM77.83 59.0558C77.756 58.9759 77.719 58.9038 77.68 58.9038C77.608 58.9038 77.5242 58.9272 77.4677 58.972C77.4151 59.0129 77.4989 59.1356 77.5846 59.1317C77.6528 59.1278 77.7209 59.0928 77.83 59.0577V59.0558ZM72.8862 58.933C72.9836 58.9798 73.0478 59.0363 73.081 59.0226C73.1413 58.9934 73.1803 58.9233 73.229 58.8707C73.1822 58.8395 73.1258 58.7733 73.0907 58.783C73.0245 58.8025 72.9719 58.8649 72.8862 58.933ZM76.2113 57.0377C76.1899 57.0844 76.1587 57.1273 76.1529 57.174C76.1509 57.1877 76.2327 57.2364 76.2444 57.2266C76.2853 57.1955 76.3106 57.1468 76.3418 57.1059C76.3067 57.0883 76.2717 57.0689 76.2113 57.0377ZM54.969 64.0542C54.8813 64.0055 54.8287 63.9529 54.7956 63.9626C54.7567 63.9743 54.7352 64.0405 54.7041 64.0834C54.7352 64.1029 54.7703 64.1418 54.7995 64.1379C54.8443 64.1321 54.8852 64.099 54.969 64.0542Z" fill="#FB718D"/>
</svg>
